  0
SECTION
  2
HEADER
  9
$ACADVER
  1
AC1014
  9
$HANDSEED
  5
FFFF
  9
$MEASUREMENT
 70
     1
  0
ENDSEC
  0
SECTION
  2
TABLES
  0
TABLE
  2
VPORT
  5
8
330
0
100
AcDbSymbolTable
 70
     4
  0
VPORT
  5
2E
330
8
100
AcDbSymbolTableRecord
100
AcDbViewportTableRecord
  2
*ACTIVE
 70
     0
 10
0.0
 20
0.0
 11
1.0
 21
1.0
 12
210.0
 22
148.5
 13
0.0
 23
0.0
 14
10.0
 24
10.0
 15
10.0
 25
10.0
 16
0.0
 26
0.0
 36
1.0
 17
0.0
 27
0.0
 37
0.0
 40
341.0
 41
1.24
 42
50.0
 43
0.0
 44
0.0
 50
0.0
 51
0.0
 71
     0
 72
   100
 73
     1
 74
     3
 75
     0
 76
     0
 77
     0
 78
     0
  0
ENDTAB
  0
TABLE
  2
LTYPE
  5
5
330
0
100
AcDbSymbolTable
 70
     1
  0
LTYPE
  5
14
330
5
100
AcDbSymbolTableRecord
100
AcDbLinetypeTableRecord
  2
BYBLOCK
 70
     0
  3

 72
    65
 73
     0
 40
0.0
  0
LTYPE
  5
15
330
5
100
AcDbSymbolTableRecord
100
AcDbLinetypeTableRecord
  2
BYLAYER
 70
     0
  3

 72
    65
 73
     0
 40
0.0
  0
LTYPE
  5
16
330
5
100
AcDbSymbolTableRecord
100
AcDbLinetypeTableRecord
  2
CONTINUOUS
 70
     0
  3
Solid line
 72
    65
 73
     0
 40
0.0
  0
ENDTAB
  0
TABLE
  2
LAYER
  5
2
100
AcDbSymbolTable
 70
2
  0
LAYER
  5
50
100
AcDbSymbolTableRecord
100
AcDbLayerTableRecord
  2
0
 70
0
  6
CONTINUOUS
  0
LAYER
  5
51
100
AcDbSymbolTableRecord
100
AcDbLayerTableRecord
  2
Layer_1
 70
0
  6
CONTINUOUS
  0
ENDTAB
  0
TABLE
  2
STYLE
  5
3
330
0
100
AcDbSymbolTable
 70
     1
  0
STYLE
  5
11
330
3
100
AcDbSymbolTableRecord
100
AcDbTextStyleTableRecord
  2
STANDARD
 70
     0
 40
0.0
 41
1.0
 50
0.0
 71
     0
 42
2.5
  3
txt
  4

  0
ENDTAB
  0
TABLE
  2
VIEW
  5
6
330
0
100
AcDbSymbolTable
 70
     0
  0
ENDTAB
  0
TABLE
  2
UCS
  5
7
330
0
100
AcDbSymbolTable
 70
     0
  0
ENDTAB
  0
TABLE
  2
APPID
  5
9
330
0
100
AcDbSymbolTable
 70
     2
  0
APPID
  5
12
330
9
100
AcDbSymbolTableRecord
100
AcDbRegAppTableRecord
  2
ACAD
 70
     0
  0
ENDTAB
  0
TABLE
  2
DIMSTYLE
  5
A
330
0
100
AcDbSymbolTable
 70
     1
  0
DIMSTYLE
105
27
330
A
100
AcDbSymbolTableRecord
100
AcDbDimStyleTableRecord
  2
ISO-25
 70
     0
  3

  4

  5

  6

  7

 40
1.0
 41
2.5
 42
0.625
 43
3.75
 44
1.25
 45
0.0
 46
0.0
 47
0.0
 48
0.0
140
2.5
141
2.5
142
0.0
143
0.03937007874016
144
1.0
145
0.0
146
1.0
147
0.625
 71
     0
 72
     0
 73
     0
 74
     0
 75
     0
 76
     0
 77
     1
 78
     8
170
     0
171
     3
172
     1
173
     0
174
     0
175
     0
176
     0
177
     0
178
     0
270
     2
271
     2
272
     2
273
     2
274
     3
340
11
275
     0
280
     0
281
     0
282
     0
283
     0
284
     8
285
     0
286
     0
287
     3
288
     0
  0
ENDTAB
  0
TABLE
  2
BLOCK_RECORD
  5
1
330
0
100
AcDbSymbolTable
 70
     1
  0
BLOCK_RECORD
  5
1F
330
1
100
AcDbSymbolTableRecord
100
AcDbBlockTableRecord
  2
*MODEL_SPACE
  0
BLOCK_RECORD
  5
1B
330
1
100
AcDbSymbolTableRecord
100
AcDbBlockTableRecord
  2
*PAPER_SPACE
  0
ENDTAB
  0
ENDSEC
  0
SECTION
  2
BLOCKS
  0
BLOCK
  5
20
330
1F
100
AcDbEntity
  8
0
100
AcDbBlockBegin
  2
*MODEL_SPACE
 70
     0
 10
0.0
 20
0.0
 30
0.0
  3
*MODEL_SPACE
  1

  0
ENDBLK
  5
21
330
1F
100
AcDbEntity
  8
0
100
AcDbBlockEnd
  0
BLOCK
  5
1C
330
1B
100
AcDbEntity
 67
     1
  8
0
100
AcDbBlockBegin
  2
*PAPER_SPACE
  1

  0
ENDBLK
  5
1D
330
1B
100
AcDbEntity
 67
     1
  8
0
100
AcDbBlockEnd
  0
ENDSEC
  0
SECTION
  2
ENTITIES
  0
SPLINE
  5
100
100
AcDbEntity
  8
Layer_1
 62
1
100
AcDbSpline
 70
8
 71
3
 72
8
 73
4
 74
0
 40
0
 40
0
 40
0
 40
0
 40
1
 40
1
 40
1
 40
1
 10
529.574049
 20
557.557824
 30
0.0
 10
529.574049
 20
556.801983
 30
0.0
 10
529.170812
 20
556.103558
 30
0.0
 10
528.516235
 20
555.725637
 30
0.0
  0
SPLINE
  5
101
100
AcDbEntity
  8
Layer_1
 62
1
100
AcDbSpline
 70
8
 71
3
 72
8
 73
4
 74
0
 40
0
 40
0
 40
0
 40
0
 40
1
 40
1
 40
1
 40
1
 10
528.516235
 20
555.725637
 30
0.0
 10
527.861658
 20
555.347717
 30
0.0
 10
527.055186
 20
555.347717
 30
0.0
 10
526.400609
 20
555.725637
 30
0.0
  0
SPLINE
  5
102
100
AcDbEntity
  8
Layer_1
 62
1
100
AcDbSpline
 70
8
 71
3
 72
8
 73
4
 74
0
 40
0
 40
0
 40
0
 40
0
 40
1
 40
1
 40
1
 40
1
 10
526.400609
 20
555.725637
 30
0.0
 10
525.746032
 20
556.103558
 30
0.0
 10
525.342796
 20
556.801983
 30
0.0
 10
525.342796
 20
557.557824
 30
0.0
  0
SPLINE
  5
103
100
AcDbEntity
  8
Layer_1
 62
1
100
AcDbSpline
 70
8
 71
3
 72
8
 73
4
 74
0
 40
0
 40
0
 40
0
 40
0
 40
1
 40
1
 40
1
 40
1
 10
525.342796
 20
557.557824
 30
0.0
 10
525.342796
 20
558.313664
 30
0.0
 10
525.746032
 20
559.012090
 30
0.0
 10
526.400609
 20
559.390010
 30
0.0
  0
SPLINE
  5
104
100
AcDbEntity
  8
Layer_1
 62
1
100
AcDbSpline
 70
8
 71
3
 72
8
 73
4
 74
0
 40
0
 40
0
 40
0
 40
0
 40
1
 40
1
 40
1
 40
1
 10
526.400609
 20
559.390010
 30
0.0
 10
527.055186
 20
559.767930
 30
0.0
 10
527.861658
 20
559.767930
 30
0.0
 10
528.516235
 20
559.390010
 30
0.0
  0
SPLINE
  5
105
100
AcDbEntity
  8
Layer_1
 62
1
100
AcDbSpline
 70
8
 71
3
 72
8
 73
4
 74
0
 40
0
 40
0
 40
0
 40
0
 40
1
 40
1
 40
1
 40
1
 10
528.516235
 20
559.390010
 30
0.0
 10
529.170812
 20
559.012090
 30
0.0
 10
529.574049
 20
558.313664
 30
0.0
 10
529.574049
 20
557.557824
 30
0.0
  0
LWPOLYLINE
  5
106
100
AcDbEntity
  8
Layer_1
 62
7
100
AcDbPolyline
 90
5
 70
0
 10
556.499991
 20
441.000000
 30
0.0
 10
578.999991
 20
441.000000
 30
0.0
 10
578.999991
 20
403.499991
 30
0.0
 10
398.999991
 20
403.499991
 30
0.0
 10
398.999991
 20
380.999991
 30
0.0
  0
SPLINE
  5
107
100
AcDbEntity
  8
Layer_1
 62
1
100
AcDbSpline
 70
8
 71
3
 72
8
 73
4
 74
0
 40
0
 40
0
 40
0
 40
0
 40
1
 40
1
 40
1
 40
1
 10
529.518886
 20
553.101024
 30
0.0
 10
529.518886
 20
552.345183
 30
0.0
 10
529.115650
 20
551.646758
 30
0.0
 10
528.461073
 20
551.268837
 30
0.0
  0
SPLINE
  5
108
100
AcDbEntity
  8
Layer_1
 62
1
100
AcDbSpline
 70
8
 71
3
 72
8
 73
4
 74
0
 40
0
 40
0
 40
0
 40
0
 40
1
 40
1
 40
1
 40
1
 10
528.461073
 20
551.268837
 30
0.0
 10
527.806496
 20
550.890917
 30
0.0
 10
527.000024
 20
550.890917
 30
0.0
 10
526.345447
 20
551.268837
 30
0.0
  0
SPLINE
  5
109
100
AcDbEntity
  8
Layer_1
 62
1
100
AcDbSpline
 70
8
 71
3
 72
8
 73
4
 74
0
 40
0
 40
0
 40
0
 40
0
 40
1
 40
1
 40
1
 40
1
 10
526.345447
 20
551.268837
 30
0.0
 10
525.690870
 20
551.646758
 30
0.0
 10
525.287633
 20
552.345183
 30
0.0
 10
525.287633
 20
553.101024
 30
0.0
  0
SPLINE
  5
10a
100
AcDbEntity
  8
Layer_1
 62
1
100
AcDbSpline
 70
8
 71
3
 72
8
 73
4
 74
0
 40
0
 40
0
 40
0
 40
0
 40
1
 40
1
 40
1
 40
1
 10
525.287633
 20
553.101024
 30
0.0
 10
525.287633
 20
553.856864
 30
0.0
 10
525.690870
 20
554.555290
 30
0.0
 10
526.345447
 20
554.933210
 30
0.0
  0
SPLINE
  5
10b
100
AcDbEntity
  8
Layer_1
 62
1
100
AcDbSpline
 70
8
 71
3
 72
8
 73
4
 74
0
 40
0
 40
0
 40
0
 40
0
 40
1
 40
1
 40
1
 40
1
 10
526.345447
 20
554.933210
 30
0.0
 10
527.000024
 20
555.311130
 30
0.0
 10
527.806496
 20
555.311130
 30
0.0
 10
528.461073
 20
554.933210
 30
0.0
  0
SPLINE
  5
10c
100
AcDbEntity
  8
Layer_1
 62
1
100
AcDbSpline
 70
8
 71
3
 72
8
 73
4
 74
0
 40
0
 40
0
 40
0
 40
0
 40
1
 40
1
 40
1
 40
1
 10
528.461073
 20
554.933210
 30
0.0
 10
529.115650
 20
554.555290
 30
0.0
 10
529.518886
 20
553.856864
 30
0.0
 10
529.518886
 20
553.101024
 30
0.0
  0
LWPOLYLINE
  5
10d
100
AcDbEntity
  8
Layer_1
 62
1
100
AcDbPolyline
 90
1
 70
1
 10
529.574049
 20
557.557824
 30
0.0
  0
SPLINE
  5
10e
100
AcDbEntity
  8
Layer_1
 62
1
100
AcDbSpline
 70
8
 71
3
 72
8
 73
4
 74
0
 40
0
 40
0
 40
0
 40
0
 40
1
 40
1
 40
1
 40
1
 10
529.574049
 20
547.922665
 30
0.0
 10
529.574049
 20
547.166824
 30
0.0
 10
529.170812
 20
546.468399
 30
0.0
 10
528.516235
 20
546.090478
 30
0.0
  0
SPLINE
  5
10f
100
AcDbEntity
  8
Layer_1
 62
1
100
AcDbSpline
 70
8
 71
3
 72
8
 73
4
 74
0
 40
0
 40
0
 40
0
 40
0
 40
1
 40
1
 40
1
 40
1
 10
528.516235
 20
546.090478
 30
0.0
 10
527.861658
 20
545.712558
 30
0.0
 10
527.055186
 20
545.712558
 30
0.0
 10
526.400609
 20
546.090478
 30
0.0
  0
SPLINE
  5
110
100
AcDbEntity
  8
Layer_1
 62
1
100
AcDbSpline
 70
8
 71
3
 72
8
 73
4
 74
0
 40
0
 40
0
 40
0
 40
0
 40
1
 40
1
 40
1
 40
1
 10
526.400609
 20
546.090478
 30
0.0
 10
525.746032
 20
546.468399
 30
0.0
 10
525.342796
 20
547.166824
 30
0.0
 10
525.342796
 20
547.922665
 30
0.0
  0
SPLINE
  5
111
100
AcDbEntity
  8
Layer_1
 62
1
100
AcDbSpline
 70
8
 71
3
 72
8
 73
4
 74
0
 40
0
 40
0
 40
0
 40
0
 40
1
 40
1
 40
1
 40
1
 10
525.342796
 20
547.922665
 30
0.0
 10
525.342796
 20
548.678505
 30
0.0
 10
525.746032
 20
549.376931
 30
0.0
 10
526.400609
 20
549.754851
 30
0.0
  0
SPLINE
  5
112
100
AcDbEntity
  8
Layer_1
 62
1
100
AcDbSpline
 70
8
 71
3
 72
8
 73
4
 74
0
 40
0
 40
0
 40
0
 40
0
 40
1
 40
1
 40
1
 40
1
 10
526.400609
 20
549.754851
 30
0.0
 10
527.055186
 20
550.132771
 30
0.0
 10
527.861658
 20
550.132771
 30
0.0
 10
528.516235
 20
549.754851
 30
0.0
  0
SPLINE
  5
113
100
AcDbEntity
  8
Layer_1
 62
1
100
AcDbSpline
 70
8
 71
3
 72
8
 73
4
 74
0
 40
0
 40
0
 40
0
 40
0
 40
1
 40
1
 40
1
 40
1
 10
528.516235
 20
549.754851
 30
0.0
 10
529.170812
 20
549.376931
 30
0.0
 10
529.574049
 20
548.678505
 30
0.0
 10
529.574049
 20
547.922665
 30
0.0
  0
LWPOLYLINE
  5
114
100
AcDbEntity
  8
Layer_1
 62
1
100
AcDbPolyline
 90
1
 70
1
 10
529.518886
 20
553.101024
 30
0.0
  0
SPLINE
  5
115
100
AcDbEntity
  8
Layer_1
 62
1
100
AcDbSpline
 70
8
 71
3
 72
8
 73
4
 74
0
 40
0
 40
0
 40
0
 40
0
 40
1
 40
1
 40
1
 40
1
 10
529.619289
 20
543.365490
 30
0.0
 10
529.619289
 20
542.609649
 30
0.0
 10
529.216053
 20
541.911224
 30
0.0
 10
528.561476
 20
541.533304
 30
0.0
  0
SPLINE
  5
116
100
AcDbEntity
  8
Layer_1
 62
1
100
AcDbSpline
 70
8
 71
3
 72
8
 73
4
 74
0
 40
0
 40
0
 40
0
 40
0
 40
1
 40
1
 40
1
 40
1
 10
528.561476
 20
541.533304
 30
0.0
 10
527.906899
 20
541.155383
 30
0.0
 10
527.100427
 20
541.155383
 30
0.0
 10
526.445850
 20
541.533304
 30
0.0
  0
SPLINE
  5
117
100
AcDbEntity
  8
Layer_1
 62
1
100
AcDbSpline
 70
8
 71
3
 72
8
 73
4
 74
0
 40
0
 40
0
 40
0
 40
0
 40
1
 40
1
 40
1
 40
1
 10
526.445850
 20
541.533304
 30
0.0
 10
525.791273
 20
541.911224
 30
0.0
 10
525.388037
 20
542.609649
 30
0.0
 10
525.388037
 20
543.365490
 30
0.0
  0
SPLINE
  5
118
100
AcDbEntity
  8
Layer_1
 62
1
100
AcDbSpline
 70
8
 71
3
 72
8
 73
4
 74
0
 40
0
 40
0
 40
0
 40
0
 40
1
 40
1
 40
1
 40
1
 10
525.388037
 20
543.365490
 30
0.0
 10
525.388037
 20
544.121330
 30
0.0
 10
525.791273
 20
544.819756
 30
0.0
 10
526.445850
 20
545.197676
 30
0.0
  0
SPLINE
  5
119
100
AcDbEntity
  8
Layer_1
 62
1
100
AcDbSpline
 70
8
 71
3
 72
8
 73
4
 74
0
 40
0
 40
0
 40
0
 40
0
 40
1
 40
1
 40
1
 40
1
 10
526.445850
 20
545.197676
 30
0.0
 10
527.100427
 20
545.575596
 30
0.0
 10
527.906899
 20
545.575596
 30
0.0
 10
528.561476
 20
545.197676
 30
0.0
  0
SPLINE
  5
11a
100
AcDbEntity
  8
Layer_1
 62
1
100
AcDbSpline
 70
8
 71
3
 72
8
 73
4
 74
0
 40
0
 40
0
 40
0
 40
0
 40
1
 40
1
 40
1
 40
1
 10
528.561476
 20
545.197676
 30
0.0
 10
529.216053
 20
544.819756
 30
0.0
 10
529.619289
 20
544.121330
 30
0.0
 10
529.619289
 20
543.365490
 30
0.0
  0
LWPOLYLINE
  5
11b
100
AcDbEntity
  8
Layer_1
 62
1
100
AcDbPolyline
 90
1
 70
1
 10
529.574049
 20
547.922665
 30
0.0
  0
LWPOLYLINE
  5
11c
100
AcDbEntity
  8
Layer_1
 62
1
100
AcDbPolyline
 90
1
 70
1
 10
529.619289
 20
543.365490
 30
0.0
  0
LWPOLYLINE
  5
11d
100
AcDbEntity
  8
Layer_1
 62
1
100
AcDbPolyline
 90
4
 70
1
 10
406.500001
 20
493.500008
 30
0.0
 10
556.499993
 20
493.500008
 30
0.0
 10
556.499993
 20
418.500011
 30
0.0
 10
406.500001
 20
418.500011
 30
0.0
  0
LWPOLYLINE
  5
11e
100
AcDbEntity
  8
Layer_1
 62
1
100
AcDbPolyline
 90
4
 70
1
 10
406.500001
 20
482.249979
 30
0.0
 10
556.499993
 20
482.249979
 30
0.0
 10
556.499993
 20
452.250011
 30
0.0
 10
406.500001
 20
452.250011
 30
0.0
  0
LWPOLYLINE
  5
11f
100
AcDbEntity
  8
Layer_1
 62
1
100
AcDbPolyline
 90
4
 70
1
 10
398.999993
 20
467.250026
 30
0.0
 10
406.499993
 20
467.250026
 30
0.0
 10
406.499993
 20
459.750027
 30
0.0
 10
398.999993
 20
459.750027
 30
0.0
  0
LWPOLYLINE
  5
120
100
AcDbEntity
  8
Layer_1
 62
1
100
AcDbPolyline
 90
4
 70
1
 10
398.999993
 20
448.500008
 30
0.0
 10
406.499993
 20
448.500008
 30
0.0
 10
406.499993
 20
441.000008
 30
0.0
 10
398.999993
 20
441.000008
 30
0.0
  0
LWPOLYLINE
  5
121
100
AcDbEntity
  8
Layer_1
 62
7
100
AcDbPolyline
 90
4
 70
1
 10
200.250029
 20
413.999979
 30
0.0
 10
290.250040
 20
413.999979
 30
0.0
 10
290.250040
 20
361.499994
 30
0.0
 10
200.250029
 20
361.499994
 30
0.0
  0
LWPOLYLINE
  5
122
100
AcDbEntity
  8
Layer_1
 62
7
100
AcDbPolyline
 90
4
 70
1
 10
204.000021
 20
410.249998
 30
0.0
 10
286.500014
 20
410.249998
 30
0.0
 10
286.500014
 20
365.249970
 30
0.0
 10
204.000021
 20
365.249970
 30
0.0
  0
LWPOLYLINE
  5
123
100
AcDbEntity
  8
Layer_1
 62
7
100
AcDbPolyline
 90
4
 70
1
 10
219.000036
 20
406.499988
 30
0.0
 10
267.750035
 20
406.499988
 30
0.0
 10
267.750035
 20
387.749974
 30
0.0
 10
219.000036
 20
387.749974
 30
0.0
  0
LWPOLYLINE
  5
124
100
AcDbEntity
  8
Layer_1
 62
7
100
AcDbPolyline
 90
4
 70
1
 10
271.500010
 20
406.499988
 30
0.0
 10
282.750010
 20
406.499988
 30
0.0
 10
282.750010
 20
402.749989
 30
0.0
 10
271.500010
 20
402.749989
 30
0.0
  0
SPLINE
  5
125
100
AcDbEntity
  8
Layer_1
 62
7
100
AcDbSpline
 70
8
 71
3
 72
8
 73
4
 74
0
 40
0
 40
0
 40
0
 40
0
 40
1
 40
1
 40
1
 40
1
 10
224.156275
 20
382.171840
 30
0.0
 10
224.156275
 20
381.317752
 30
0.0
 10
223.700624
 20
380.528543
 30
0.0
 10
222.960962
 20
380.101499
 30
0.0
  0
SPLINE
  5
126
100
AcDbEntity
  8
Layer_1
 62
7
100
AcDbSpline
 70
8
 71
3
 72
8
 73
4
 74
0
 40
0
 40
0
 40
0
 40
0
 40
1
 40
1
 40
1
 40
1
 10
222.960962
 20
380.101499
 30
0.0
 10
222.221301
 20
379.674455
 30
0.0
 10
221.309999
 20
379.674455
 30
0.0
 10
220.570338
 20
380.101499
 30
0.0
  0
SPLINE
  5
127
100
AcDbEntity
  8
Layer_1
 62
7
100
AcDbSpline
 70
8
 71
3
 72
8
 73
4
 74
0
 40
0
 40
0
 40
0
 40
0
 40
1
 40
1
 40
1
 40
1
 10
220.570338
 20
380.101499
 30
0.0
 10
219.830676
 20
380.528543
 30
0.0
 10
219.375025
 20
381.317752
 30
0.0
 10
219.375025
 20
382.171840
 30
0.0
  0
SPLINE
  5
128
100
AcDbEntity
  8
Layer_1
 62
7
100
AcDbSpline
 70
8
 71
3
 72
8
 73
4
 74
0
 40
0
 40
0
 40
0
 40
0
 40
1
 40
1
 40
1
 40
1
 10
219.375025
 20
382.171840
 30
0.0
 10
219.375025
 20
383.025928
 30
0.0
 10
219.830676
 20
383.815138
 30
0.0
 10
220.570338
 20
384.242182
 30
0.0
  0
SPLINE
  5
129
100
AcDbEntity
  8
Layer_1
 62
7
100
AcDbSpline
 70
8
 71
3
 72
8
 73
4
 74
0
 40
0
 40
0
 40
0
 40
0
 40
1
 40
1
 40
1
 40
1
 10
220.570338
 20
384.242182
 30
0.0
 10
221.309999
 20
384.669226
 30
0.0
 10
222.221301
 20
384.669226
 30
0.0
 10
222.960962
 20
384.242182
 30
0.0
  0
SPLINE
  5
12a
100
AcDbEntity
  8
Layer_1
 62
7
100
AcDbSpline
 70
8
 71
3
 72
8
 73
4
 74
0
 40
0
 40
0
 40
0
 40
0
 40
1
 40
1
 40
1
 40
1
 10
222.960962
 20
384.242182
 30
0.0
 10
223.700624
 20
383.815138
 30
0.0
 10
224.156275
 20
383.025928
 30
0.0
 10
224.156275
 20
382.171840
 30
0.0
  0
LWPOLYLINE
  5
12b
100
AcDbEntity
  8
Layer_1
 62
7
100
AcDbPolyline
 90
4
 70
1
 10
271.500010
 20
399.750017
 30
0.0
 10
282.750010
 20
399.750017
 30
0.0
 10
282.750010
 20
396.000017
 30
0.0
 10
271.500010
 20
396.000017
 30
0.0
  0
SPLINE
  5
12c
100
AcDbEntity
  8
Layer_1
 62
7
100
AcDbSpline
 70
8
 71
3
 72
8
 73
4
 74
0
 40
0
 40
0
 40
0
 40
0
 40
1
 40
1
 40
1
 40
1
 10
246.000015
 20
381.984357
 30
0.0
 10
246.000015
 20
381.130269
 30
0.0
 10
245.544364
 20
380.341059
 30
0.0
 10
244.804702
 20
379.914015
 30
0.0
  0
SPLINE
  5
12d
100
AcDbEntity
  8
Layer_1
 62
7
100
AcDbSpline
 70
8
 71
3
 72
8
 73
4
 74
0
 40
0
 40
0
 40
0
 40
0
 40
1
 40
1
 40
1
 40
1
 10
244.804702
 20
379.914015
 30
0.0
 10
244.065040
 20
379.486971
 30
0.0
 10
243.153739
 20
379.486971
 30
0.0
 10
242.414077
 20
379.914015
 30
0.0
  0
SPLINE
  5
12e
100
AcDbEntity
  8
Layer_1
 62
7
100
AcDbSpline
 70
8
 71
3
 72
8
 73
4
 74
0
 40
0
 40
0
 40
0
 40
0
 40
1
 40
1
 40
1
 40
1
 10
242.414077
 20
379.914015
 30
0.0
 10
241.674415
 20
380.341059
 30
0.0
 10
241.218765
 20
381.130269
 30
0.0
 10
241.218765
 20
381.984357
 30
0.0
  0
SPLINE
  5
12f
100
AcDbEntity
  8
Layer_1
 62
7
100
AcDbSpline
 70
8
 71
3
 72
8
 73
4
 74
0
 40
0
 40
0
 40
0
 40
0
 40
1
 40
1
 40
1
 40
1
 10
241.218765
 20
381.984357
 30
0.0
 10
241.218765
 20
382.838445
 30
0.0
 10
241.674415
 20
383.627655
 30
0.0
 10
242.414077
 20
384.054699
 30
0.0
  0
SPLINE
  5
130
100
AcDbEntity
  8
Layer_1
 62
7
100
AcDbSpline
 70
8
 71
3
 72
8
 73
4
 74
0
 40
0
 40
0
 40
0
 40
0
 40
1
 40
1
 40
1
 40
1
 10
242.414077
 20
384.054699
 30
0.0
 10
243.153739
 20
384.481743
 30
0.0
 10
244.065040
 20
384.481743
 30
0.0
 10
244.804702
 20
384.054699
 30
0.0
  0
SPLINE
  5
131
100
AcDbEntity
  8
Layer_1
 62
7
100
AcDbSpline
 70
8
 71
3
 72
8
 73
4
 74
0
 40
0
 40
0
 40
0
 40
0
 40
1
 40
1
 40
1
 40
1
 10
244.804702
 20
384.054699
 30
0.0
 10
245.544364
 20
383.627655
 30
0.0
 10
246.000015
 20
382.838445
 30
0.0
 10
246.000015
 20
381.984357
 30
0.0
  0
LWPOLYLINE
  5
132
100
AcDbEntity
  8
Layer_1
 62
7
100
AcDbPolyline
 90
1
 70
1
 10
224.156275
 20
382.171840
 30
0.0
  0
SPLINE
  5
133
100
AcDbEntity
  8
Layer_1
 62
7
100
AcDbSpline
 70
8
 71
3
 72
8
 73
4
 74
0
 40
0
 40
0
 40
0
 40
0
 40
1
 40
1
 40
1
 40
1
 10
268.593765
 20
382.078127
 30
0.0
 10
268.593765
 20
381.224039
 30
0.0
 10
268.138114
 20
380.434829
 30
0.0
 10
267.398453
 20
380.007785
 30
0.0
  0
SPLINE
  5
134
100
AcDbEntity
  8
Layer_1
 62
7
100
AcDbSpline
 70
8
 71
3
 72
8
 73
4
 74
0
 40
0
 40
0
 40
0
 40
0
 40
1
 40
1
 40
1
 40
1
 10
267.398453
 20
380.007785
 30
0.0
 10
266.658791
 20
379.580741
 30
0.0
 10
265.747490
 20
379.580741
 30
0.0
 10
265.007828
 20
380.007785
 30
0.0
  0
SPLINE
  5
135
100
AcDbEntity
  8
Layer_1
 62
7
100
AcDbSpline
 70
8
 71
3
 72
8
 73
4
 74
0
 40
0
 40
0
 40
0
 40
0
 40
1
 40
1
 40
1
 40
1
 10
265.007828
 20
380.007785
 30
0.0
 10
264.268166
 20
380.434829
 30
0.0
 10
263.812515
 20
381.224039
 30
0.0
 10
263.812515
 20
382.078127
 30
0.0
  0
SPLINE
  5
136
100
AcDbEntity
  8
Layer_1
 62
7
100
AcDbSpline
 70
8
 71
3
 72
8
 73
4
 74
0
 40
0
 40
0
 40
0
 40
0
 40
1
 40
1
 40
1
 40
1
 10
263.812515
 20
382.078127
 30
0.0
 10
263.812515
 20
382.932215
 30
0.0
 10
264.268166
 20
383.721425
 30
0.0
 10
265.007828
 20
384.148469
 30
0.0
  0
SPLINE
  5
137
100
AcDbEntity
  8
Layer_1
 62
7
100
AcDbSpline
 70
8
 71
3
 72
8
 73
4
 74
0
 40
0
 40
0
 40
0
 40
0
 40
1
 40
1
 40
1
 40
1
 10
265.007828
 20
384.148469
 30
0.0
 10
265.747490
 20
384.575513
 30
0.0
 10
266.658791
 20
384.575513
 30
0.0
 10
267.398453
 20
384.148469
 30
0.0
  0
SPLINE
  5
138
100
AcDbEntity
  8
Layer_1
 62
7
100
AcDbSpline
 70
8
 71
3
 72
8
 73
4
 74
0
 40
0
 40
0
 40
0
 40
0
 40
1
 40
1
 40
1
 40
1
 10
267.398453
 20
384.148469
 30
0.0
 10
268.138114
 20
383.721425
 30
0.0
 10
268.593765
 20
382.932215
 30
0.0
 10
268.593765
 20
382.078127
 30
0.0
  0
LWPOLYLINE
  5
139
100
AcDbEntity
  8
Layer_1
 62
7
100
AcDbPolyline
 90
1
 70
1
 10
246.000015
 20
381.984357
 30
0.0
  0
LWPOLYLINE
  5
13a
100
AcDbEntity
  8
Layer_1
 62
7
100
AcDbPolyline
 90
1
 70
1
 10
268.593765
 20
382.078127
 30
0.0
  0
LWPOLYLINE
  5
13b
100
AcDbEntity
  8
Layer_1
 62
7
100
AcDbPolyline
 90
4
 70
1
 10
204.000021
 20
376.499998
 30
0.0
 10
286.500019
 20
376.499998
 30
0.0
 10
286.500019
 20
365.249998
 30
0.0
 10
204.000021
 20
365.249998
 30
0.0
  0
LWPOLYLINE
  5
13c
100
AcDbEntity
  8
Layer_1
 62
7
100
AcDbPolyline
 90
4
 70
1
 10
443.999988
 20
384.749977
 30
0.0
 10
462.749980
 20
384.749977
 30
0.0
 10
462.749980
 20
324.749979
 30
0.0
 10
443.999988
 20
324.749979
 30
0.0
  0
LWPOLYLINE
  5
13d
100
AcDbEntity
  8
Layer_1
 62
7
100
AcDbPolyline
 90
4
 70
1
 10
462.750007
 20
384.749977
 30
0.0
 10
481.499999
 20
384.749977
 30
0.0
 10
481.499999
 20
324.749979
 30
0.0
 10
462.750007
 20
324.749979
 30
0.0
  0
SPLINE
  5
13e
100
AcDbEntity
  8
Layer_1
 62
7
100
AcDbSpline
 70
8
 71
3
 72
8
 73
4
 74
0
 40
0
 40
0
 40
0
 40
0
 40
1
 40
1
 40
1
 40
1
 10
455.249983
 20
379.124963
 30
0.0
 10
455.249983
 20
378.455090
 30
0.0
 10
454.892610
 20
377.836102
 30
0.0
 10
454.312483
 20
377.501166
 30
0.0
  0
SPLINE
  5
13f
100
AcDbEntity
  8
Layer_1
 62
7
100
AcDbSpline
 70
8
 71
3
 72
8
 73
4
 74
0
 40
0
 40
0
 40
0
 40
0
 40
1
 40
1
 40
1
 40
1
 10
454.312483
 20
377.501166
 30
0.0
 10
453.732356
 20
377.166229
 30
0.0
 10
453.017610
 20
377.166229
 30
0.0
 10
452.437483
 20
377.501166
 30
0.0
  0
SPLINE
  5
140
100
AcDbEntity
  8
Layer_1
 62
7
100
AcDbSpline
 70
8
 71
3
 72
8
 73
4
 74
0
 40
0
 40
0
 40
0
 40
0
 40
1
 40
1
 40
1
 40
1
 10
452.437483
 20
377.501166
 30
0.0
 10
451.857356
 20
377.836102
 30
0.0
 10
451.499983
 20
378.455090
 30
0.0
 10
451.499983
 20
379.124963
 30
0.0
  0
SPLINE
  5
141
100
AcDbEntity
  8
Layer_1
 62
7
100
AcDbSpline
 70
8
 71
3
 72
8
 73
4
 74
0
 40
0
 40
0
 40
0
 40
0
 40
1
 40
1
 40
1
 40
1
 10
451.499983
 20
379.124963
 30
0.0
 10
451.499983
 20
379.794836
 30
0.0
 10
451.857356
 20
380.413824
 30
0.0
 10
452.437483
 20
380.748761
 30
0.0
  0
SPLINE
  5
142
100
AcDbEntity
  8
Layer_1
 62
7
100
AcDbSpline
 70
8
 71
3
 72
8
 73
4
 74
0
 40
0
 40
0
 40
0
 40
0
 40
1
 40
1
 40
1
 40
1
 10
452.437483
 20
380.748761
 30
0.0
 10
453.017610
 20
381.083697
 30
0.0
 10
453.732356
 20
381.083697
 30
0.0
 10
454.312483
 20
380.748761
 30
0.0
  0
SPLINE
  5
143
100
AcDbEntity
  8
Layer_1
 62
7
100
AcDbSpline
 70
8
 71
3
 72
8
 73
4
 74
0
 40
0
 40
0
 40
0
 40
0
 40
1
 40
1
 40
1
 40
1
 10
454.312483
 20
380.748761
 30
0.0
 10
454.892610
 20
380.413824
 30
0.0
 10
455.249983
 20
379.794836
 30
0.0
 10
455.249983
 20
379.124963
 30
0.0
  0
LWPOLYLINE
  5
144
100
AcDbEntity
  8
Layer_1
 62
7
100
AcDbPolyline
 90
4
 70
1
 10
443.999988
 20
373.499977
 30
0.0
 10
481.499986
 20
373.499977
 30
0.0
 10
481.499986
 20
335.999993
 30
0.0
 10
443.999988
 20
335.999993
 30
0.0
  0
SPLINE
  5
145
100
AcDbEntity
  8
Layer_1
 62
7
100
AcDbSpline
 70
8
 71
3
 72
8
 73
4
 74
0
 40
0
 40
0
 40
0
 40
0
 40
1
 40
1
 40
1
 40
1
 10
473.944103
 20
379.295269
 30
0.0
 10
473.944103
 20
378.625396
 30
0.0
 10
473.586730
 20
378.006408
 30
0.0
 10
473.006603
 20
377.671471
 30
0.0
  0
SPLINE
  5
146
100
AcDbEntity
  8
Layer_1
 62
7
100
AcDbSpline
 70
8
 71
3
 72
8
 73
4
 74
0
 40
0
 40
0
 40
0
 40
0
 40
1
 40
1
 40
1
 40
1
 10
473.006603
 20
377.671471
 30
0.0
 10
472.426476
 20
377.336535
 30
0.0
 10
471.711730
 20
377.336535
 30
0.0
 10
471.131603
 20
377.671471
 30
0.0
  0
SPLINE
  5
147
100
AcDbEntity
  8
Layer_1
 62
7
100
AcDbSpline
 70
8
 71
3
 72
8
 73
4
 74
0
 40
0
 40
0
 40
0
 40
0
 40
1
 40
1
 40
1
 40
1
 10
471.131603
 20
377.671471
 30
0.0
 10
470.551476
 20
378.006408
 30
0.0
 10
470.194103
 20
378.625396
 30
0.0
 10
470.194103
 20
379.295269
 30
0.0
  0
SPLINE
  5
148
100
AcDbEntity
  8
Layer_1
 62
7
100
AcDbSpline
 70
8
 71
3
 72
8
 73
4
 74
0
 40
0
 40
0
 40
0
 40
0
 40
1
 40
1
 40
1
 40
1
 10
470.194103
 20
379.295269
 30
0.0
 10
470.194103
 20
379.965142
 30
0.0
 10
470.551476
 20
380.584130
 30
0.0
 10
471.131603
 20
380.919066
 30
0.0
  0
SPLINE
  5
149
100
AcDbEntity
  8
Layer_1
 62
7
100
AcDbSpline
 70
8
 71
3
 72
8
 73
4
 74
0
 40
0
 40
0
 40
0
 40
0
 40
1
 40
1
 40
1
 40
1
 10
471.131603
 20
380.919066
 30
0.0
 10
471.711730
 20
381.254003
 30
0.0
 10
472.426476
 20
381.254003
 30
0.0
 10
473.006603
 20
380.919066
 30
0.0
  0
SPLINE
  5
14a
100
AcDbEntity
  8
Layer_1
 62
7
100
AcDbSpline
 70
8
 71
3
 72
8
 73
4
 74
0
 40
0
 40
0
 40
0
 40
0
 40
1
 40
1
 40
1
 40
1
 10
473.006603
 20
380.919066
 30
0.0
 10
473.586730
 20
380.584130
 30
0.0
 10
473.944103
 20
379.965142
 30
0.0
 10
473.944103
 20
379.295269
 30
0.0
  0
LWPOLYLINE
  5
14b
100
AcDbEntity
  8
Layer_1
 62
7
100
AcDbPolyline
 90
1
 70
1
 10
455.249983
 20
379.124963
 30
0.0
  0
SPLINE
  5
14c
100
AcDbEntity
  8
Layer_1
 62
7
100
AcDbSpline
 70
8
 71
3
 72
8
 73
4
 74
0
 40
0
 40
0
 40
0
 40
0
 40
1
 40
1
 40
1
 40
1
 10
455.269514
 20
330.467221
 30
0.0
 10
455.269514
 20
329.797348
 30
0.0
 10
454.912141
 20
329.178360
 30
0.0
 10
454.332014
 20
328.843424
 30
0.0
  0
SPLINE
  5
14d
100
AcDbEntity
  8
Layer_1
 62
7
100
AcDbSpline
 70
8
 71
3
 72
8
 73
4
 74
0
 40
0
 40
0
 40
0
 40
0
 40
1
 40
1
 40
1
 40
1
 10
454.332014
 20
328.843424
 30
0.0
 10
453.751887
 20
328.508487
 30
0.0
 10
453.037141
 20
328.508487
 30
0.0
 10
452.457014
 20
328.843424
 30
0.0
  0
SPLINE
  5
14e
100
AcDbEntity
  8
Layer_1
 62
7
100
AcDbSpline
 70
8
 71
3
 72
8
 73
4
 74
0
 40
0
 40
0
 40
0
 40
0
 40
1
 40
1
 40
1
 40
1
 10
452.457014
 20
328.843424
 30
0.0
 10
451.876887
 20
329.178360
 30
0.0
 10
451.519514
 20
329.797348
 30
0.0
 10
451.519514
 20
330.467221
 30
0.0
  0
SPLINE
  5
14f
100
AcDbEntity
  8
Layer_1
 62
7
100
AcDbSpline
 70
8
 71
3
 72
8
 73
4
 74
0
 40
0
 40
0
 40
0
 40
0
 40
1
 40
1
 40
1
 40
1
 10
451.519514
 20
330.467221
 30
0.0
 10
451.519514
 20
331.137094
 30
0.0
 10
451.876887
 20
331.756083
 30
0.0
 10
452.457014
 20
332.091019
 30
0.0
  0
SPLINE
  5
150
100
AcDbEntity
  8
Layer_1
 62
7
100
AcDbSpline
 70
8
 71
3
 72
8
 73
4
 74
0
 40
0
 40
0
 40
0
 40
0
 40
1
 40
1
 40
1
 40
1
 10
452.457014
 20
332.091019
 30
0.0
 10
453.037141
 20
332.425955
 30
0.0
 10
453.751887
 20
332.425955
 30
0.0
 10
454.332014
 20
332.091019
 30
0.0
  0
SPLINE
  5
151
100
AcDbEntity
  8
Layer_1
 62
7
100
AcDbSpline
 70
8
 71
3
 72
8
 73
4
 74
0
 40
0
 40
0
 40
0
 40
0
 40
1
 40
1
 40
1
 40
1
 10
454.332014
 20
332.091019
 30
0.0
 10
454.912141
 20
331.756083
 30
0.0
 10
455.269514
 20
331.137094
 30
0.0
 10
455.269514
 20
330.467221
 30
0.0
  0
LWPOLYLINE
  5
152
100
AcDbEntity
  8
Layer_1
 62
7
100
AcDbPolyline
 90
1
 70
1
 10
473.944103
 20
379.295269
 30
0.0
  0
SPLINE
  5
153
100
AcDbEntity
  8
Layer_1
 62
7
100
AcDbSpline
 70
8
 71
3
 72
8
 73
4
 74
0
 40
0
 40
0
 40
0
 40
0
 40
1
 40
1
 40
1
 40
1
 10
473.963605
 20
330.637499
 30
0.0
 10
473.963605
 20
329.967626
 30
0.0
 10
473.606232
 20
329.348637
 30
0.0
 10
473.026105
 20
329.013701
 30
0.0
  0
SPLINE
  5
154
100
AcDbEntity
  8
Layer_1
 62
7
100
AcDbSpline
 70
8
 71
3
 72
8
 73
4
 74
0
 40
0
 40
0
 40
0
 40
0
 40
1
 40
1
 40
1
 40
1
 10
473.026105
 20
329.013701
 30
0.0
 10
472.445978
 20
328.678765
 30
0.0
 10
471.731232
 20
328.678765
 30
0.0
 10
471.151105
 20
329.013701
 30
0.0
  0
SPLINE
  5
155
100
AcDbEntity
  8
Layer_1
 62
7
100
AcDbSpline
 70
8
 71
3
 72
8
 73
4
 74
0
 40
0
 40
0
 40
0
 40
0
 40
1
 40
1
 40
1
 40
1
 10
471.151105
 20
329.013701
 30
0.0
 10
470.570978
 20
329.348637
 30
0.0
 10
470.213605
 20
329.967626
 30
0.0
 10
470.213605
 20
330.637499
 30
0.0
  0
SPLINE
  5
156
100
AcDbEntity
  8
Layer_1
 62
7
100
AcDbSpline
 70
8
 71
3
 72
8
 73
4
 74
0
 40
0
 40
0
 40
0
 40
0
 40
1
 40
1
 40
1
 40
1
 10
470.213605
 20
330.637499
 30
0.0
 10
470.213605
 20
331.307372
 30
0.0
 10
470.570978
 20
331.926360
 30
0.0
 10
471.151105
 20
332.261296
 30
0.0
  0
SPLINE
  5
157
100
AcDbEntity
  8
Layer_1
 62
7
100
AcDbSpline
 70
8
 71
3
 72
8
 73
4
 74
0
 40
0
 40
0
 40
0
 40
0
 40
1
 40
1
 40
1
 40
1
 10
471.151105
 20
332.261296
 30
0.0
 10
471.731232
 20
332.596233
 30
0.0
 10
472.445978
 20
332.596233
 30
0.0
 10
473.026105
 20
332.261296
 30
0.0
  0
SPLINE
  5
158
100
AcDbEntity
  8
Layer_1
 62
7
100
AcDbSpline
 70
8
 71
3
 72
8
 73
4
 74
0
 40
0
 40
0
 40
0
 40
0
 40
1
 40
1
 40
1
 40
1
 10
473.026105
 20
332.261296
 30
0.0
 10
473.606232
 20
331.926360
 30
0.0
 10
473.963605
 20
331.307372
 30
0.0
 10
473.963605
 20
330.637499
 30
0.0
  0
LWPOLYLINE
  5
159
100
AcDbEntity
  8
Layer_1
 62
7
100
AcDbPolyline
 90
1
 70
1
 10
455.269514
 20
330.467221
 30
0.0
  0
LWPOLYLINE
  5
15a
100
AcDbEntity
  8
Layer_1
 62
7
100
AcDbPolyline
 90
1
 70
1
 10
473.963605
 20
330.637499
 30
0.0
  0
LWPOLYLINE
  5
15b
100
AcDbEntity
  8
Layer_1
 62
7
100
AcDbPolyline
 90
4
 70
1
 10
443.999988
 20
358.499996
 30
0.0
 10
481.499986
 20
358.499996
 30
0.0
 10
481.499986
 20
345.749965
 30
0.0
 10
443.999988
 20
345.749965
 30
0.0
  0
LWPOLYLINE
  5
15c
100
AcDbEntity
  8
Layer_1
 62
7
100
AcDbPolyline
 90
4
 70
1
 10
470.249997
 20
358.499996
 30
0.0
 10
477.749997
 20
358.499996
 30
0.0
 10
477.749997
 20
347.250004
 30
0.0
 10
470.249997
 20
347.250004
 30
0.0
  0
LWPOLYLINE
  5
15d
100
AcDbEntity
  8
Layer_1
 62
7
100
AcDbPolyline
 90
4
 70
1
 10
447.749997
 20
358.499996
 30
0.0
 10
455.249997
 20
358.499996
 30
0.0
 10
455.249997
 20
347.250004
 30
0.0
 10
447.749997
 20
347.250004
 30
0.0
  0
LWPOLYLINE
  5
15e
100
AcDbEntity
  8
Layer_1
 62
7
100
AcDbPolyline
 90
4
 70
1
 10
443.999988
 20
373.499977
 30
0.0
 10
481.499986
 20
373.499977
 30
0.0
 10
481.499986
 20
369.749978
 30
0.0
 10
443.999988
 20
369.749978
 30
0.0
  0
LWPOLYLINE
  5
15f
100
AcDbEntity
  8
Layer_1
 62
7
100
AcDbPolyline
 90
4
 70
1
 10
447.749969
 20
360.886513
 30
0.0
 10
477.749985
 20
360.886513
 30
0.0
 10
477.749985
 20
354.750049
 30
0.0
 10
447.749969
 20
354.750049
 30
0.0
  0
LWPOLYLINE
  5
160
100
AcDbEntity
  8
Layer_1
 62
7
100
AcDbPolyline
 90
4
 70
1
 10
204.000001
 20
249.749974
 30
0.0
 10
222.749993
 20
249.749974
 30
0.0
 10
222.749993
 20
189.749976
 30
0.0
 10
204.000001
 20
189.749976
 30
0.0
  0
LWPOLYLINE
  5
161
100
AcDbEntity
  8
Layer_1
 62
7
100
AcDbPolyline
 90
4
 70
1
 10
222.750020
 20
249.749974
 30
0.0
 10
241.500012
 20
249.749974
 30
0.0
 10
241.500012
 20
189.749976
 30
0.0
 10
222.750020
 20
189.749976
 30
0.0
  0
SPLINE
  5
162
100
AcDbEntity
  8
Layer_1
 62
7
100
AcDbSpline
 70
8
 71
3
 72
8
 73
4
 74
0
 40
0
 40
0
 40
0
 40
0
 40
1
 40
1
 40
1
 40
1
 10
215.249996
 20
244.124960
 30
0.0
 10
215.249996
 20
243.455087
 30
0.0
 10
214.892623
 20
242.836099
 30
0.0
 10
214.312496
 20
242.501163
 30
0.0
  0
SPLINE
  5
163
100
AcDbEntity
  8
Layer_1
 62
7
100
AcDbSpline
 70
8
 71
3
 72
8
 73
4
 74
0
 40
0
 40
0
 40
0
 40
0
 40
1
 40
1
 40
1
 40
1
 10
214.312496
 20
242.501163
 30
0.0
 10
213.732369
 20
242.166226
 30
0.0
 10
213.017623
 20
242.166226
 30
0.0
 10
212.437496
 20
242.501163
 30
0.0
  0
SPLINE
  5
164
100
AcDbEntity
  8
Layer_1
 62
7
100
AcDbSpline
 70
8
 71
3
 72
8
 73
4
 74
0
 40
0
 40
0
 40
0
 40
0
 40
1
 40
1
 40
1
 40
1
 10
212.437496
 20
242.501163
 30
0.0
 10
211.857369
 20
242.836099
 30
0.0
 10
211.499996
 20
243.455087
 30
0.0
 10
211.499996
 20
244.124960
 30
0.0
  0
SPLINE
  5
165
100
AcDbEntity
  8
Layer_1
 62
7
100
AcDbSpline
 70
8
 71
3
 72
8
 73
4
 74
0
 40
0
 40
0
 40
0
 40
0
 40
1
 40
1
 40
1
 40
1
 10
211.499996
 20
244.124960
 30
0.0
 10
211.499996
 20
244.794833
 30
0.0
 10
211.857369
 20
245.413821
 30
0.0
 10
212.437496
 20
245.748758
 30
0.0
  0
SPLINE
  5
166
100
AcDbEntity
  8
Layer_1
 62
7
100
AcDbSpline
 70
8
 71
3
 72
8
 73
4
 74
0
 40
0
 40
0
 40
0
 40
0
 40
1
 40
1
 40
1
 40
1
 10
212.437496
 20
245.748758
 30
0.0
 10
213.017623
 20
246.083694
 30
0.0
 10
213.732369
 20
246.083694
 30
0.0
 10
214.312496
 20
245.748758
 30
0.0
  0
SPLINE
  5
167
100
AcDbEntity
  8
Layer_1
 62
7
100
AcDbSpline
 70
8
 71
3
 72
8
 73
4
 74
0
 40
0
 40
0
 40
0
 40
0
 40
1
 40
1
 40
1
 40
1
 10
214.312496
 20
245.748758
 30
0.0
 10
214.892623
 20
245.413821
 30
0.0
 10
215.249996
 20
244.794833
 30
0.0
 10
215.249996
 20
244.124960
 30
0.0
  0
LWPOLYLINE
  5
168
100
AcDbEntity
  8
Layer_1
 62
7
100
AcDbPolyline
 90
4
 70
1
 10
204.000001
 20
238.499974
 30
0.0
 10
241.499999
 20
238.499974
 30
0.0
 10
241.499999
 20
200.999991
 30
0.0
 10
204.000001
 20
200.999991
 30
0.0
  0
SPLINE
  5
169
100
AcDbEntity
  8
Layer_1
 62
7
100
AcDbSpline
 70
8
 71
3
 72
8
 73
4
 74
0
 40
0
 40
0
 40
0
 40
0
 40
1
 40
1
 40
1
 40
1
 10
233.944116
 20
244.295266
 30
0.0
 10
233.944116
 20
243.625393
 30
0.0
 10
233.586743
 20
243.006405
 30
0.0
 10
233.006616
 20
242.671468
 30
0.0
  0
SPLINE
  5
16a
100
AcDbEntity
  8
Layer_1
 62
7
100
AcDbSpline
 70
8
 71
3
 72
8
 73
4
 74
0
 40
0
 40
0
 40
0
 40
0
 40
1
 40
1
 40
1
 40
1
 10
233.006616
 20
242.671468
 30
0.0
 10
232.426489
 20
242.336532
 30
0.0
 10
231.711743
 20
242.336532
 30
0.0
 10
231.131616
 20
242.671468
 30
0.0
  0
SPLINE
  5
16b
100
AcDbEntity
  8
Layer_1
 62
7
100
AcDbSpline
 70
8
 71
3
 72
8
 73
4
 74
0
 40
0
 40
0
 40
0
 40
0
 40
1
 40
1
 40
1
 40
1
 10
231.131616
 20
242.671468
 30
0.0
 10
230.551489
 20
243.006405
 30
0.0
 10
230.194116
 20
243.625393
 30
0.0
 10
230.194116
 20
244.295266
 30
0.0
  0
SPLINE
  5
16c
100
AcDbEntity
  8
Layer_1
 62
7
100
AcDbSpline
 70
8
 71
3
 72
8
 73
4
 74
0
 40
0
 40
0
 40
0
 40
0
 40
1
 40
1
 40
1
 40
1
 10
230.194116
 20
244.295266
 30
0.0
 10
230.194116
 20
244.965139
 30
0.0
 10
230.551489
 20
245.584127
 30
0.0
 10
231.131616
 20
245.919063
 30
0.0
  0
SPLINE
  5
16d
100
AcDbEntity
  8
Layer_1
 62
7
100
AcDbSpline
 70
8
 71
3
 72
8
 73
4
 74
0
 40
0
 40
0
 40
0
 40
0
 40
1
 40
1
 40
1
 40
1
 10
231.131616
 20
245.919063
 30
0.0
 10
231.711743
 20
246.254000
 30
0.0
 10
232.426489
 20
246.254000
 30
0.0
 10
233.006616
 20
245.919063
 30
0.0
  0
SPLINE
  5
16e
100
AcDbEntity
  8
Layer_1
 62
7
100
AcDbSpline
 70
8
 71
3
 72
8
 73
4
 74
0
 40
0
 40
0
 40
0
 40
0
 40
1
 40
1
 40
1
 40
1
 10
233.006616
 20
245.919063
 30
0.0
 10
233.586743
 20
245.584127
 30
0.0
 10
233.944116
 20
244.965139
 30
0.0
 10
233.944116
 20
244.295266
 30
0.0
  0
LWPOLYLINE
  5
16f
100
AcDbEntity
  8
Layer_1
 62
7
100
AcDbPolyline
 90
1
 70
1
 10
215.249996
 20
244.124960
 30
0.0
  0
SPLINE
  5
170
100
AcDbEntity
  8
Layer_1
 62
7
100
AcDbSpline
 70
8
 71
3
 72
8
 73
4
 74
0
 40
0
 40
0
 40
0
 40
0
 40
1
 40
1
 40
1
 40
1
 10
215.269527
 20
195.467219
 30
0.0
 10
215.269527
 20
194.797346
 30
0.0
 10
214.912154
 20
194.178357
 30
0.0
 10
214.332027
 20
193.843421
 30
0.0
  0
SPLINE
  5
171
100
AcDbEntity
  8
Layer_1
 62
7
100
AcDbSpline
 70
8
 71
3
 72
8
 73
4
 74
0
 40
0
 40
0
 40
0
 40
0
 40
1
 40
1
 40
1
 40
1
 10
214.332027
 20
193.843421
 30
0.0
 10
213.751900
 20
193.508485
 30
0.0
 10
213.037154
 20
193.508485
 30
0.0
 10
212.457027
 20
193.843421
 30
0.0
  0
SPLINE
  5
172
100
AcDbEntity
  8
Layer_1
 62
7
100
AcDbSpline
 70
8
 71
3
 72
8
 73
4
 74
0
 40
0
 40
0
 40
0
 40
0
 40
1
 40
1
 40
1
 40
1
 10
212.457027
 20
193.843421
 30
0.0
 10
211.876900
 20
194.178357
 30
0.0
 10
211.519527
 20
194.797346
 30
0.0
 10
211.519527
 20
195.467219
 30
0.0
  0
SPLINE
  5
173
100
AcDbEntity
  8
Layer_1
 62
7
100
AcDbSpline
 70
8
 71
3
 72
8
 73
4
 74
0
 40
0
 40
0
 40
0
 40
0
 40
1
 40
1
 40
1
 40
1
 10
211.519527
 20
195.467219
 30
0.0
 10
211.519527
 20
196.137092
 30
0.0
 10
211.876900
 20
196.756080
 30
0.0
 10
212.457027
 20
197.091016
 30
0.0
  0
SPLINE
  5
174
100
AcDbEntity
  8
Layer_1
 62
7
100
AcDbSpline
 70
8
 71
3
 72
8
 73
4
 74
0
 40
0
 40
0
 40
0
 40
0
 40
1
 40
1
 40
1
 40
1
 10
212.457027
 20
197.091016
 30
0.0
 10
213.037154
 20
197.425953
 30
0.0
 10
213.751900
 20
197.425953
 30
0.0
 10
214.332027
 20
197.091016
 30
0.0
  0
SPLINE
  5
175
100
AcDbEntity
  8
Layer_1
 62
7
100
AcDbSpline
 70
8
 71
3
 72
8
 73
4
 74
0
 40
0
 40
0
 40
0
 40
0
 40
1
 40
1
 40
1
 40
1
 10
214.332027
 20
197.091016
 30
0.0
 10
214.912154
 20
196.756080
 30
0.0
 10
215.269527
 20
196.137092
 30
0.0
 10
215.269527
 20
195.467219
 30
0.0
  0
LWPOLYLINE
  5
176
100
AcDbEntity
  8
Layer_1
 62
7
100
AcDbPolyline
 90
1
 70
1
 10
233.944116
 20
244.295266
 30
0.0
  0
SPLINE
  5
177
100
AcDbEntity
  8
Layer_1
 62
7
100
AcDbSpline
 70
8
 71
3
 72
8
 73
4
 74
0
 40
0
 40
0
 40
0
 40
0
 40
1
 40
1
 40
1
 40
1
 10
233.963618
 20
195.637496
 30
0.0
 10
233.963618
 20
194.967623
 30
0.0
 10
233.606245
 20
194.348635
 30
0.0
 10
233.026118
 20
194.013698
 30
0.0
  0
SPLINE
  5
178
100
AcDbEntity
  8
Layer_1
 62
7
100
AcDbSpline
 70
8
 71
3
 72
8
 73
4
 74
0
 40
0
 40
0
 40
0
 40
0
 40
1
 40
1
 40
1
 40
1
 10
233.026118
 20
194.013698
 30
0.0
 10
232.445991
 20
193.678762
 30
0.0
 10
231.731245
 20
193.678762
 30
0.0
 10
231.151118
 20
194.013698
 30
0.0
  0
SPLINE
  5
179
100
AcDbEntity
  8
Layer_1
 62
7
100
AcDbSpline
 70
8
 71
3
 72
8
 73
4
 74
0
 40
0
 40
0
 40
0
 40
0
 40
1
 40
1
 40
1
 40
1
 10
231.151118
 20
194.013698
 30
0.0
 10
230.570991
 20
194.348635
 30
0.0
 10
230.213618
 20
194.967623
 30
0.0
 10
230.213618
 20
195.637496
 30
0.0
  0
SPLINE
  5
17a
100
AcDbEntity
  8
Layer_1
 62
7
100
AcDbSpline
 70
8
 71
3
 72
8
 73
4
 74
0
 40
0
 40
0
 40
0
 40
0
 40
1
 40
1
 40
1
 40
1
 10
230.213618
 20
195.637496
 30
0.0
 10
230.213618
 20
196.307369
 30
0.0
 10
230.570991
 20
196.926357
 30
0.0
 10
231.151118
 20
197.261293
 30
0.0
  0
SPLINE
  5
17b
100
AcDbEntity
  8
Layer_1
 62
7
100
AcDbSpline
 70
8
 71
3
 72
8
 73
4
 74
0
 40
0
 40
0
 40
0
 40
0
 40
1
 40
1
 40
1
 40
1
 10
231.151118
 20
197.261293
 30
0.0
 10
231.731245
 20
197.596230
 30
0.0
 10
232.445991
 20
197.596230
 30
0.0
 10
233.026118
 20
197.261293
 30
0.0
  0
SPLINE
  5
17c
100
AcDbEntity
  8
Layer_1
 62
7
100
AcDbSpline
 70
8
 71
3
 72
8
 73
4
 74
0
 40
0
 40
0
 40
0
 40
0
 40
1
 40
1
 40
1
 40
1
 10
233.026118
 20
197.261293
 30
0.0
 10
233.606245
 20
196.926357
 30
0.0
 10
233.963618
 20
196.307369
 30
0.0
 10
233.963618
 20
195.637496
 30
0.0
  0
LWPOLYLINE
  5
17d
100
AcDbEntity
  8
Layer_1
 62
7
100
AcDbPolyline
 90
1
 70
1
 10
215.269527
 20
195.467219
 30
0.0
  0
LWPOLYLINE
  5
17e
100
AcDbEntity
  8
Layer_1
 62
7
100
AcDbPolyline
 90
1
 70
1
 10
233.963618
 20
195.637496
 30
0.0
  0
LWPOLYLINE
  5
17f
100
AcDbEntity
  8
Layer_1
 62
7
100
AcDbPolyline
 90
4
 70
1
 10
204.000001
 20
223.499993
 30
0.0
 10
241.499999
 20
223.499993
 30
0.0
 10
241.499999
 20
210.749962
 30
0.0
 10
204.000001
 20
210.749962
 30
0.0
  0
LWPOLYLINE
  5
180
100
AcDbEntity
  8
Layer_1
 62
7
100
AcDbPolyline
 90
4
 70
1
 10
230.250010
 20
223.499993
 30
0.0
 10
237.750010
 20
223.499993
 30
0.0
 10
237.750010
 20
212.250001
 30
0.0
 10
230.250010
 20
212.250001
 30
0.0
  0
LWPOLYLINE
  5
181
100
AcDbEntity
  8
Layer_1
 62
7
100
AcDbPolyline
 90
4
 70
1
 10
207.750010
 20
223.499993
 30
0.0
 10
215.250010
 20
223.499993
 30
0.0
 10
215.250010
 20
212.250001
 30
0.0
 10
207.750010
 20
212.250001
 30
0.0
  0
LWPOLYLINE
  5
182
100
AcDbEntity
  8
Layer_1
 62
7
100
AcDbPolyline
 90
4
 70
1
 10
204.000001
 20
238.499974
 30
0.0
 10
241.499999
 20
238.499974
 30
0.0
 10
241.499999
 20
234.749975
 30
0.0
 10
204.000001
 20
234.749975
 30
0.0
  0
LWPOLYLINE
  5
183
100
AcDbEntity
  8
Layer_1
 62
7
100
AcDbPolyline
 90
4
 70
1
 10
207.749982
 20
225.886510
 30
0.0
 10
237.749998
 20
225.886510
 30
0.0
 10
237.749998
 20
219.750046
 30
0.0
 10
207.749982
 20
219.750046
 30
0.0
  0
LWPOLYLINE
  5
184
100
AcDbEntity
  8
Layer_1
 62
7
100
AcDbPolyline
 90
4
 70
1
 10
203.249976
 20
123.749943
 30
0.0
 10
221.999969
 20
123.749943
 30
0.0
 10
221.999969
 20
63.749945
 30
0.0
 10
203.249976
 20
63.749945
 30
0.0
  0
LWPOLYLINE
  5
185
100
AcDbEntity
  8
Layer_1
 62
7
100
AcDbPolyline
 90
4
 70
1
 10
221.999995
 20
123.749943
 30
0.0
 10
240.749988
 20
123.749943
 30
0.0
 10
240.749988
 20
63.749945
 30
0.0
 10
221.999995
 20
63.749945
 30
0.0
  0
SPLINE
  5
186
100
AcDbEntity
  8
Layer_1
 62
7
100
AcDbSpline
 70
8
 71
3
 72
8
 73
4
 74
0
 40
0
 40
0
 40
0
 40
0
 40
1
 40
1
 40
1
 40
1
 10
214.499972
 20
118.124929
 30
0.0
 10
214.499972
 20
117.455056
 30
0.0
 10
214.142599
 20
116.836068
 30
0.0
 10
213.562472
 20
116.501132
 30
0.0
  0
SPLINE
  5
187
100
AcDbEntity
  8
Layer_1
 62
7
100
AcDbSpline
 70
8
 71
3
 72
8
 73
4
 74
0
 40
0
 40
0
 40
0
 40
0
 40
1
 40
1
 40
1
 40
1
 10
213.562472
 20
116.501132
 30
0.0
 10
212.982345
 20
116.166195
 30
0.0
 10
212.267599
 20
116.166195
 30
0.0
 10
211.687472
 20
116.501132
 30
0.0
  0
SPLINE
  5
188
100
AcDbEntity
  8
Layer_1
 62
7
100
AcDbSpline
 70
8
 71
3
 72
8
 73
4
 74
0
 40
0
 40
0
 40
0
 40
0
 40
1
 40
1
 40
1
 40
1
 10
211.687472
 20
116.501132
 30
0.0
 10
211.107345
 20
116.836068
 30
0.0
 10
210.749972
 20
117.455056
 30
0.0
 10
210.749972
 20
118.124929
 30
0.0
  0
SPLINE
  5
189
100
AcDbEntity
  8
Layer_1
 62
7
100
AcDbSpline
 70
8
 71
3
 72
8
 73
4
 74
0
 40
0
 40
0
 40
0
 40
0
 40
1
 40
1
 40
1
 40
1
 10
210.749972
 20
118.124929
 30
0.0
 10
210.749972
 20
118.794802
 30
0.0
 10
211.107345
 20
119.413790
 30
0.0
 10
211.687472
 20
119.748727
 30
0.0
  0
SPLINE
  5
18a
100
AcDbEntity
  8
Layer_1
 62
7
100
AcDbSpline
 70
8
 71
3
 72
8
 73
4
 74
0
 40
0
 40
0
 40
0
 40
0
 40
1
 40
1
 40
1
 40
1
 10
211.687472
 20
119.748727
 30
0.0
 10
212.267599
 20
120.083663
 30
0.0
 10
212.982345
 20
120.083663
 30
0.0
 10
213.562472
 20
119.748727
 30
0.0
  0
SPLINE
  5
18b
100
AcDbEntity
  8
Layer_1
 62
7
100
AcDbSpline
 70
8
 71
3
 72
8
 73
4
 74
0
 40
0
 40
0
 40
0
 40
0
 40
1
 40
1
 40
1
 40
1
 10
213.562472
 20
119.748727
 30
0.0
 10
214.142599
 20
119.413790
 30
0.0
 10
214.499972
 20
118.794802
 30
0.0
 10
214.499972
 20
118.124929
 30
0.0
  0
LWPOLYLINE
  5
18c
100
AcDbEntity
  8
Layer_1
 62
7
100
AcDbPolyline
 90
4
 70
1
 10
203.249976
 20
112.499943
 30
0.0
 10
240.749974
 20
112.499943
 30
0.0
 10
240.749974
 20
74.999959
 30
0.0
 10
203.249976
 20
74.999959
 30
0.0
  0
SPLINE
  5
18d
100
AcDbEntity
  8
Layer_1
 62
7
100
AcDbSpline
 70
8
 71
3
 72
8
 73
4
 74
0
 40
0
 40
0
 40
0
 40
0
 40
1
 40
1
 40
1
 40
1
 10
233.194091
 20
118.295235
 30
0.0
 10
233.194091
 20
117.625362
 30
0.0
 10
232.836718
 20
117.006374
 30
0.0
 10
232.256591
 20
116.671437
 30
0.0
  0
SPLINE
  5
18e
100
AcDbEntity
  8
Layer_1
 62
7
100
AcDbSpline
 70
8
 71
3
 72
8
 73
4
 74
0
 40
0
 40
0
 40
0
 40
0
 40
1
 40
1
 40
1
 40
1
 10
232.256591
 20
116.671437
 30
0.0
 10
231.676464
 20
116.336501
 30
0.0
 10
230.961718
 20
116.336501
 30
0.0
 10
230.381591
 20
116.671437
 30
0.0
  0
SPLINE
  5
18f
100
AcDbEntity
  8
Layer_1
 62
7
100
AcDbSpline
 70
8
 71
3
 72
8
 73
4
 74
0
 40
0
 40
0
 40
0
 40
0
 40
1
 40
1
 40
1
 40
1
 10
230.381591
 20
116.671437
 30
0.0
 10
229.801464
 20
117.006374
 30
0.0
 10
229.444091
 20
117.625362
 30
0.0
 10
229.444091
 20
118.295235
 30
0.0
  0
SPLINE
  5
190
100
AcDbEntity
  8
Layer_1
 62
7
100
AcDbSpline
 70
8
 71
3
 72
8
 73
4
 74
0
 40
0
 40
0
 40
0
 40
0
 40
1
 40
1
 40
1
 40
1
 10
229.444091
 20
118.295235
 30
0.0
 10
229.444091
 20
118.965108
 30
0.0
 10
229.801464
 20
119.584096
 30
0.0
 10
230.381591
 20
119.919032
 30
0.0
  0
SPLINE
  5
191
100
AcDbEntity
  8
Layer_1
 62
7
100
AcDbSpline
 70
8
 71
3
 72
8
 73
4
 74
0
 40
0
 40
0
 40
0
 40
0
 40
1
 40
1
 40
1
 40
1
 10
230.381591
 20
119.919032
 30
0.0
 10
230.961718
 20
120.253969
 30
0.0
 10
231.676464
 20
120.253969
 30
0.0
 10
232.256591
 20
119.919032
 30
0.0
  0
SPLINE
  5
192
100
AcDbEntity
  8
Layer_1
 62
7
100
AcDbSpline
 70
8
 71
3
 72
8
 73
4
 74
0
 40
0
 40
0
 40
0
 40
0
 40
1
 40
1
 40
1
 40
1
 10
232.256591
 20
119.919032
 30
0.0
 10
232.836718
 20
119.584096
 30
0.0
 10
233.194091
 20
118.965108
 30
0.0
 10
233.194091
 20
118.295235
 30
0.0
  0
LWPOLYLINE
  5
193
100
AcDbEntity
  8
Layer_1
 62
7
100
AcDbPolyline
 90
1
 70
1
 10
214.499972
 20
118.124929
 30
0.0
  0
SPLINE
  5
194
100
AcDbEntity
  8
Layer_1
 62
7
100
AcDbSpline
 70
8
 71
3
 72
8
 73
4
 74
0
 40
0
 40
0
 40
0
 40
0
 40
1
 40
1
 40
1
 40
1
 10
214.519502
 20
69.467187
 30
0.0
 10
214.519502
 20
68.797314
 30
0.0
 10
214.162129
 20
68.178326
 30
0.0
 10
213.582002
 20
67.843390
 30
0.0
  0
SPLINE
  5
195
100
AcDbEntity
  8
Layer_1
 62
7
100
AcDbSpline
 70
8
 71
3
 72
8
 73
4
 74
0
 40
0
 40
0
 40
0
 40
0
 40
1
 40
1
 40
1
 40
1
 10
213.582002
 20
67.843390
 30
0.0
 10
213.001875
 20
67.508453
 30
0.0
 10
212.287129
 20
67.508453
 30
0.0
 10
211.707002
 20
67.843390
 30
0.0
  0
SPLINE
  5
196
100
AcDbEntity
  8
Layer_1
 62
7
100
AcDbSpline
 70
8
 71
3
 72
8
 73
4
 74
0
 40
0
 40
0
 40
0
 40
0
 40
1
 40
1
 40
1
 40
1
 10
211.707002
 20
67.843390
 30
0.0
 10
211.126875
 20
68.178326
 30
0.0
 10
210.769502
 20
68.797314
 30
0.0
 10
210.769502
 20
69.467187
 30
0.0
  0
SPLINE
  5
197
100
AcDbEntity
  8
Layer_1
 62
7
100
AcDbSpline
 70
8
 71
3
 72
8
 73
4
 74
0
 40
0
 40
0
 40
0
 40
0
 40
1
 40
1
 40
1
 40
1
 10
210.769502
 20
69.467187
 30
0.0
 10
210.769502
 20
70.137060
 30
0.0
 10
211.126875
 20
70.756048
 30
0.0
 10
211.707002
 20
71.090985
 30
0.0
  0
SPLINE
  5
198
100
AcDbEntity
  8
Layer_1
 62
7
100
AcDbSpline
 70
8
 71
3
 72
8
 73
4
 74
0
 40
0
 40
0
 40
0
 40
0
 40
1
 40
1
 40
1
 40
1
 10
211.707002
 20
71.090985
 30
0.0
 10
212.287129
 20
71.425921
 30
0.0
 10
213.001875
 20
71.425921
 30
0.0
 10
213.582002
 20
71.090985
 30
0.0
  0
SPLINE
  5
199
100
AcDbEntity
  8
Layer_1
 62
7
100
AcDbSpline
 70
8
 71
3
 72
8
 73
4
 74
0
 40
0
 40
0
 40
0
 40
0
 40
1
 40
1
 40
1
 40
1
 10
213.582002
 20
71.090985
 30
0.0
 10
214.162129
 20
70.756048
 30
0.0
 10
214.519502
 20
70.137060
 30
0.0
 10
214.519502
 20
69.467187
 30
0.0
  0
LWPOLYLINE
  5
19a
100
AcDbEntity
  8
Layer_1
 62
7
100
AcDbPolyline
 90
1
 70
1
 10
233.194091
 20
118.295235
 30
0.0
  0
SPLINE
  5
19b
100
AcDbEntity
  8
Layer_1
 62
7
100
AcDbSpline
 70
8
 71
3
 72
8
 73
4
 74
0
 40
0
 40
0
 40
0
 40
0
 40
1
 40
1
 40
1
 40
1
 10
233.213594
 20
69.637465
 30
0.0
 10
233.213594
 20
68.967592
 30
0.0
 10
232.856221
 20
68.348603
 30
0.0
 10
232.276094
 20
68.013667
 30
0.0
  0
SPLINE
  5
19c
100
AcDbEntity
  8
Layer_1
 62
7
100
AcDbSpline
 70
8
 71
3
 72
8
 73
4
 74
0
 40
0
 40
0
 40
0
 40
0
 40
1
 40
1
 40
1
 40
1
 10
232.276094
 20
68.013667
 30
0.0
 10
231.695967
 20
67.678731
 30
0.0
 10
230.981221
 20
67.678731
 30
0.0
 10
230.401094
 20
68.013667
 30
0.0
  0
SPLINE
  5
19d
100
AcDbEntity
  8
Layer_1
 62
7
100
AcDbSpline
 70
8
 71
3
 72
8
 73
4
 74
0
 40
0
 40
0
 40
0
 40
0
 40
1
 40
1
 40
1
 40
1
 10
230.401094
 20
68.013667
 30
0.0
 10
229.820967
 20
68.348603
 30
0.0
 10
229.463594
 20
68.967592
 30
0.0
 10
229.463594
 20
69.637465
 30
0.0
  0
SPLINE
  5
19e
100
AcDbEntity
  8
Layer_1
 62
7
100
AcDbSpline
 70
8
 71
3
 72
8
 73
4
 74
0
 40
0
 40
0
 40
0
 40
0
 40
1
 40
1
 40
1
 40
1
 10
229.463594
 20
69.637465
 30
0.0
 10
229.463594
 20
70.307338
 30
0.0
 10
229.820967
 20
70.926326
 30
0.0
 10
230.401094
 20
71.261262
 30
0.0
  0
SPLINE
  5
19f
100
AcDbEntity
  8
Layer_1
 62
7
100
AcDbSpline
 70
8
 71
3
 72
8
 73
4
 74
0
 40
0
 40
0
 40
0
 40
0
 40
1
 40
1
 40
1
 40
1
 10
230.401094
 20
71.261262
 30
0.0
 10
230.981221
 20
71.596199
 30
0.0
 10
231.695967
 20
71.596199
 30
0.0
 10
232.276094
 20
71.261262
 30
0.0
  0
SPLINE
  5
1a0
100
AcDbEntity
  8
Layer_1
 62
7
100
AcDbSpline
 70
8
 71
3
 72
8
 73
4
 74
0
 40
0
 40
0
 40
0
 40
0
 40
1
 40
1
 40
1
 40
1
 10
232.276094
 20
71.261262
 30
0.0
 10
232.856221
 20
70.926326
 30
0.0
 10
233.213594
 20
70.307338
 30
0.0
 10
233.213594
 20
69.637465
 30
0.0
  0
LWPOLYLINE
  5
1a1
100
AcDbEntity
  8
Layer_1
 62
7
100
AcDbPolyline
 90
1
 70
1
 10
214.519502
 20
69.467187
 30
0.0
  0
LWPOLYLINE
  5
1a2
100
AcDbEntity
  8
Layer_1
 62
7
100
AcDbPolyline
 90
1
 70
1
 10
233.213594
 20
69.637465
 30
0.0
  0
LWPOLYLINE
  5
1a3
100
AcDbEntity
  8
Layer_1
 62
7
100
AcDbPolyline
 90
4
 70
1
 10
203.249976
 20
97.499962
 30
0.0
 10
240.749974
 20
97.499962
 30
0.0
 10
240.749974
 20
84.749931
 30
0.0
 10
203.249976
 20
84.749931
 30
0.0
  0
LWPOLYLINE
  5
1a4
100
AcDbEntity
  8
Layer_1
 62
7
100
AcDbPolyline
 90
4
 70
1
 10
229.499986
 20
97.499962
 30
0.0
 10
236.999986
 20
97.499962
 30
0.0
 10
236.999986
 20
86.249970
 30
0.0
 10
229.499986
 20
86.249970
 30
0.0
  0
LWPOLYLINE
  5
1a5
100
AcDbEntity
  8
Layer_1
 62
7
100
AcDbPolyline
 90
4
 70
1
 10
206.999986
 20
97.499962
 30
0.0
 10
214.499986
 20
97.499962
 30
0.0
 10
214.499986
 20
86.249970
 30
0.0
 10
206.999986
 20
86.249970
 30
0.0
  0
LWPOLYLINE
  5
1a6
100
AcDbEntity
  8
Layer_1
 62
7
100
AcDbPolyline
 90
4
 70
1
 10
203.249976
 20
112.499943
 30
0.0
 10
240.749974
 20
112.499943
 30
0.0
 10
240.749974
 20
108.749943
 30
0.0
 10
203.249976
 20
108.749943
 30
0.0
  0
LWPOLYLINE
  5
1a7
100
AcDbEntity
  8
Layer_1
 62
7
100
AcDbPolyline
 90
4
 70
1
 10
206.999957
 20
99.886479
 30
0.0
 10
236.999974
 20
99.886479
 30
0.0
 10
236.999974
 20
93.750015
 30
0.0
 10
206.999957
 20
93.750015
 30
0.0
  0
LWPOLYLINE
  5
1a8
100
AcDbEntity
  8
Layer_1
 62
7
100
AcDbPolyline
 90
3
 70
0
 10
128.999999
 20
264.749981
 30
0.0
 10
215.249998
 20
264.749981
 30
0.0
 10
215.249998
 20
249.750000
 30
0.0
  0
LWPOLYLINE
  5
1a9
100
AcDbEntity
  8
Layer_1
 62
7
100
AcDbPolyline
 90
3
 70
0
 10
128.999999
 20
275.999981
 30
0.0
 10
230.249999
 20
275.999981
 30
0.0
 10
230.249999
 20
249.750000
 30
0.0
  0
LWPOLYLINE
  5
1aa
100
AcDbEntity
  8
Layer_1
 62
7
100
AcDbPolyline
 90
3
 70
0
 10
214.499996
 20
63.749962
 30
0.0
 10
214.499996
 20
52.499962
 30
0.0
 10
120.749995
 20
52.499962
 30
0.0
  0
LWPOLYLINE
  5
1ab
100
AcDbEntity
  8
Layer_1
 62
7
100
AcDbPolyline
 90
3
 70
0
 10
116.999997
 20
44.999943
 30
0.0
 10
229.499994
 20
44.999943
 30
0.0
 10
229.499994
 20
63.749962
 30
0.0
  0
LWPOLYLINE
  5
1ac
100
AcDbEntity
  8
Layer_1
 62
7
100
AcDbPolyline
 90
4
 70
1
 10
260.250001
 20
159.750028
 30
0.0
 10
290.250000
 20
159.750028
 30
0.0
 10
290.250000
 20
152.250017
 30
0.0
 10
260.250001
 20
152.250017
 30
0.0
  0
LWPOLYLINE
  5
1ad
100
AcDbEntity
  8
Layer_1
 62
7
100
AcDbPolyline
 90
4
 70
1
 10
136.500004
 20
159.750014
 30
0.0
 10
166.500003
 20
159.750014
 30
0.0
 10
166.500003
 20
144.749985
 30
0.0
 10
136.500004
 20
144.749985
 30
0.0
  0
LWPOLYLINE
  5
1ae
100
AcDbEntity
  8
Layer_1
 62
7
100
AcDbPolyline
 90
5
 70
0
 10
233.999997
 20
189.749991
 30
0.0
 10
233.999997
 20
174.749981
 30
0.0
 10
286.500019
 20
174.749981
 30
0.0
 10
286.500019
 20
227.250000
 30
0.0
 10
305.250009
 20
227.250000
 30
0.0
  0
LWPOLYLINE
  5
1af
100
AcDbEntity
  8
Layer_1
 62
7
100
AcDbPolyline
 90
5
 70
0
 10
233.999997
 20
122.249991
 30
0.0
 10
233.999997
 20
167.249991
 30
0.0
 10
294.000009
 20
167.249991
 30
0.0
 10
294.000009
 20
219.749981
 30
0.0
 10
305.250009
 20
219.749981
 30
0.0
  0
LWPOLYLINE
  5
1b0
100
AcDbEntity
  8
Layer_1
 62
7
100
AcDbPolyline
 90
5
 70
0
 10
211.499997
 20
122.249991
 30
0.0
 10
211.499997
 20
133.499991
 30
0.0
 10
286.500019
 20
133.499991
 30
0.0
 10
286.500019
 20
95.999981
 30
0.0
 10
305.250009
 20
95.999981
 30
0.0
  0
LWPOLYLINE
  5
1b1
100
AcDbEntity
  8
Layer_1
 62
7
100
AcDbPolyline
 90
5
 70
0
 10
211.499997
 20
189.749991
 30
0.0
 10
211.499997
 20
140.999981
 30
0.0
 10
294.000009
 20
140.999981
 30
0.0
 10
294.000009
 20
103.500000
 30
0.0
 10
305.250009
 20
103.500000
 30
0.0
  0
LWPOLYLINE
  5
1b2
100
AcDbEntity
  8
Layer_1
 62
7
100
AcDbPolyline
 90
3
 70
0
 10
248.999998
 20
174.749981
 30
0.0
 10
248.999998
 20
155.999991
 30
0.0
 10
260.249998
 20
155.999991
 30
0.0
  0
LWPOLYLINE
  5
1b3
100
AcDbEntity
  8
Layer_1
 62
7
100
AcDbPolyline
 90
2
 70
0
 10
290.250000
 20
155.999991
 30
0.0
 10
305.250009
 20
155.999991
 30
0.0
  0
LWPOLYLINE
  5
1b4
100
AcDbEntity
  8
Layer_1
 62
7
100
AcDbPolyline
 90
4
 70
0
 10
312.750000
 20
174.749981
 30
0.0
 10
305.250009
 20
174.749981
 30
0.0
 10
305.250009
 20
140.999981
 30
0.0
 10
312.750000
 20
140.999981
 30
0.0
  0
LWPOLYLINE
  5
1b5
100
AcDbEntity
  8
Layer_1
 62
7
100
AcDbPolyline
 90
4
 70
1
 10
312.750000
 20
178.500019
 30
0.0
 10
339.000001
 20
178.500019
 30
0.0
 10
339.000001
 20
171.000019
 30
0.0
 10
312.750000
 20
171.000019
 30
0.0
  0
LWPOLYLINE
  5
1b6
100
AcDbEntity
  8
Layer_1
 62
7
100
AcDbPolyline
 90
4
 70
1
 10
312.750000
 20
144.750019
 30
0.0
 10
339.000001
 20
144.750019
 30
0.0
 10
339.000001
 20
137.250019
 30
0.0
 10
312.750000
 20
137.250019
 30
0.0
  0
LWPOLYLINE
  5
1b7
100
AcDbEntity
  8
Layer_1
 62
7
100
AcDbPolyline
 90
4
 70
0
 10
294.000009
 20
133.499991
 30
0.0
 10
346.500000
 20
133.499991
 30
0.0
 10
346.500000
 20
174.749981
 30
0.0
 10
339.937512
 20
174.749981
 30
0.0
  0
SPLINE
  5
1b8
100
AcDbEntity
  8
Layer_1
 62
7
100
AcDbSpline
 70
8
 71
3
 72
8
 73
4
 74
0
 40
0
 40
0
 40
0
 40
0
 40
1
 40
1
 40
1
 40
1
 10
250.006410
 20
174.635603
 30
0.0
 10
250.006410
 20
174.130780
 30
0.0
 10
249.597171
 20
173.721541
 30
0.0
 10
249.092348
 20
173.721541
 30
0.0
  0
SPLINE
  5
1b9
100
AcDbEntity
  8
Layer_1
 62
7
100
AcDbSpline
 70
8
 71
3
 72
8
 73
4
 74
0
 40
0
 40
0
 40
0
 40
0
 40
1
 40
1
 40
1
 40
1
 10
249.092348
 20
173.721541
 30
0.0
 10
248.587525
 20
173.721541
 30
0.0
 10
248.178286
 20
174.130780
 30
0.0
 10
248.178286
 20
174.635603
 30
0.0
  0
SPLINE
  5
1ba
100
AcDbEntity
  8
Layer_1
 62
7
100
AcDbSpline
 70
8
 71
3
 72
8
 73
4
 74
0
 40
0
 40
0
 40
0
 40
0
 40
1
 40
1
 40
1
 40
1
 10
248.178286
 20
174.635603
 30
0.0
 10
248.178286
 20
174.962166
 30
0.0
 10
248.352505
 20
175.263923
 30
0.0
 10
248.635317
 20
175.427204
 30
0.0
  0
SPLINE
  5
1bb
100
AcDbEntity
  8
Layer_1
 62
7
100
AcDbSpline
 70
8
 71
3
 72
8
 73
4
 74
0
 40
0
 40
0
 40
0
 40
0
 40
1
 40
1
 40
1
 40
1
 10
248.635317
 20
175.427204
 30
0.0
 10
248.918129
 20
175.590486
 30
0.0
 10
249.266567
 20
175.590486
 30
0.0
 10
249.549379
 20
175.427204
 30
0.0
  0
SPLINE
  5
1bc
100
AcDbEntity
  8
Layer_1
 62
7
100
AcDbSpline
 70
8
 71
3
 72
8
 73
4
 74
0
 40
0
 40
0
 40
0
 40
0
 40
1
 40
1
 40
1
 40
1
 10
249.549379
 20
175.427204
 30
0.0
 10
249.832191
 20
175.263923
 30
0.0
 10
250.006410
 20
174.962166
 30
0.0
 10
250.006410
 20
174.635603
 30
0.0
  0
LWPOLYLINE
  5
1bd
100
AcDbEntity
  8
Layer_1
 62
7
100
AcDbPolyline
 90
2
 70
0
 10
339.000009
 20
140.999981
 30
0.0
 10
346.500000
 20
140.999981
 30
0.0
  0
SPLINE
  5
1be
100
AcDbEntity
  8
Layer_1
 62
7
100
AcDbSpline
 70
8
 71
3
 72
8
 73
4
 74
0
 40
0
 40
0
 40
0
 40
0
 40
1
 40
1
 40
1
 40
1
 10
294.894481
 20
133.711455
 30
0.0
 10
294.894481
 20
133.355585
 30
0.0
 10
294.704627
 20
133.026748
 30
0.0
 10
294.396434
 20
132.848813
 30
0.0
  0
SPLINE
  5
1bf
100
AcDbEntity
  8
Layer_1
 62
7
100
AcDbSpline
 70
8
 71
3
 72
8
 73
4
 74
0
 40
0
 40
0
 40
0
 40
0
 40
1
 40
1
 40
1
 40
1
 10
294.396434
 20
132.848813
 30
0.0
 10
294.088242
 20
132.670878
 30
0.0
 10
293.708533
 20
132.670878
 30
0.0
 10
293.400341
 20
132.848813
 30
0.0
  0
SPLINE
  5
1c0
100
AcDbEntity
  8
Layer_1
 62
7
100
AcDbSpline
 70
8
 71
3
 72
8
 73
4
 74
0
 40
0
 40
0
 40
0
 40
0
 40
1
 40
1
 40
1
 40
1
 10
293.400341
 20
132.848813
 30
0.0
 10
293.092148
 20
133.026748
 30
0.0
 10
292.902294
 20
133.355585
 30
0.0
 10
292.902294
 20
133.711455
 30
0.0
  0
SPLINE
  5
1c1
100
AcDbEntity
  8
Layer_1
 62
7
100
AcDbSpline
 70
8
 71
3
 72
8
 73
4
 74
0
 40
0
 40
0
 40
0
 40
0
 40
1
 40
1
 40
1
 40
1
 10
292.902294
 20
133.711455
 30
0.0
 10
292.902294
 20
134.067325
 30
0.0
 10
293.092148
 20
134.396163
 30
0.0
 10
293.400341
 20
134.574098
 30
0.0
  0
SPLINE
  5
1c2
100
AcDbEntity
  8
Layer_1
 62
7
100
AcDbSpline
 70
8
 71
3
 72
8
 73
4
 74
0
 40
0
 40
0
 40
0
 40
0
 40
1
 40
1
 40
1
 40
1
 10
293.400341
 20
134.574098
 30
0.0
 10
293.708533
 20
134.752033
 30
0.0
 10
294.088242
 20
134.752033
 30
0.0
 10
294.396434
 20
134.574098
 30
0.0
  0
SPLINE
  5
1c3
100
AcDbEntity
  8
Layer_1
 62
7
100
AcDbSpline
 70
8
 71
3
 72
8
 73
4
 74
0
 40
0
 40
0
 40
0
 40
0
 40
1
 40
1
 40
1
 40
1
 10
294.396434
 20
134.574098
 30
0.0
 10
294.704627
 20
134.396163
 30
0.0
 10
294.894481
 20
134.067325
 30
0.0
 10
294.894481
 20
133.711455
 30
0.0
  0
LWPOLYLINE
  5
1c4
100
AcDbEntity
  8
Layer_1
 62
7
100
AcDbPolyline
 90
1
 70
1
 10
250.006410
 20
174.635603
 30
0.0
  0
SPLINE
  5
1c5
100
AcDbEntity
  8
Layer_1
 62
7
100
AcDbSpline
 70
8
 71
3
 72
8
 73
4
 74
0
 40
0
 40
0
 40
0
 40
0
 40
1
 40
1
 40
1
 40
1
 10
306.204037
 20
155.961383
 30
0.0
 10
306.204037
 20
155.605513
 30
0.0
 10
306.014183
 20
155.276675
 30
0.0
 10
305.705990
 20
155.098740
 30
0.0
  0
SPLINE
  5
1c6
100
AcDbEntity
  8
Layer_1
 62
7
100
AcDbSpline
 70
8
 71
3
 72
8
 73
4
 74
0
 40
0
 40
0
 40
0
 40
0
 40
1
 40
1
 40
1
 40
1
 10
305.705990
 20
155.098740
 30
0.0
 10
305.397798
 20
154.920805
 30
0.0
 10
305.018089
 20
154.920805
 30
0.0
 10
304.709896
 20
155.098740
 30
0.0
  0
SPLINE
  5
1c7
100
AcDbEntity
  8
Layer_1
 62
7
100
AcDbSpline
 70
8
 71
3
 72
8
 73
4
 74
0
 40
0
 40
0
 40
0
 40
0
 40
1
 40
1
 40
1
 40
1
 10
304.709896
 20
155.098740
 30
0.0
 10
304.401704
 20
155.276675
 30
0.0
 10
304.211850
 20
155.605513
 30
0.0
 10
304.211850
 20
155.961383
 30
0.0
  0
SPLINE
  5
1c8
100
AcDbEntity
  8
Layer_1
 62
7
100
AcDbSpline
 70
8
 71
3
 72
8
 73
4
 74
0
 40
0
 40
0
 40
0
 40
0
 40
1
 40
1
 40
1
 40
1
 10
304.211850
 20
155.961383
 30
0.0
 10
304.211850
 20
156.317253
 30
0.0
 10
304.401704
 20
156.646090
 30
0.0
 10
304.709896
 20
156.824025
 30
0.0
  0
SPLINE
  5
1c9
100
AcDbEntity
  8
Layer_1
 62
7
100
AcDbSpline
 70
8
 71
3
 72
8
 73
4
 74
0
 40
0
 40
0
 40
0
 40
0
 40
1
 40
1
 40
1
 40
1
 10
304.709896
 20
156.824025
 30
0.0
 10
305.018089
 20
157.001960
 30
0.0
 10
305.397798
 20
157.001960
 30
0.0
 10
305.705990
 20
156.824025
 30
0.0
  0
SPLINE
  5
1ca
100
AcDbEntity
  8
Layer_1
 62
7
100
AcDbSpline
 70
8
 71
3
 72
8
 73
4
 74
0
 40
0
 40
0
 40
0
 40
0
 40
1
 40
1
 40
1
 40
1
 10
305.705990
 20
156.824025
 30
0.0
 10
306.014183
 20
156.646090
 30
0.0
 10
306.204037
 20
156.317253
 30
0.0
 10
306.204037
 20
155.961383
 30
0.0
  0
LWPOLYLINE
  5
1cb
100
AcDbEntity
  8
Layer_1
 62
7
100
AcDbPolyline
 90
1
 70
1
 10
294.894481
 20
133.711455
 30
0.0
  0
SPLINE
  5
1cc
100
AcDbEntity
  8
Layer_1
 62
7
100
AcDbSpline
 70
8
 71
3
 72
8
 73
4
 74
0
 40
0
 40
0
 40
0
 40
0
 40
1
 40
1
 40
1
 40
1
 10
347.364963
 20
140.901591
 30
0.0
 10
347.364963
 20
140.545721
 30
0.0
 10
347.175109
 20
140.216883
 30
0.0
 10
346.866916
 20
140.038948
 30
0.0
  0
SPLINE
  5
1cd
100
AcDbEntity
  8
Layer_1
 62
7
100
AcDbSpline
 70
8
 71
3
 72
8
 73
4
 74
0
 40
0
 40
0
 40
0
 40
0
 40
1
 40
1
 40
1
 40
1
 10
346.866916
 20
140.038948
 30
0.0
 10
346.558724
 20
139.861013
 30
0.0
 10
346.179015
 20
139.861013
 30
0.0
 10
345.870822
 20
140.038948
 30
0.0
  0
SPLINE
  5
1ce
100
AcDbEntity
  8
Layer_1
 62
7
100
AcDbSpline
 70
8
 71
3
 72
8
 73
4
 74
0
 40
0
 40
0
 40
0
 40
0
 40
1
 40
1
 40
1
 40
1
 10
345.870822
 20
140.038948
 30
0.0
 10
345.562630
 20
140.216883
 30
0.0
 10
345.372776
 20
140.545721
 30
0.0
 10
345.372776
 20
140.901591
 30
0.0
  0
SPLINE
  5
1cf
100
AcDbEntity
  8
Layer_1
 62
7
100
AcDbSpline
 70
8
 71
3
 72
8
 73
4
 74
0
 40
0
 40
0
 40
0
 40
0
 40
1
 40
1
 40
1
 40
1
 10
345.372776
 20
140.901591
 30
0.0
 10
345.372776
 20
141.257461
 30
0.0
 10
345.562630
 20
141.586298
 30
0.0
 10
345.870822
 20
141.764233
 30
0.0
  0
SPLINE
  5
1d0
100
AcDbEntity
  8
Layer_1
 62
7
100
AcDbSpline
 70
8
 71
3
 72
8
 73
4
 74
0
 40
0
 40
0
 40
0
 40
0
 40
1
 40
1
 40
1
 40
1
 10
345.870822
 20
141.764233
 30
0.0
 10
346.179015
 20
141.942168
 30
0.0
 10
346.558724
 20
141.942168
 30
0.0
 10
346.866916
 20
141.764233
 30
0.0
  0
SPLINE
  5
1d1
100
AcDbEntity
  8
Layer_1
 62
7
100
AcDbSpline
 70
8
 71
3
 72
8
 73
4
 74
0
 40
0
 40
0
 40
0
 40
0
 40
1
 40
1
 40
1
 40
1
 10
346.866916
 20
141.764233
 30
0.0
 10
347.175109
 20
141.586298
 30
0.0
 10
347.364963
 20
141.257461
 30
0.0
 10
347.364963
 20
140.901591
 30
0.0
  0
LWPOLYLINE
  5
1d2
100
AcDbEntity
  8
Layer_1
 62
7
100
AcDbPolyline
 90
1
 70
1
 10
306.204037
 20
155.961383
 30
0.0
  0
LWPOLYLINE
  5
1d3
100
AcDbEntity
  8
Layer_1
 62
7
100
AcDbPolyline
 90
1
 70
1
 10
347.364963
 20
140.901591
 30
0.0
  0
LWPOLYLINE
  5
1d4
100
AcDbEntity
  8
Layer_1
 62
1
100
AcDbPolyline
 90
4
 70
0
 10
110.250000
 20
380.999991
 30
0.0
 10
110.250000
 20
343.499981
 30
0.0
 10
211.499997
 20
343.499981
 30
0.0
 10
211.499997
 20
362.250000
 30
0.0
  0
LWPOLYLINE
  5
1d5
100
AcDbEntity
  8
Layer_1
 62
7
100
AcDbPolyline
 90
4
 70
0
 10
91.500001
 20
380.999991
 30
0.0
 10
91.500001
 20
335.999991
 30
0.0
 10
218.999999
 20
335.999991
 30
0.0
 10
218.999999
 20
362.250000
 30
0.0
  0
LWPOLYLINE
  5
1d6
100
AcDbEntity
  8
Layer_1
 62
7
100
AcDbPolyline
 90
5
 70
0
 10
241.499999
 20
362.250000
 30
0.0
 10
241.499999
 20
335.999991
 30
0.0
 10
320.250019
 20
335.999991
 30
0.0
 10
320.250019
 20
444.749981
 30
0.0
 10
398.999991
 20
444.749981
 30
0.0
  0
LWPOLYLINE
  5
1d7
100
AcDbEntity
  8
Layer_1
 62
1
100
AcDbPolyline
 90
5
 70
0
 10
398.999991
 20
463.500000
 30
0.0
 10
309.000019
 20
463.500000
 30
0.0
 10
309.000019
 20
343.499981
 30
0.0
 10
248.999998
 20
343.499981
 30
0.0
 10
248.999998
 20
362.250000
 30
0.0
  0
LWPOLYLINE
  5
1d8
100
AcDbEntity
  8
Layer_1
 62
1
100
AcDbPolyline
 90
2
 70
0
 10
271.499998
 20
320.999981
 30
0.0
 10
271.499998
 20
343.499981
 30
0.0
  0
SPLINE
  5
1d9
100
AcDbEntity
  8
Layer_1
 62
1
100
AcDbSpline
 70
8
 71
3
 72
8
 73
4
 74
0
 40
0
 40
0
 40
0
 40
0
 40
1
 40
1
 40
1
 40
1
 10
272.442613
 20
343.598372
 30
0.0
 10
272.442613
 20
343.242502
 30
0.0
 10
272.252759
 20
342.913664
 30
0.0
 10
271.944567
 20
342.735729
 30
0.0
  0
SPLINE
  5
1da
100
AcDbEntity
  8
Layer_1
 62
1
100
AcDbSpline
 70
8
 71
3
 72
8
 73
4
 74
0
 40
0
 40
0
 40
0
 40
0
 40
1
 40
1
 40
1
 40
1
 10
271.944567
 20
342.735729
 30
0.0
 10
271.636374
 20
342.557794
 30
0.0
 10
271.256665
 20
342.557794
 30
0.0
 10
270.948473
 20
342.735729
 30
0.0
  0
SPLINE
  5
1db
100
AcDbEntity
  8
Layer_1
 62
1
100
AcDbSpline
 70
8
 71
3
 72
8
 73
4
 74
0
 40
0
 40
0
 40
0
 40
0
 40
1
 40
1
 40
1
 40
1
 10
270.948473
 20
342.735729
 30
0.0
 10
270.640280
 20
342.913664
 30
0.0
 10
270.450426
 20
343.242502
 30
0.0
 10
270.450426
 20
343.598372
 30
0.0
  0
SPLINE
  5
1dc
100
AcDbEntity
  8
Layer_1
 62
1
100
AcDbSpline
 70
8
 71
3
 72
8
 73
4
 74
0
 40
0
 40
0
 40
0
 40
0
 40
1
 40
1
 40
1
 40
1
 10
270.450426
 20
343.598372
 30
0.0
 10
270.450426
 20
343.954242
 30
0.0
 10
270.640280
 20
344.283079
 30
0.0
 10
270.948473
 20
344.461014
 30
0.0
  0
SPLINE
  5
1dd
100
AcDbEntity
  8
Layer_1
 62
1
100
AcDbSpline
 70
8
 71
3
 72
8
 73
4
 74
0
 40
0
 40
0
 40
0
 40
0
 40
1
 40
1
 40
1
 40
1
 10
270.948473
 20
344.461014
 30
0.0
 10
271.256665
 20
344.638949
 30
0.0
 10
271.636374
 20
344.638949
 30
0.0
 10
271.944567
 20
344.461014
 30
0.0
  0
SPLINE
  5
1de
100
AcDbEntity
  8
Layer_1
 62
1
100
AcDbSpline
 70
8
 71
3
 72
8
 73
4
 74
0
 40
0
 40
0
 40
0
 40
0
 40
1
 40
1
 40
1
 40
1
 10
271.944567
 20
344.461014
 30
0.0
 10
272.252759
 20
344.283079
 30
0.0
 10
272.442613
 20
343.954242
 30
0.0
 10
272.442613
 20
343.598372
 30
0.0
  0
LWPOLYLINE
  5
1df
100
AcDbEntity
  8
Layer_1
 62
7
100
AcDbPolyline
 90
2
 70
0
 10
312.750000
 20
320.999981
 30
0.0
 10
312.750000
 20
335.999991
 30
0.0
  0
SPLINE
  5
1e0
100
AcDbEntity
  8
Layer_1
 62
7
100
AcDbSpline
 70
8
 71
3
 72
8
 73
4
 74
0
 40
0
 40
0
 40
0
 40
0
 40
1
 40
1
 40
1
 40
1
 10
313.645832
 20
335.994406
 30
0.0
 10
313.645832
 20
335.638536
 30
0.0
 10
313.455978
 20
335.309699
 30
0.0
 10
313.147785
 20
335.131764
 30
0.0
  0
SPLINE
  5
1e1
100
AcDbEntity
  8
Layer_1
 62
7
100
AcDbSpline
 70
8
 71
3
 72
8
 73
4
 74
0
 40
0
 40
0
 40
0
 40
0
 40
1
 40
1
 40
1
 40
1
 10
313.147785
 20
335.131764
 30
0.0
 10
312.839593
 20
334.953829
 30
0.0
 10
312.459884
 20
334.953829
 30
0.0
 10
312.151692
 20
335.131764
 30
0.0
  0
SPLINE
  5
1e2
100
AcDbEntity
  8
Layer_1
 62
7
100
AcDbSpline
 70
8
 71
3
 72
8
 73
4
 74
0
 40
0
 40
0
 40
0
 40
0
 40
1
 40
1
 40
1
 40
1
 10
312.151692
 20
335.131764
 30
0.0
 10
311.843499
 20
335.309699
 30
0.0
 10
311.653645
 20
335.638536
 30
0.0
 10
311.653645
 20
335.994406
 30
0.0
  0
SPLINE
  5
1e3
100
AcDbEntity
  8
Layer_1
 62
7
100
AcDbSpline
 70
8
 71
3
 72
8
 73
4
 74
0
 40
0
 40
0
 40
0
 40
0
 40
1
 40
1
 40
1
 40
1
 10
311.653645
 20
335.994406
 30
0.0
 10
311.653645
 20
336.350276
 30
0.0
 10
311.843499
 20
336.679114
 30
0.0
 10
312.151692
 20
336.857049
 30
0.0
  0
SPLINE
  5
1e4
100
AcDbEntity
  8
Layer_1
 62
7
100
AcDbSpline
 70
8
 71
3
 72
8
 73
4
 74
0
 40
0
 40
0
 40
0
 40
0
 40
1
 40
1
 40
1
 40
1
 10
312.151692
 20
336.857049
 30
0.0
 10
312.459884
 20
337.034984
 30
0.0
 10
312.839593
 20
337.034984
 30
0.0
 10
313.147785
 20
336.857049
 30
0.0
  0
SPLINE
  5
1e5
100
AcDbEntity
  8
Layer_1
 62
7
100
AcDbSpline
 70
8
 71
3
 72
8
 73
4
 74
0
 40
0
 40
0
 40
0
 40
0
 40
1
 40
1
 40
1
 40
1
 10
313.147785
 20
336.857049
 30
0.0
 10
313.455978
 20
336.679114
 30
0.0
 10
313.645832
 20
336.350276
 30
0.0
 10
313.645832
 20
335.994406
 30
0.0
  0
LWPOLYLINE
  5
1e6
100
AcDbEntity
  8
Layer_1
 62
1
100
AcDbPolyline
 90
1
 70
1
 10
272.442613
 20
343.598372
 30
0.0
  0
LWPOLYLINE
  5
1e7
100
AcDbEntity
  8
Layer_1
 62
7
100
AcDbPolyline
 90
1
 70
1
 10
313.645832
 20
335.994406
 30
0.0
  0
LWPOLYLINE
  5
1e8
100
AcDbEntity
  8
Layer_1
 62
7
100
AcDbPolyline
 90
4
 70
1
 10
368.999986
 20
384.749977
 30
0.0
 10
387.749978
 20
384.749977
 30
0.0
 10
387.749978
 20
324.749979
 30
0.0
 10
368.999986
 20
324.749979
 30
0.0
  0
LWPOLYLINE
  5
1e9
100
AcDbEntity
  8
Layer_1
 62
7
100
AcDbPolyline
 90
4
 70
1
 10
387.750005
 20
384.749977
 30
0.0
 10
406.499997
 20
384.749977
 30
0.0
 10
406.499997
 20
324.749979
 30
0.0
 10
387.750005
 20
324.749979
 30
0.0
  0
SPLINE
  5
1ea
100
AcDbEntity
  8
Layer_1
 62
7
100
AcDbSpline
 70
8
 71
3
 72
8
 73
4
 74
0
 40
0
 40
0
 40
0
 40
0
 40
1
 40
1
 40
1
 40
1
 10
380.249981
 20
379.124963
 30
0.0
 10
380.249981
 20
378.455090
 30
0.0
 10
379.892608
 20
377.836102
 30
0.0
 10
379.312481
 20
377.501166
 30
0.0
  0
SPLINE
  5
1eb
100
AcDbEntity
  8
Layer_1
 62
7
100
AcDbSpline
 70
8
 71
3
 72
8
 73
4
 74
0
 40
0
 40
0
 40
0
 40
0
 40
1
 40
1
 40
1
 40
1
 10
379.312481
 20
377.501166
 30
0.0
 10
378.732354
 20
377.166229
 30
0.0
 10
378.017608
 20
377.166229
 30
0.0
 10
377.437481
 20
377.501166
 30
0.0
  0
SPLINE
  5
1ec
100
AcDbEntity
  8
Layer_1
 62
7
100
AcDbSpline
 70
8
 71
3
 72
8
 73
4
 74
0
 40
0
 40
0
 40
0
 40
0
 40
1
 40
1
 40
1
 40
1
 10
377.437481
 20
377.501166
 30
0.0
 10
376.857354
 20
377.836102
 30
0.0
 10
376.499981
 20
378.455090
 30
0.0
 10
376.499981
 20
379.124963
 30
0.0
  0
SPLINE
  5
1ed
100
AcDbEntity
  8
Layer_1
 62
7
100
AcDbSpline
 70
8
 71
3
 72
8
 73
4
 74
0
 40
0
 40
0
 40
0
 40
0
 40
1
 40
1
 40
1
 40
1
 10
376.499981
 20
379.124963
 30
0.0
 10
376.499981
 20
379.794836
 30
0.0
 10
376.857354
 20
380.413824
 30
0.0
 10
377.437481
 20
380.748761
 30
0.0
  0
SPLINE
  5
1ee
100
AcDbEntity
  8
Layer_1
 62
7
100
AcDbSpline
 70
8
 71
3
 72
8
 73
4
 74
0
 40
0
 40
0
 40
0
 40
0
 40
1
 40
1
 40
1
 40
1
 10
377.437481
 20
380.748761
 30
0.0
 10
378.017608
 20
381.083697
 30
0.0
 10
378.732354
 20
381.083697
 30
0.0
 10
379.312481
 20
380.748761
 30
0.0
  0
SPLINE
  5
1ef
100
AcDbEntity
  8
Layer_1
 62
7
100
AcDbSpline
 70
8
 71
3
 72
8
 73
4
 74
0
 40
0
 40
0
 40
0
 40
0
 40
1
 40
1
 40
1
 40
1
 10
379.312481
 20
380.748761
 30
0.0
 10
379.892608
 20
380.413824
 30
0.0
 10
380.249981
 20
379.794836
 30
0.0
 10
380.249981
 20
379.124963
 30
0.0
  0
LWPOLYLINE
  5
1f0
100
AcDbEntity
  8
Layer_1
 62
7
100
AcDbPolyline
 90
4
 70
1
 10
368.999986
 20
373.499977
 30
0.0
 10
406.499984
 20
373.499977
 30
0.0
 10
406.499984
 20
335.999993
 30
0.0
 10
368.999986
 20
335.999993
 30
0.0
  0
SPLINE
  5
1f1
100
AcDbEntity
  8
Layer_1
 62
7
100
AcDbSpline
 70
8
 71
3
 72
8
 73
4
 74
0
 40
0
 40
0
 40
0
 40
0
 40
1
 40
1
 40
1
 40
1
 10
398.944101
 20
379.295269
 30
0.0
 10
398.944101
 20
378.625396
 30
0.0
 10
398.586728
 20
378.006408
 30
0.0
 10
398.006601
 20
377.671471
 30
0.0
  0
SPLINE
  5
1f2
100
AcDbEntity
  8
Layer_1
 62
7
100
AcDbSpline
 70
8
 71
3
 72
8
 73
4
 74
0
 40
0
 40
0
 40
0
 40
0
 40
1
 40
1
 40
1
 40
1
 10
398.006601
 20
377.671471
 30
0.0
 10
397.426474
 20
377.336535
 30
0.0
 10
396.711728
 20
377.336535
 30
0.0
 10
396.131601
 20
377.671471
 30
0.0
  0
SPLINE
  5
1f3
100
AcDbEntity
  8
Layer_1
 62
7
100
AcDbSpline
 70
8
 71
3
 72
8
 73
4
 74
0
 40
0
 40
0
 40
0
 40
0
 40
1
 40
1
 40
1
 40
1
 10
396.131601
 20
377.671471
 30
0.0
 10
395.551474
 20
378.006408
 30
0.0
 10
395.194101
 20
378.625396
 30
0.0
 10
395.194101
 20
379.295269
 30
0.0
  0
SPLINE
  5
1f4
100
AcDbEntity
  8
Layer_1
 62
7
100
AcDbSpline
 70
8
 71
3
 72
8
 73
4
 74
0
 40
0
 40
0
 40
0
 40
0
 40
1
 40
1
 40
1
 40
1
 10
395.194101
 20
379.295269
 30
0.0
 10
395.194101
 20
379.965142
 30
0.0
 10
395.551474
 20
380.584130
 30
0.0
 10
396.131601
 20
380.919066
 30
0.0
  0
SPLINE
  5
1f5
100
AcDbEntity
  8
Layer_1
 62
7
100
AcDbSpline
 70
8
 71
3
 72
8
 73
4
 74
0
 40
0
 40
0
 40
0
 40
0
 40
1
 40
1
 40
1
 40
1
 10
396.131601
 20
380.919066
 30
0.0
 10
396.711728
 20
381.254003
 30
0.0
 10
397.426474
 20
381.254003
 30
0.0
 10
398.006601
 20
380.919066
 30
0.0
  0
SPLINE
  5
1f6
100
AcDbEntity
  8
Layer_1
 62
7
100
AcDbSpline
 70
8
 71
3
 72
8
 73
4
 74
0
 40
0
 40
0
 40
0
 40
0
 40
1
 40
1
 40
1
 40
1
 10
398.006601
 20
380.919066
 30
0.0
 10
398.586728
 20
380.584130
 30
0.0
 10
398.944101
 20
379.965142
 30
0.0
 10
398.944101
 20
379.295269
 30
0.0
  0
LWPOLYLINE
  5
1f7
100
AcDbEntity
  8
Layer_1
 62
7
100
AcDbPolyline
 90
1
 70
1
 10
380.249981
 20
379.124963
 30
0.0
  0
SPLINE
  5
1f8
100
AcDbEntity
  8
Layer_1
 62
7
100
AcDbSpline
 70
8
 71
3
 72
8
 73
4
 74
0
 40
0
 40
0
 40
0
 40
0
 40
1
 40
1
 40
1
 40
1
 10
380.269512
 20
330.467221
 30
0.0
 10
380.269512
 20
329.797348
 30
0.0
 10
379.912139
 20
329.178360
 30
0.0
 10
379.332012
 20
328.843424
 30
0.0
  0
SPLINE
  5
1f9
100
AcDbEntity
  8
Layer_1
 62
7
100
AcDbSpline
 70
8
 71
3
 72
8
 73
4
 74
0
 40
0
 40
0
 40
0
 40
0
 40
1
 40
1
 40
1
 40
1
 10
379.332012
 20
328.843424
 30
0.0
 10
378.751885
 20
328.508487
 30
0.0
 10
378.037139
 20
328.508487
 30
0.0
 10
377.457012
 20
328.843424
 30
0.0
  0
SPLINE
  5
1fa
100
AcDbEntity
  8
Layer_1
 62
7
100
AcDbSpline
 70
8
 71
3
 72
8
 73
4
 74
0
 40
0
 40
0
 40
0
 40
0
 40
1
 40
1
 40
1
 40
1
 10
377.457012
 20
328.843424
 30
0.0
 10
376.876885
 20
329.178360
 30
0.0
 10
376.519512
 20
329.797348
 30
0.0
 10
376.519512
 20
330.467221
 30
0.0
  0
SPLINE
  5
1fb
100
AcDbEntity
  8
Layer_1
 62
7
100
AcDbSpline
 70
8
 71
3
 72
8
 73
4
 74
0
 40
0
 40
0
 40
0
 40
0
 40
1
 40
1
 40
1
 40
1
 10
376.519512
 20
330.467221
 30
0.0
 10
376.519512
 20
331.137094
 30
0.0
 10
376.876885
 20
331.756083
 30
0.0
 10
377.457012
 20
332.091019
 30
0.0
  0
SPLINE
  5
1fc
100
AcDbEntity
  8
Layer_1
 62
7
100
AcDbSpline
 70
8
 71
3
 72
8
 73
4
 74
0
 40
0
 40
0
 40
0
 40
0
 40
1
 40
1
 40
1
 40
1
 10
377.457012
 20
332.091019
 30
0.0
 10
378.037139
 20
332.425955
 30
0.0
 10
378.751885
 20
332.425955
 30
0.0
 10
379.332012
 20
332.091019
 30
0.0
  0
SPLINE
  5
1fd
100
AcDbEntity
  8
Layer_1
 62
7
100
AcDbSpline
 70
8
 71
3
 72
8
 73
4
 74
0
 40
0
 40
0
 40
0
 40
0
 40
1
 40
1
 40
1
 40
1
 10
379.332012
 20
332.091019
 30
0.0
 10
379.912139
 20
331.756083
 30
0.0
 10
380.269512
 20
331.137094
 30
0.0
 10
380.269512
 20
330.467221
 30
0.0
  0
LWPOLYLINE
  5
1fe
100
AcDbEntity
  8
Layer_1
 62
7
100
AcDbPolyline
 90
1
 70
1
 10
398.944101
 20
379.295269
 30
0.0
  0
SPLINE
  5
1ff
100
AcDbEntity
  8
Layer_1
 62
7
100
AcDbSpline
 70
8
 71
3
 72
8
 73
4
 74
0
 40
0
 40
0
 40
0
 40
0
 40
1
 40
1
 40
1
 40
1
 10
398.963603
 20
330.637499
 30
0.0
 10
398.963603
 20
329.967626
 30
0.0
 10
398.606230
 20
329.348637
 30
0.0
 10
398.026103
 20
329.013701
 30
0.0
  0
SPLINE
  5
200
100
AcDbEntity
  8
Layer_1
 62
7
100
AcDbSpline
 70
8
 71
3
 72
8
 73
4
 74
0
 40
0
 40
0
 40
0
 40
0
 40
1
 40
1
 40
1
 40
1
 10
398.026103
 20
329.013701
 30
0.0
 10
397.445976
 20
328.678765
 30
0.0
 10
396.731230
 20
328.678765
 30
0.0
 10
396.151103
 20
329.013701
 30
0.0
  0
SPLINE
  5
201
100
AcDbEntity
  8
Layer_1
 62
7
100
AcDbSpline
 70
8
 71
3
 72
8
 73
4
 74
0
 40
0
 40
0
 40
0
 40
0
 40
1
 40
1
 40
1
 40
1
 10
396.151103
 20
329.013701
 30
0.0
 10
395.570976
 20
329.348637
 30
0.0
 10
395.213603
 20
329.967626
 30
0.0
 10
395.213603
 20
330.637499
 30
0.0
  0
SPLINE
  5
202
100
AcDbEntity
  8
Layer_1
 62
7
100
AcDbSpline
 70
8
 71
3
 72
8
 73
4
 74
0
 40
0
 40
0
 40
0
 40
0
 40
1
 40
1
 40
1
 40
1
 10
395.213603
 20
330.637499
 30
0.0
 10
395.213603
 20
331.307372
 30
0.0
 10
395.570976
 20
331.926360
 30
0.0
 10
396.151103
 20
332.261296
 30
0.0
  0
SPLINE
  5
203
100
AcDbEntity
  8
Layer_1
 62
7
100
AcDbSpline
 70
8
 71
3
 72
8
 73
4
 74
0
 40
0
 40
0
 40
0
 40
0
 40
1
 40
1
 40
1
 40
1
 10
396.151103
 20
332.261296
 30
0.0
 10
396.731230
 20
332.596233
 30
0.0
 10
397.445976
 20
332.596233
 30
0.0
 10
398.026103
 20
332.261296
 30
0.0
  0
SPLINE
  5
204
100
AcDbEntity
  8
Layer_1
 62
7
100
AcDbSpline
 70
8
 71
3
 72
8
 73
4
 74
0
 40
0
 40
0
 40
0
 40
0
 40
1
 40
1
 40
1
 40
1
 10
398.026103
 20
332.261296
 30
0.0
 10
398.606230
 20
331.926360
 30
0.0
 10
398.963603
 20
331.307372
 30
0.0
 10
398.963603
 20
330.637499
 30
0.0
  0
LWPOLYLINE
  5
205
100
AcDbEntity
  8
Layer_1
 62
7
100
AcDbPolyline
 90
1
 70
1
 10
380.269512
 20
330.467221
 30
0.0
  0
LWPOLYLINE
  5
206
100
AcDbEntity
  8
Layer_1
 62
7
100
AcDbPolyline
 90
1
 70
1
 10
398.963603
 20
330.637499
 30
0.0
  0
LWPOLYLINE
  5
207
100
AcDbEntity
  8
Layer_1
 62
7
100
AcDbPolyline
 90
4
 70
1
 10
368.999986
 20
358.499996
 30
0.0
 10
406.499984
 20
358.499996
 30
0.0
 10
406.499984
 20
345.749965
 30
0.0
 10
368.999986
 20
345.749965
 30
0.0
  0
LWPOLYLINE
  5
208
100
AcDbEntity
  8
Layer_1
 62
7
100
AcDbPolyline
 90
4
 70
1
 10
395.249995
 20
358.499996
 30
0.0
 10
402.749995
 20
358.499996
 30
0.0
 10
402.749995
 20
347.250004
 30
0.0
 10
395.249995
 20
347.250004
 30
0.0
  0
LWPOLYLINE
  5
209
100
AcDbEntity
  8
Layer_1
 62
7
100
AcDbPolyline
 90
4
 70
1
 10
372.749995
 20
358.499996
 30
0.0
 10
380.249995
 20
358.499996
 30
0.0
 10
380.249995
 20
347.250004
 30
0.0
 10
372.749995
 20
347.250004
 30
0.0
  0
LWPOLYLINE
  5
20a
100
AcDbEntity
  8
Layer_1
 62
7
100
AcDbPolyline
 90
4
 70
1
 10
368.999986
 20
373.499977
 30
0.0
 10
406.499984
 20
373.499977
 30
0.0
 10
406.499984
 20
369.749978
 30
0.0
 10
368.999986
 20
369.749978
 30
0.0
  0
LWPOLYLINE
  5
20b
100
AcDbEntity
  8
Layer_1
 62
7
100
AcDbPolyline
 90
4
 70
1
 10
372.749967
 20
360.886513
 30
0.0
 10
402.749983
 20
360.886513
 30
0.0
 10
402.749983
 20
354.750049
 30
0.0
 10
372.749967
 20
354.750049
 30
0.0
  0
LWPOLYLINE
  5
20c
100
AcDbEntity
  8
Layer_1
 62
7
100
AcDbPolyline
 90
5
 70
0
 10
376.499991
 20
384.750000
 30
0.0
 10
376.499991
 20
410.999981
 30
0.0
 10
571.500000
 20
410.999981
 30
0.0
 10
571.500000
 20
433.499981
 30
0.0
 10
556.499991
 20
433.499981
 30
0.0
  0
LWPOLYLINE
  5
20d
100
AcDbEntity
  8
Layer_1
 62
7
100
AcDbPolyline
 90
5
 70
0
 10
455.249991
 20
384.750000
 30
0.0
 10
455.249991
 20
396.000000
 30
0.0
 10
586.500009
 20
396.000000
 30
0.0
 10
586.500009
 20
455.999981
 30
0.0
 10
556.499991
 20
455.999981
 30
0.0
  0
LWPOLYLINE
  5
20e
100
AcDbEntity
  8
Layer_1
 62
7
100
AcDbPolyline
 90
5
 70
0
 10
474.000009
 20
384.750000
 30
0.0
 10
474.000009
 20
388.499981
 30
0.0
 10
594.000000
 20
388.499981
 30
0.0
 10
594.000000
 20
463.500000
 30
0.0
 10
556.499991
 20
463.500000
 30
0.0
  0
LWPOLYLINE
  5
20f
100
AcDbEntity
  8
Layer_1
 62
7
100
AcDbPolyline
 90
4
 70
1
 10
522.749968
 20
283.499984
 30
0.0
 10
548.999969
 20
283.499984
 30
0.0
 10
548.999969
 20
275.999985
 30
0.0
 10
522.749968
 20
275.999985
 30
0.0
  0
LWPOLYLINE
  5
210
100
AcDbEntity
  8
Layer_1
 62
7
100
AcDbPolyline
 90
4
 70
1
 10
522.749985
 20
264.749999
 30
0.0
 10
548.999986
 20
264.749999
 30
0.0
 10
548.999986
 20
257.249999
 30
0.0
 10
522.749985
 20
257.249999
 30
0.0
  0
LWPOLYLINE
  5
211
100
AcDbEntity
  8
Layer_1
 62
7
100
AcDbPolyline
 90
4
 70
1
 10
496.499971
 20
276.000041
 30
0.0
 10
515.249980
 20
276.000041
 30
0.0
 10
515.249980
 20
268.500029
 30
0.0
 10
496.499971
 20
268.500029
 30
0.0
  0
LWPOLYLINE
  5
212
100
AcDbEntity
  8
Layer_1
 62
7
100
AcDbPolyline
 90
4
 70
0
 10
522.749985
 20
259.500000
 30
0.0
 10
518.999976
 20
259.500000
 30
0.0
 10
518.999976
 20
279.000009
 30
0.0
 10
522.749985
 20
279.000009
 30
0.0
  0
LWPOLYLINE
  5
213
100
AcDbEntity
  8
Layer_1
 62
7
100
AcDbPolyline
 90
2
 70
0
 10
515.249995
 20
270.750000
 30
0.0
 10
518.999976
 20
270.750000
 30
0.0
  0
SPLINE
  5
214
100
AcDbEntity
  8
Layer_1
 62
7
100
AcDbSpline
 70
8
 71
3
 72
8
 73
4
 74
0
 40
0
 40
0
 40
0
 40
0
 40
1
 40
1
 40
1
 40
1
 10
519.942693
 20
270.744416
 30
0.0
 10
519.942693
 20
270.388546
 30
0.0
 10
519.752839
 20
270.059708
 30
0.0
 10
519.444646
 20
269.881773
 30
0.0
  0
SPLINE
  5
215
100
AcDbEntity
  8
Layer_1
 62
7
100
AcDbSpline
 70
8
 71
3
 72
8
 73
4
 74
0
 40
0
 40
0
 40
0
 40
0
 40
1
 40
1
 40
1
 40
1
 10
519.444646
 20
269.881773
 30
0.0
 10
519.136454
 20
269.703838
 30
0.0
 10
518.756745
 20
269.703838
 30
0.0
 10
518.448553
 20
269.881773
 30
0.0
  0
SPLINE
  5
216
100
AcDbEntity
  8
Layer_1
 62
7
100
AcDbSpline
 70
8
 71
3
 72
8
 73
4
 74
0
 40
0
 40
0
 40
0
 40
0
 40
1
 40
1
 40
1
 40
1
 10
518.448553
 20
269.881773
 30
0.0
 10
518.140360
 20
270.059708
 30
0.0
 10
517.950506
 20
270.388546
 30
0.0
 10
517.950506
 20
270.744416
 30
0.0
  0
SPLINE
  5
217
100
AcDbEntity
  8
Layer_1
 62
7
100
AcDbSpline
 70
8
 71
3
 72
8
 73
4
 74
0
 40
0
 40
0
 40
0
 40
0
 40
1
 40
1
 40
1
 40
1
 10
517.950506
 20
270.744416
 30
0.0
 10
517.950506
 20
271.100286
 30
0.0
 10
518.140360
 20
271.429123
 30
0.0
 10
518.448553
 20
271.607058
 30
0.0
  0
SPLINE
  5
218
100
AcDbEntity
  8
Layer_1
 62
7
100
AcDbSpline
 70
8
 71
3
 72
8
 73
4
 74
0
 40
0
 40
0
 40
0
 40
0
 40
1
 40
1
 40
1
 40
1
 10
518.448553
 20
271.607058
 30
0.0
 10
518.756745
 20
271.784993
 30
0.0
 10
519.136454
 20
271.784993
 30
0.0
 10
519.444646
 20
271.607058
 30
0.0
  0
SPLINE
  5
219
100
AcDbEntity
  8
Layer_1
 62
7
100
AcDbSpline
 70
8
 71
3
 72
8
 73
4
 74
0
 40
0
 40
0
 40
0
 40
0
 40
1
 40
1
 40
1
 40
1
 10
519.444646
 20
271.607058
 30
0.0
 10
519.752839
 20
271.429123
 30
0.0
 10
519.942693
 20
271.100286
 30
0.0
 10
519.942693
 20
270.744416
 30
0.0
  0
LWPOLYLINE
  5
21a
100
AcDbEntity
  8
Layer_1
 62
7
100
AcDbPolyline
 90
4
 70
0
 10
548.999995
 20
279.000009
 30
0.0
 10
552.749976
 20
279.000009
 30
0.0
 10
552.749976
 20
259.500000
 30
0.0
 10
548.999995
 20
259.500000
 30
0.0
  0
SPLINE
  5
21b
100
AcDbEntity
  8
Layer_1
 62
7
100
AcDbSpline
 70
8
 71
3
 72
8
 73
4
 74
0
 40
0
 40
0
 40
0
 40
0
 40
1
 40
1
 40
1
 40
1
 10
553.845934
 20
270.159118
 30
0.0
 10
553.845934
 20
269.803248
 30
0.0
 10
553.656080
 20
269.474411
 30
0.0
 10
553.347887
 20
269.296476
 30
0.0
  0
SPLINE
  5
21c
100
AcDbEntity
  8
Layer_1
 62
7
100
AcDbSpline
 70
8
 71
3
 72
8
 73
4
 74
0
 40
0
 40
0
 40
0
 40
0
 40
1
 40
1
 40
1
 40
1
 10
553.347887
 20
269.296476
 30
0.0
 10
553.039695
 20
269.118541
 30
0.0
 10
552.659986
 20
269.118541
 30
0.0
 10
552.351793
 20
269.296476
 30
0.0
  0
SPLINE
  5
21d
100
AcDbEntity
  8
Layer_1
 62
7
100
AcDbSpline
 70
8
 71
3
 72
8
 73
4
 74
0
 40
0
 40
0
 40
0
 40
0
 40
1
 40
1
 40
1
 40
1
 10
552.351793
 20
269.296476
 30
0.0
 10
552.043601
 20
269.474411
 30
0.0
 10
551.853747
 20
269.803248
 30
0.0
 10
551.853747
 20
270.159118
 30
0.0
  0
SPLINE
  5
21e
100
AcDbEntity
  8
Layer_1
 62
7
100
AcDbSpline
 70
8
 71
3
 72
8
 73
4
 74
0
 40
0
 40
0
 40
0
 40
0
 40
1
 40
1
 40
1
 40
1
 10
551.853747
 20
270.159118
 30
0.0
 10
551.853747
 20
270.514988
 30
0.0
 10
552.043601
 20
270.843825
 30
0.0
 10
552.351793
 20
271.021760
 30
0.0
  0
SPLINE
  5
21f
100
AcDbEntity
  8
Layer_1
 62
7
100
AcDbSpline
 70
8
 71
3
 72
8
 73
4
 74
0
 40
0
 40
0
 40
0
 40
0
 40
1
 40
1
 40
1
 40
1
 10
552.351793
 20
271.021760
 30
0.0
 10
552.659986
 20
271.199695
 30
0.0
 10
553.039695
 20
271.199695
 30
0.0
 10
553.347887
 20
271.021760
 30
0.0
  0
SPLINE
  5
220
100
AcDbEntity
  8
Layer_1
 62
7
100
AcDbSpline
 70
8
 71
3
 72
8
 73
4
 74
0
 40
0
 40
0
 40
0
 40
0
 40
1
 40
1
 40
1
 40
1
 10
553.347887
 20
271.021760
 30
0.0
 10
553.656080
 20
270.843825
 30
0.0
 10
553.845934
 20
270.514988
 30
0.0
 10
553.845934
 20
270.159118
 30
0.0
  0
LWPOLYLINE
  5
221
100
AcDbEntity
  8
Layer_1
 62
7
100
AcDbPolyline
 90
1
 70
1
 10
519.942693
 20
270.744416
 30
0.0
  0
LWPOLYLINE
  5
222
100
AcDbEntity
  8
Layer_1
 62
7
100
AcDbPolyline
 90
1
 70
1
 10
553.845934
 20
270.159118
 30
0.0
  0
LWPOLYLINE
  5
223
100
AcDbEntity
  8
Layer_1
 62
7
100
AcDbPolyline
 90
4
 70
1
 10
522.749968
 20
127.199974
 30
0.0
 10
548.999969
 20
127.199974
 30
0.0
 10
548.999969
 20
119.699974
 30
0.0
 10
522.749968
 20
119.699974
 30
0.0
  0
LWPOLYLINE
  5
224
100
AcDbEntity
  8
Layer_1
 62
7
100
AcDbPolyline
 90
4
 70
1
 10
522.749985
 20
108.449989
 30
0.0
 10
548.999986
 20
108.449989
 30
0.0
 10
548.999986
 20
100.949989
 30
0.0
 10
522.749985
 20
100.949989
 30
0.0
  0
LWPOLYLINE
  5
225
100
AcDbEntity
  8
Layer_1
 62
7
100
AcDbPolyline
 90
4
 70
1
 10
496.499971
 20
119.700031
 30
0.0
 10
515.249980
 20
119.700031
 30
0.0
 10
515.249980
 20
112.200019
 30
0.0
 10
496.499971
 20
112.200019
 30
0.0
  0
LWPOLYLINE
  5
226
100
AcDbEntity
  8
Layer_1
 62
7
100
AcDbPolyline
 90
4
 70
0
 10
522.749985
 20
103.199990
 30
0.0
 10
518.999976
 20
103.199990
 30
0.0
 10
518.999976
 20
122.699999
 30
0.0
 10
522.749985
 20
122.699999
 30
0.0
  0
LWPOLYLINE
  5
227
100
AcDbEntity
  8
Layer_1
 62
7
100
AcDbPolyline
 90
2
 70
0
 10
515.249995
 20
114.449990
 30
0.0
 10
518.999976
 20
114.449990
 30
0.0
  0
SPLINE
  5
228
100
AcDbEntity
  8
Layer_1
 62
7
100
AcDbSpline
 70
8
 71
3
 72
8
 73
4
 74
0
 40
0
 40
0
 40
0
 40
0
 40
1
 40
1
 40
1
 40
1
 10
519.942693
 20
114.444405
 30
0.0
 10
519.942693
 20
114.088535
 30
0.0
 10
519.752839
 20
113.759698
 30
0.0
 10
519.444646
 20
113.581763
 30
0.0
  0
SPLINE
  5
229
100
AcDbEntity
  8
Layer_1
 62
7
100
AcDbSpline
 70
8
 71
3
 72
8
 73
4
 74
0
 40
0
 40
0
 40
0
 40
0
 40
1
 40
1
 40
1
 40
1
 10
519.444646
 20
113.581763
 30
0.0
 10
519.136454
 20
113.403828
 30
0.0
 10
518.756745
 20
113.403828
 30
0.0
 10
518.448553
 20
113.581763
 30
0.0
  0
SPLINE
  5
22a
100
AcDbEntity
  8
Layer_1
 62
7
100
AcDbSpline
 70
8
 71
3
 72
8
 73
4
 74
0
 40
0
 40
0
 40
0
 40
0
 40
1
 40
1
 40
1
 40
1
 10
518.448553
 20
113.581763
 30
0.0
 10
518.140360
 20
113.759698
 30
0.0
 10
517.950506
 20
114.088535
 30
0.0
 10
517.950506
 20
114.444405
 30
0.0
  0
SPLINE
  5
22b
100
AcDbEntity
  8
Layer_1
 62
7
100
AcDbSpline
 70
8
 71
3
 72
8
 73
4
 74
0
 40
0
 40
0
 40
0
 40
0
 40
1
 40
1
 40
1
 40
1
 10
517.950506
 20
114.444405
 30
0.0
 10
517.950506
 20
114.800275
 30
0.0
 10
518.140360
 20
115.129113
 30
0.0
 10
518.448553
 20
115.307048
 30
0.0
  0
SPLINE
  5
22c
100
AcDbEntity
  8
Layer_1
 62
7
100
AcDbSpline
 70
8
 71
3
 72
8
 73
4
 74
0
 40
0
 40
0
 40
0
 40
0
 40
1
 40
1
 40
1
 40
1
 10
518.448553
 20
115.307048
 30
0.0
 10
518.756745
 20
115.484983
 30
0.0
 10
519.136454
 20
115.484983
 30
0.0
 10
519.444646
 20
115.307048
 30
0.0
  0
SPLINE
  5
22d
100
AcDbEntity
  8
Layer_1
 62
7
100
AcDbSpline
 70
8
 71
3
 72
8
 73
4
 74
0
 40
0
 40
0
 40
0
 40
0
 40
1
 40
1
 40
1
 40
1
 10
519.444646
 20
115.307048
 30
0.0
 10
519.752839
 20
115.129113
 30
0.0
 10
519.942693
 20
114.800275
 30
0.0
 10
519.942693
 20
114.444405
 30
0.0
  0
LWPOLYLINE
  5
22e
100
AcDbEntity
  8
Layer_1
 62
7
100
AcDbPolyline
 90
4
 70
0
 10
548.999995
 20
122.699999
 30
0.0
 10
552.749976
 20
122.699999
 30
0.0
 10
552.749976
 20
103.199990
 30
0.0
 10
548.999995
 20
103.199990
 30
0.0
  0
SPLINE
  5
22f
100
AcDbEntity
  8
Layer_1
 62
7
100
AcDbSpline
 70
8
 71
3
 72
8
 73
4
 74
0
 40
0
 40
0
 40
0
 40
0
 40
1
 40
1
 40
1
 40
1
 10
553.845934
 20
113.859108
 30
0.0
 10
553.845934
 20
113.503238
 30
0.0
 10
553.656080
 20
113.174400
 30
0.0
 10
553.347887
 20
112.996465
 30
0.0
  0
SPLINE
  5
230
100
AcDbEntity
  8
Layer_1
 62
7
100
AcDbSpline
 70
8
 71
3
 72
8
 73
4
 74
0
 40
0
 40
0
 40
0
 40
0
 40
1
 40
1
 40
1
 40
1
 10
553.347887
 20
112.996465
 30
0.0
 10
553.039695
 20
112.818530
 30
0.0
 10
552.659986
 20
112.818530
 30
0.0
 10
552.351793
 20
112.996465
 30
0.0
  0
SPLINE
  5
231
100
AcDbEntity
  8
Layer_1
 62
7
100
AcDbSpline
 70
8
 71
3
 72
8
 73
4
 74
0
 40
0
 40
0
 40
0
 40
0
 40
1
 40
1
 40
1
 40
1
 10
552.351793
 20
112.996465
 30
0.0
 10
552.043601
 20
113.174400
 30
0.0
 10
551.853747
 20
113.503238
 30
0.0
 10
551.853747
 20
113.859108
 30
0.0
  0
SPLINE
  5
232
100
AcDbEntity
  8
Layer_1
 62
7
100
AcDbSpline
 70
8
 71
3
 72
8
 73
4
 74
0
 40
0
 40
0
 40
0
 40
0
 40
1
 40
1
 40
1
 40
1
 10
551.853747
 20
113.859108
 30
0.0
 10
551.853747
 20
114.214978
 30
0.0
 10
552.043601
 20
114.543815
 30
0.0
 10
552.351793
 20
114.721750
 30
0.0
  0
SPLINE
  5
233
100
AcDbEntity
  8
Layer_1
 62
7
100
AcDbSpline
 70
8
 71
3
 72
8
 73
4
 74
0
 40
0
 40
0
 40
0
 40
0
 40
1
 40
1
 40
1
 40
1
 10
552.351793
 20
114.721750
 30
0.0
 10
552.659986
 20
114.899685
 30
0.0
 10
553.039695
 20
114.899685
 30
0.0
 10
553.347887
 20
114.721750
 30
0.0
  0
SPLINE
  5
234
100
AcDbEntity
  8
Layer_1
 62
7
100
AcDbSpline
 70
8
 71
3
 72
8
 73
4
 74
0
 40
0
 40
0
 40
0
 40
0
 40
1
 40
1
 40
1
 40
1
 10
553.347887
 20
114.721750
 30
0.0
 10
553.656080
 20
114.543815
 30
0.0
 10
553.845934
 20
114.214978
 30
0.0
 10
553.845934
 20
113.859108
 30
0.0
  0
LWPOLYLINE
  5
235
100
AcDbEntity
  8
Layer_1
 62
7
100
AcDbPolyline
 90
1
 70
1
 10
519.942693
 20
114.444405
 30
0.0
  0
LWPOLYLINE
  5
236
100
AcDbEntity
  8
Layer_1
 62
7
100
AcDbPolyline
 90
1
 70
1
 10
553.845934
 20
113.859108
 30
0.0
  0
LWPOLYLINE
  5
237
100
AcDbEntity
  8
Layer_1
 62
7
100
AcDbPolyline
 90
3
 70
0
 10
474.000009
 20
324.749991
 30
0.0
 10
474.000009
 20
306.000000
 30
0.0
 10
519.000009
 20
306.000000
 30
0.0
  0
LWPOLYLINE
  5
238
100
AcDbEntity
  8
Layer_1
 62
7
100
AcDbPolyline
 90
3
 70
0
 10
451.500009
 20
324.749991
 30
0.0
 10
451.500009
 20
234.749991
 30
0.0
 10
519.000009
 20
234.749991
 30
0.0
  0
LWPOLYLINE
  5
239
100
AcDbEntity
  8
Layer_1
 62
7
100
AcDbPolyline
 90
3
 70
0
 10
398.999991
 20
328.500000
 30
0.0
 10
398.999991
 20
155.999991
 30
0.0
 10
519.000009
 20
155.999991
 30
0.0
  0
LWPOLYLINE
  5
23a
100
AcDbEntity
  8
Layer_1
 62
7
100
AcDbPolyline
 90
3
 70
0
 10
376.499991
 20
328.500000
 30
0.0
 10
376.499991
 20
81.000000
 30
0.0
 10
519.000009
 20
81.000000
 30
0.0
  0
LWPOLYLINE
  5
23b
100
AcDbEntity
  8
Layer_1
 62
7
100
AcDbPolyline
 90
4
 70
0
 10
519.000009
 20
223.499991
 30
0.0
 10
369.000000
 20
223.499991
 30
0.0
 10
369.000000
 20
73.499981
 30
0.0
 10
519.000009
 20
73.499981
 30
0.0
  0
LWPOLYLINE
  5
23c
100
AcDbEntity
  8
Layer_1
 62
7
100
AcDbPolyline
 90
4
 70
0
 10
519.000009
 20
148.500000
 30
0.0
 10
361.500009
 20
148.500000
 30
0.0
 10
361.500009
 20
298.499981
 30
0.0
 10
519.000009
 20
298.499981
 30
0.0
  0
LWPOLYLINE
  5
23d
100
AcDbEntity
  8
Layer_1
 62
7
100
AcDbPolyline
 90
2
 70
0
 10
361.500009
 20
216.000000
 30
0.0
 10
346.500000
 20
216.000000
 30
0.0
  0
LWPOLYLINE
  5
23e
100
AcDbEntity
  8
Layer_1
 62
7
100
AcDbPolyline
 90
2
 70
0
 10
369.000000
 20
103.500000
 30
0.0
 10
346.500000
 20
103.500000
 30
0.0
  0
LWPOLYLINE
  5
23f
100
AcDbEntity
  8
Layer_1
 62
7
100
AcDbPolyline
 90
3
 70
0
 10
368.961506
 20
73.469339
 30
0.0
 10
368.961506
 20
26.142265
 30
0.0
 10
714.038570
 20
26.142265
 30
0.0
  0
LWPOLYLINE
  5
240
100
AcDbEntity
  8
Layer_1
 62
7
100
AcDbPolyline
 90
3
 70
0
 10
383.981386
 20
148.483191
 30
0.0
 10
383.981386
 20
32.945868
 30
0.0
 10
714.018671
 20
32.945868
 30
0.0
  0
LWPOLYLINE
  5
241
100
AcDbEntity
  8
Layer_1
 62
7
100
AcDbPolyline
 90
2
 70
0
 10
713.999991
 20
103.500000
 30
0.0
 10
586.500009
 20
103.500000
 30
0.0
  0
LWPOLYLINE
  5
242
100
AcDbEntity
  8
Layer_1
 62
7
100
AcDbPolyline
 90
2
 70
0
 10
713.999991
 20
110.999991
 30
0.0
 10
586.500009
 20
110.999991
 30
0.0
  0
LWPOLYLINE
  5
243
100
AcDbEntity
  8
Layer_1
 62
1
100
AcDbPolyline
 90
4
 70
1
 10
715.499943
 20
42.749972
 30
0.0
 10
752.999941
 20
42.749972
 30
0.0
 10
752.999941
 20
20.249972
 30
0.0
 10
715.499943
 20
20.249972
 30
0.0
  0
LWPOLYLINE
  5
244
100
AcDbEntity
  8
Layer_1
 62
1
100
AcDbPolyline
 90
4
 70
1
 10
713.999991
 20
118.500009
 30
0.0
 10
751.499992
 20
118.500009
 30
0.0
 10
751.499992
 20
96.000009
 30
0.0
 10
713.999991
 20
96.000009
 30
0.0
  0
LWPOLYLINE
  5
245
100
AcDbEntity
  8
Layer_1
 62
7
100
AcDbPolyline
 90
2
 70
0
 10
713.999962
 20
261.000028
 30
0.0
 10
586.499981
 20
261.000028
 30
0.0
  0
LWPOLYLINE
  5
246
100
AcDbEntity
  8
Layer_1
 62
7
100
AcDbPolyline
 90
2
 70
0
 10
713.999962
 20
268.500019
 30
0.0
 10
586.499981
 20
268.500019
 30
0.0
  0
LWPOLYLINE
  5
247
100
AcDbEntity
  8
Layer_1
 62
1
100
AcDbPolyline
 90
4
 70
1
 10
713.999962
 20
276.000009
 30
0.0
 10
751.499963
 20
276.000009
 30
0.0
 10
751.499963
 20
253.500009
 30
0.0
 10
713.999962
 20
253.500009
 30
0.0
  0
LWPOLYLINE
  5
248
100
AcDbEntity
  8
Layer_1
 62
1
100
AcDbPolyline
 90
4
 70
1
 10
455.249991
 20
291.000019
 30
0.0
 10
470.249990
 20
291.000019
 30
0.0
 10
470.249990
 20
283.500019
 30
0.0
 10
455.249991
 20
283.500019
 30
0.0
  0
SPLINE
  5
249
100
AcDbEntity
  8
Layer_1
 62
1
100
AcDbSpline
 70
8
 71
3
 72
8
 73
4
 74
0
 40
0
 40
0
 40
0
 40
0
 40
1
 40
1
 40
1
 40
1
 10
466.587535
 20
272.106567
 30
0.0
 10
466.587535
 20
271.779232
 30
0.0
 10
466.412903
 20
271.476761
 30
0.0
 10
466.129422
 20
271.313093
 30
0.0
  0
SPLINE
  5
24a
100
AcDbEntity
  8
Layer_1
 62
1
100
AcDbSpline
 70
8
 71
3
 72
8
 73
4
 74
0
 40
0
 40
0
 40
0
 40
0
 40
1
 40
1
 40
1
 40
1
 10
466.129422
 20
271.313093
 30
0.0
 10
465.845942
 20
271.149426
 30
0.0
 10
465.496679
 20
271.149426
 30
0.0
 10
465.213198
 20
271.313093
 30
0.0
  0
SPLINE
  5
24b
100
AcDbEntity
  8
Layer_1
 62
1
100
AcDbSpline
 70
8
 71
3
 72
8
 73
4
 74
0
 40
0
 40
0
 40
0
 40
0
 40
1
 40
1
 40
1
 40
1
 10
465.213198
 20
271.313093
 30
0.0
 10
464.929717
 20
271.476761
 30
0.0
 10
464.755086
 20
271.779232
 30
0.0
 10
464.755086
 20
272.106567
 30
0.0
  0
SPLINE
  5
24c
100
AcDbEntity
  8
Layer_1
 62
1
100
AcDbSpline
 70
8
 71
3
 72
8
 73
4
 74
0
 40
0
 40
0
 40
0
 40
0
 40
1
 40
1
 40
1
 40
1
 10
464.755086
 20
272.106567
 30
0.0
 10
464.755086
 20
272.433902
 30
0.0
 10
464.929717
 20
272.736373
 30
0.0
 10
465.213198
 20
272.900040
 30
0.0
  0
SPLINE
  5
24d
100
AcDbEntity
  8
Layer_1
 62
1
100
AcDbSpline
 70
8
 71
3
 72
8
 73
4
 74
0
 40
0
 40
0
 40
0
 40
0
 40
1
 40
1
 40
1
 40
1
 10
465.213198
 20
272.900040
 30
0.0
 10
465.496679
 20
273.063708
 30
0.0
 10
465.845942
 20
273.063708
 30
0.0
 10
466.129422
 20
272.900040
 30
0.0
  0
SPLINE
  5
24e
100
AcDbEntity
  8
Layer_1
 62
1
100
AcDbSpline
 70
8
 71
3
 72
8
 73
4
 74
0
 40
0
 40
0
 40
0
 40
0
 40
1
 40
1
 40
1
 40
1
 10
466.129422
 20
272.900040
 30
0.0
 10
466.412903
 20
272.736373
 30
0.0
 10
466.587535
 20
272.433902
 30
0.0
 10
466.587535
 20
272.106567
 30
0.0
  0
LWPOLYLINE
  5
24f
100
AcDbEntity
  8
Layer_1
 62
7
100
AcDbPolyline
 90
2
 70
0
 10
459.001020
 20
272.254280
 30
0.0
 10
466.379178
 20
273.600652
 30
0.0
  0
LWPOLYLINE
  5
250
100
AcDbEntity
  8
Layer_1
 62
1
100
AcDbPolyline
 90
1
 70
1
 10
466.587535
 20
272.106567
 30
0.0
  0
SPLINE
  5
251
100
AcDbEntity
  8
Layer_1
 62
1
100
AcDbSpline
 70
8
 71
3
 72
8
 73
4
 74
0
 40
0
 40
0
 40
0
 40
0
 40
1
 40
1
 40
1
 40
1
 10
460.103651
 20
272.062488
 30
0.0
 10
460.103651
 20
271.735153
 30
0.0
 10
459.929020
 20
271.432682
 30
0.0
 10
459.645539
 20
271.269015
 30
0.0
  0
SPLINE
  5
252
100
AcDbEntity
  8
Layer_1
 62
1
100
AcDbSpline
 70
8
 71
3
 72
8
 73
4
 74
0
 40
0
 40
0
 40
0
 40
0
 40
1
 40
1
 40
1
 40
1
 10
459.645539
 20
271.269015
 30
0.0
 10
459.362058
 20
271.105347
 30
0.0
 10
459.012795
 20
271.105347
 30
0.0
 10
458.729315
 20
271.269015
 30
0.0
  0
SPLINE
  5
253
100
AcDbEntity
  8
Layer_1
 62
1
100
AcDbSpline
 70
8
 71
3
 72
8
 73
4
 74
0
 40
0
 40
0
 40
0
 40
0
 40
1
 40
1
 40
1
 40
1
 10
458.729315
 20
271.269015
 30
0.0
 10
458.445834
 20
271.432682
 30
0.0
 10
458.271202
 20
271.735153
 30
0.0
 10
458.271202
 20
272.062488
 30
0.0
  0
SPLINE
  5
254
100
AcDbEntity
  8
Layer_1
 62
1
100
AcDbSpline
 70
8
 71
3
 72
8
 73
4
 74
0
 40
0
 40
0
 40
0
 40
0
 40
1
 40
1
 40
1
 40
1
 10
458.271202
 20
272.062488
 30
0.0
 10
458.271202
 20
272.389824
 30
0.0
 10
458.445834
 20
272.692294
 30
0.0
 10
458.729315
 20
272.855962
 30
0.0
  0
SPLINE
  5
255
100
AcDbEntity
  8
Layer_1
 62
1
100
AcDbSpline
 70
8
 71
3
 72
8
 73
4
 74
0
 40
0
 40
0
 40
0
 40
0
 40
1
 40
1
 40
1
 40
1
 10
458.729315
 20
272.855962
 30
0.0
 10
459.012795
 20
273.019629
 30
0.0
 10
459.362058
 20
273.019629
 30
0.0
 10
459.645539
 20
272.855962
 30
0.0
  0
SPLINE
  5
256
100
AcDbEntity
  8
Layer_1
 62
1
100
AcDbSpline
 70
8
 71
3
 72
8
 73
4
 74
0
 40
0
 40
0
 40
0
 40
0
 40
1
 40
1
 40
1
 40
1
 10
459.645539
 20
272.855962
 30
0.0
 10
459.929020
 20
272.692294
 30
0.0
 10
460.103651
 20
272.389824
 30
0.0
 10
460.103651
 20
272.062488
 30
0.0
  0
LWPOLYLINE
  5
257
100
AcDbEntity
  8
Layer_1
 62
7
100
AcDbPolyline
 90
2
 70
0
 10
462.750009
 20
294.750000
 30
0.0
 10
462.750009
 20
264.749981
 30
0.0
  0
LWPOLYLINE
  5
258
100
AcDbEntity
  8
Layer_1
 62
1
100
AcDbPolyline
 90
1
 70
1
 10
460.103651
 20
272.062488
 30
0.0
  0
LWPOLYLINE
  5
259
100
AcDbEntity
  8
Layer_1
 62
7
100
AcDbPolyline
 90
2
 70
0
 10
455.131106
 20
287.171178
 30
0.0
 10
451.617676
 20
287.171178
 30
0.0
  0
SPLINE
  5
25a
100
AcDbEntity
  8
Layer_1
 62
1
100
AcDbSpline
 70
8
 71
3
 72
8
 73
4
 74
0
 40
0
 40
0
 40
0
 40
0
 40
1
 40
1
 40
1
 40
1
 10
426.729185
 20
267.804113
 30
0.0
 10
426.729185
 20
267.298097
 30
0.0
 10
426.318977
 20
266.887889
 30
0.0
 10
425.812961
 20
266.887889
 30
0.0
  0
SPLINE
  5
25b
100
AcDbEntity
  8
Layer_1
 62
1
100
AcDbSpline
 70
8
 71
3
 72
8
 73
4
 74
0
 40
0
 40
0
 40
0
 40
0
 40
1
 40
1
 40
1
 40
1
 10
425.812961
 20
266.887889
 30
0.0
 10
425.306944
 20
266.887889
 30
0.0
 10
424.896736
 20
267.298097
 30
0.0
 10
424.896736
 20
267.804113
 30
0.0
  0
SPLINE
  5
25c
100
AcDbEntity
  8
Layer_1
 62
1
100
AcDbSpline
 70
8
 71
3
 72
8
 73
4
 74
0
 40
0
 40
0
 40
0
 40
0
 40
1
 40
1
 40
1
 40
1
 10
424.896736
 20
267.804113
 30
0.0
 10
424.896736
 20
268.310130
 30
0.0
 10
425.306944
 20
268.720338
 30
0.0
 10
425.812961
 20
268.720338
 30
0.0
  0
SPLINE
  5
25d
100
AcDbEntity
  8
Layer_1
 62
1
100
AcDbSpline
 70
8
 71
3
 72
8
 73
4
 74
0
 40
0
 40
0
 40
0
 40
0
 40
1
 40
1
 40
1
 40
1
 10
425.812961
 20
268.720338
 30
0.0
 10
426.318977
 20
268.720338
 30
0.0
 10
426.729185
 20
268.310130
 30
0.0
 10
426.729185
 20
267.804113
 30
0.0
  0
LWPOLYLINE
  5
25e
100
AcDbEntity
  8
Layer_1
 62
7
100
AcDbPolyline
 90
2
 70
0
 10
419.561433
 20
264.800126
 30
0.0
 10
426.603997
 20
262.220939
 30
0.0
  0
SPLINE
  5
25f
100
AcDbEntity
  8
Layer_1
 62
1
100
AcDbSpline
 70
8
 71
3
 72
8
 73
4
 74
0
 40
0
 40
0
 40
0
 40
0
 40
1
 40
1
 40
1
 40
1
 10
420.477317
 20
264.578088
 30
0.0
 10
420.477317
 20
264.250753
 30
0.0
 10
420.302686
 20
263.948282
 30
0.0
 10
420.019205
 20
263.784615
 30
0.0
  0
SPLINE
  5
260
100
AcDbEntity
  8
Layer_1
 62
1
100
AcDbSpline
 70
8
 71
3
 72
8
 73
4
 74
0
 40
0
 40
0
 40
0
 40
0
 40
1
 40
1
 40
1
 40
1
 10
420.019205
 20
263.784615
 30
0.0
 10
419.735724
 20
263.620947
 30
0.0
 10
419.386462
 20
263.620947
 30
0.0
 10
419.102981
 20
263.784615
 30
0.0
  0
SPLINE
  5
261
100
AcDbEntity
  8
Layer_1
 62
1
100
AcDbSpline
 70
8
 71
3
 72
8
 73
4
 74
0
 40
0
 40
0
 40
0
 40
0
 40
1
 40
1
 40
1
 40
1
 10
419.102981
 20
263.784615
 30
0.0
 10
418.819500
 20
263.948282
 30
0.0
 10
418.644869
 20
264.250753
 30
0.0
 10
418.644869
 20
264.578088
 30
0.0
  0
SPLINE
  5
262
100
AcDbEntity
  8
Layer_1
 62
1
100
AcDbSpline
 70
8
 71
3
 72
8
 73
4
 74
0
 40
0
 40
0
 40
0
 40
0
 40
1
 40
1
 40
1
 40
1
 10
418.644869
 20
264.578088
 30
0.0
 10
418.644869
 20
264.905424
 30
0.0
 10
418.819500
 20
265.207894
 30
0.0
 10
419.102981
 20
265.371562
 30
0.0
  0
SPLINE
  5
263
100
AcDbEntity
  8
Layer_1
 62
1
100
AcDbSpline
 70
8
 71
3
 72
8
 73
4
 74
0
 40
0
 40
0
 40
0
 40
0
 40
1
 40
1
 40
1
 40
1
 10
419.102981
 20
265.371562
 30
0.0
 10
419.386462
 20
265.535229
 30
0.0
 10
419.735724
 20
265.535229
 30
0.0
 10
420.019205
 20
265.371562
 30
0.0
  0
SPLINE
  5
264
100
AcDbEntity
  8
Layer_1
 62
1
100
AcDbSpline
 70
8
 71
3
 72
8
 73
4
 74
0
 40
0
 40
0
 40
0
 40
0
 40
1
 40
1
 40
1
 40
1
 10
420.019205
 20
265.371562
 30
0.0
 10
420.302686
 20
265.207894
 30
0.0
 10
420.477317
 20
264.905424
 30
0.0
 10
420.477317
 20
264.578088
 30
0.0
  0
LWPOLYLINE
  5
265
100
AcDbEntity
  8
Layer_1
 62
1
100
AcDbPolyline
 90
1
 70
1
 10
426.729185
 20
267.804113
 30
0.0
  0
SPLINE
  5
266
100
AcDbEntity
  8
Layer_1
 62
1
100
AcDbSpline
 70
8
 71
3
 72
8
 73
4
 74
0
 40
0
 40
0
 40
0
 40
0
 40
1
 40
1
 40
1
 40
1
 10
426.580990
 20
261.213024
 30
0.0
 10
426.580990
 20
260.885688
 30
0.0
 10
426.406358
 20
260.583218
 30
0.0
 10
426.122878
 20
260.419550
 30
0.0
  0
SPLINE
  5
267
100
AcDbEntity
  8
Layer_1
 62
1
100
AcDbSpline
 70
8
 71
3
 72
8
 73
4
 74
0
 40
0
 40
0
 40
0
 40
0
 40
1
 40
1
 40
1
 40
1
 10
426.122878
 20
260.419550
 30
0.0
 10
425.839397
 20
260.255882
 30
0.0
 10
425.490134
 20
260.255882
 30
0.0
 10
425.206653
 20
260.419550
 30
0.0
  0
SPLINE
  5
268
100
AcDbEntity
  8
Layer_1
 62
1
100
AcDbSpline
 70
8
 71
3
 72
8
 73
4
 74
0
 40
0
 40
0
 40
0
 40
0
 40
1
 40
1
 40
1
 40
1
 10
425.206653
 20
260.419550
 30
0.0
 10
424.923172
 20
260.583218
 30
0.0
 10
424.748541
 20
260.885688
 30
0.0
 10
424.748541
 20
261.213024
 30
0.0
  0
SPLINE
  5
269
100
AcDbEntity
  8
Layer_1
 62
1
100
AcDbSpline
 70
8
 71
3
 72
8
 73
4
 74
0
 40
0
 40
0
 40
0
 40
0
 40
1
 40
1
 40
1
 40
1
 10
424.748541
 20
261.213024
 30
0.0
 10
424.748541
 20
261.540359
 30
0.0
 10
424.923172
 20
261.842829
 30
0.0
 10
425.206653
 20
262.006497
 30
0.0
  0
SPLINE
  5
26a
100
AcDbEntity
  8
Layer_1
 62
1
100
AcDbSpline
 70
8
 71
3
 72
8
 73
4
 74
0
 40
0
 40
0
 40
0
 40
0
 40
1
 40
1
 40
1
 40
1
 10
425.206653
 20
262.006497
 30
0.0
 10
425.490134
 20
262.170165
 30
0.0
 10
425.839397
 20
262.170165
 30
0.0
 10
426.122878
 20
262.006497
 30
0.0
  0
SPLINE
  5
26b
100
AcDbEntity
  8
Layer_1
 62
1
100
AcDbSpline
 70
8
 71
3
 72
8
 73
4
 74
0
 40
0
 40
0
 40
0
 40
0
 40
1
 40
1
 40
1
 40
1
 10
426.122878
 20
262.006497
 30
0.0
 10
426.406358
 20
261.842829
 30
0.0
 10
426.580990
 20
261.540359
 30
0.0
 10
426.580990
 20
261.213024
 30
0.0
  0
LWPOLYLINE
  5
26c
100
AcDbEntity
  8
Layer_1
 62
1
100
AcDbPolyline
 90
1
 70
1
 10
420.477317
 20
264.578088
 30
0.0
  0
LWPOLYLINE
  5
26d
100
AcDbEntity
  8
Layer_1
 62
1
100
AcDbPolyline
 90
1
 70
1
 10
426.580990
 20
261.213024
 30
0.0
  0
LWPOLYLINE
  5
26e
100
AcDbEntity
  8
Layer_1
 62
7
100
AcDbPolyline
 90
3
 70
0
 10
474.000009
 20
306.000000
 30
0.0
 10
474.000009
 20
287.437493
 30
0.0
 10
470.343742
 20
287.437493
 30
0.0
  0
SPLINE
  5
26f
100
AcDbEntity
  8
Layer_1
 62
1
100
AcDbSpline
 70
8
 71
3
 72
8
 73
4
 74
0
 40
0
 40
0
 40
0
 40
0
 40
1
 40
1
 40
1
 40
1
 10
452.443078
 20
287.294287
 30
0.0
 10
452.443078
 20
286.966951
 30
0.0
 10
452.268447
 20
286.664481
 30
0.0
 10
451.984966
 20
286.500813
 30
0.0
  0
SPLINE
  5
270
100
AcDbEntity
  8
Layer_1
 62
1
100
AcDbSpline
 70
8
 71
3
 72
8
 73
4
 74
0
 40
0
 40
0
 40
0
 40
0
 40
1
 40
1
 40
1
 40
1
 10
451.984966
 20
286.500813
 30
0.0
 10
451.701485
 20
286.337145
 30
0.0
 10
451.352222
 20
286.337145
 30
0.0
 10
451.068741
 20
286.500813
 30
0.0
  0
SPLINE
  5
271
100
AcDbEntity
  8
Layer_1
 62
1
100
AcDbSpline
 70
8
 71
3
 72
8
 73
4
 74
0
 40
0
 40
0
 40
0
 40
0
 40
1
 40
1
 40
1
 40
1
 10
451.068741
 20
286.500813
 30
0.0
 10
450.785261
 20
286.664481
 30
0.0
 10
450.610629
 20
286.966951
 30
0.0
 10
450.610629
 20
287.294287
 30
0.0
  0
SPLINE
  5
272
100
AcDbEntity
  8
Layer_1
 62
1
100
AcDbSpline
 70
8
 71
3
 72
8
 73
4
 74
0
 40
0
 40
0
 40
0
 40
0
 40
1
 40
1
 40
1
 40
1
 10
450.610629
 20
287.294287
 30
0.0
 10
450.610629
 20
287.621622
 30
0.0
 10
450.785261
 20
287.924092
 30
0.0
 10
451.068741
 20
288.087760
 30
0.0
  0
SPLINE
  5
273
100
AcDbEntity
  8
Layer_1
 62
1
100
AcDbSpline
 70
8
 71
3
 72
8
 73
4
 74
0
 40
0
 40
0
 40
0
 40
0
 40
1
 40
1
 40
1
 40
1
 10
451.068741
 20
288.087760
 30
0.0
 10
451.352222
 20
288.251428
 30
0.0
 10
451.701485
 20
288.251428
 30
0.0
 10
451.984966
 20
288.087760
 30
0.0
  0
SPLINE
  5
274
100
AcDbEntity
  8
Layer_1
 62
1
100
AcDbSpline
 70
8
 71
3
 72
8
 73
4
 74
0
 40
0
 40
0
 40
0
 40
0
 40
1
 40
1
 40
1
 40
1
 10
451.984966
 20
288.087760
 30
0.0
 10
452.268447
 20
287.924092
 30
0.0
 10
452.443078
 20
287.621622
 30
0.0
 10
452.443078
 20
287.294287
 30
0.0
  0
LWPOLYLINE
  5
275
100
AcDbEntity
  8
Layer_1
 62
7
100
AcDbPolyline
 90
2
 70
0
 10
465.750000
 20
272.039046
 30
0.0
 10
496.500009
 20
272.039046
 30
0.0
  0
LWPOLYLINE
  5
276
100
AcDbEntity
  8
Layer_1
 62
1
100
AcDbPolyline
 90
1
 70
1
 10
452.443078
 20
287.294287
 30
0.0
  0
LWPOLYLINE
  5
277
100
AcDbEntity
  8
Layer_1
 62
7
100
AcDbPolyline
 90
3
 70
0
 10
459.174869
 20
272.040208
 30
0.0
 10
425.631487
 20
272.040208
 30
0.0
 10
425.631487
 20
267.747846
 30
0.0
  0
SPLINE
  5
278
100
AcDbEntity
  8
Layer_1
 62
1
100
AcDbSpline
 70
8
 71
3
 72
8
 73
4
 74
0
 40
0
 40
0
 40
0
 40
0
 40
1
 40
1
 40
1
 40
1
 10
483.757040
 20
272.123093
 30
0.0
 10
483.757040
 20
271.795757
 30
0.0
 10
483.582409
 20
271.493287
 30
0.0
 10
483.298928
 20
271.329619
 30
0.0
  0
SPLINE
  5
279
100
AcDbEntity
  8
Layer_1
 62
1
100
AcDbSpline
 70
8
 71
3
 72
8
 73
4
 74
0
 40
0
 40
0
 40
0
 40
0
 40
1
 40
1
 40
1
 40
1
 10
483.298928
 20
271.329619
 30
0.0
 10
483.015447
 20
271.165952
 30
0.0
 10
482.666184
 20
271.165952
 30
0.0
 10
482.382704
 20
271.329619
 30
0.0
  0
SPLINE
  5
27a
100
AcDbEntity
  8
Layer_1
 62
1
100
AcDbSpline
 70
8
 71
3
 72
8
 73
4
 74
0
 40
0
 40
0
 40
0
 40
0
 40
1
 40
1
 40
1
 40
1
 10
482.382704
 20
271.329619
 30
0.0
 10
482.099223
 20
271.493287
 30
0.0
 10
481.924591
 20
271.795757
 30
0.0
 10
481.924591
 20
272.123093
 30
0.0
  0
SPLINE
  5
27b
100
AcDbEntity
  8
Layer_1
 62
1
100
AcDbSpline
 70
8
 71
3
 72
8
 73
4
 74
0
 40
0
 40
0
 40
0
 40
0
 40
1
 40
1
 40
1
 40
1
 10
481.924591
 20
272.123093
 30
0.0
 10
481.924591
 20
272.450428
 30
0.0
 10
482.099223
 20
272.752899
 30
0.0
 10
482.382704
 20
272.916566
 30
0.0
  0
SPLINE
  5
27c
100
AcDbEntity
  8
Layer_1
 62
1
100
AcDbSpline
 70
8
 71
3
 72
8
 73
4
 74
0
 40
0
 40
0
 40
0
 40
0
 40
1
 40
1
 40
1
 40
1
 10
482.382704
 20
272.916566
 30
0.0
 10
482.666184
 20
273.080234
 30
0.0
 10
483.015447
 20
273.080234
 30
0.0
 10
483.298928
 20
272.916566
 30
0.0
  0
SPLINE
  5
27d
100
AcDbEntity
  8
Layer_1
 62
1
100
AcDbSpline
 70
8
 71
3
 72
8
 73
4
 74
0
 40
0
 40
0
 40
0
 40
0
 40
1
 40
1
 40
1
 40
1
 10
483.298928
 20
272.916566
 30
0.0
 10
483.582409
 20
272.752899
 30
0.0
 10
483.757040
 20
272.450428
 30
0.0
 10
483.757040
 20
272.123093
 30
0.0
  0
LWPOLYLINE
  5
27e
100
AcDbEntity
  8
Layer_1
 62
7
100
AcDbPolyline
 90
3
 70
0
 10
425.565213
 20
261.184989
 30
0.0
 10
482.840844
 20
261.184989
 30
0.0
 10
482.840844
 20
272.056762
 30
0.0
  0
LWPOLYLINE
  5
27f
100
AcDbEntity
  8
Layer_1
 62
1
100
AcDbPolyline
 90
1
 70
1
 10
483.757040
 20
272.123093
 30
0.0
  0
SPLINE
  5
280
100
AcDbEntity
  8
Layer_1
 62
1
100
AcDbSpline
 70
8
 71
3
 72
8
 73
4
 74
0
 40
0
 40
0
 40
0
 40
0
 40
1
 40
1
 40
1
 40
1
 10
362.428508
 20
264.803414
 30
0.0
 10
362.428508
 20
264.476079
 30
0.0
 10
362.253876
 20
264.173608
 30
0.0
 10
361.970396
 20
264.009941
 30
0.0
  0
SPLINE
  5
281
100
AcDbEntity
  8
Layer_1
 62
1
100
AcDbSpline
 70
8
 71
3
 72
8
 73
4
 74
0
 40
0
 40
0
 40
0
 40
0
 40
1
 40
1
 40
1
 40
1
 10
361.970396
 20
264.009941
 30
0.0
 10
361.686915
 20
263.846273
 30
0.0
 10
361.337652
 20
263.846273
 30
0.0
 10
361.054171
 20
264.009941
 30
0.0
  0
SPLINE
  5
282
100
AcDbEntity
  8
Layer_1
 62
1
100
AcDbSpline
 70
8
 71
3
 72
8
 73
4
 74
0
 40
0
 40
0
 40
0
 40
0
 40
1
 40
1
 40
1
 40
1
 10
361.054171
 20
264.009941
 30
0.0
 10
360.770690
 20
264.173608
 30
0.0
 10
360.596059
 20
264.476079
 30
0.0
 10
360.596059
 20
264.803414
 30
0.0
  0
SPLINE
  5
283
100
AcDbEntity
  8
Layer_1
 62
1
100
AcDbSpline
 70
8
 71
3
 72
8
 73
4
 74
0
 40
0
 40
0
 40
0
 40
0
 40
1
 40
1
 40
1
 40
1
 10
360.596059
 20
264.803414
 30
0.0
 10
360.596059
 20
265.130750
 30
0.0
 10
360.770690
 20
265.433220
 30
0.0
 10
361.054171
 20
265.596888
 30
0.0
  0
SPLINE
  5
284
100
AcDbEntity
  8
Layer_1
 62
1
100
AcDbSpline
 70
8
 71
3
 72
8
 73
4
 74
0
 40
0
 40
0
 40
0
 40
0
 40
1
 40
1
 40
1
 40
1
 10
361.054171
 20
265.596888
 30
0.0
 10
361.337652
 20
265.760555
 30
0.0
 10
361.686915
 20
265.760555
 30
0.0
 10
361.970396
 20
265.596888
 30
0.0
  0
SPLINE
  5
285
100
AcDbEntity
  8
Layer_1
 62
1
100
AcDbSpline
 70
8
 71
3
 72
8
 73
4
 74
0
 40
0
 40
0
 40
0
 40
0
 40
1
 40
1
 40
1
 40
1
 10
361.970396
 20
265.596888
 30
0.0
 10
362.253876
 20
265.433220
 30
0.0
 10
362.428508
 20
265.130750
 30
0.0
 10
362.428508
 20
264.803414
 30
0.0
  0
LWPOLYLINE
  5
286
100
AcDbEntity
  8
Layer_1
 62
7
100
AcDbPolyline
 90
2
 70
0
 10
419.156249
 20
264.515613
 30
0.0
 10
361.499981
 20
264.515613
 30
0.0
  0
LWPOLYLINE
  5
287
100
AcDbEntity
  8
Layer_1
 62
1
100
AcDbPolyline
 90
1
 70
1
 10
362.428508
 20
264.803414
 30
0.0
  0
LWPOLYLINE
  5
288
100
AcDbEntity
  8
Layer_1
 62
1
100
AcDbPolyline
 90
4
 70
1
 10
455.249962
 20
134.160888
 30
0.0
 10
470.249962
 20
134.160888
 30
0.0
 10
470.249962
 20
126.660888
 30
0.0
 10
455.249962
 20
126.660888
 30
0.0
  0
SPLINE
  5
289
100
AcDbEntity
  8
Layer_1
 62
1
100
AcDbSpline
 70
8
 71
3
 72
8
 73
4
 74
0
 40
0
 40
0
 40
0
 40
0
 40
1
 40
1
 40
1
 40
1
 10
466.587478
 20
115.267436
 30
0.0
 10
466.587478
 20
114.940101
 30
0.0
 10
466.412847
 20
114.637630
 30
0.0
 10
466.129366
 20
114.473963
 30
0.0
  0
SPLINE
  5
28a
100
AcDbEntity
  8
Layer_1
 62
1
100
AcDbSpline
 70
8
 71
3
 72
8
 73
4
 74
0
 40
0
 40
0
 40
0
 40
0
 40
1
 40
1
 40
1
 40
1
 10
466.129366
 20
114.473963
 30
0.0
 10
465.845885
 20
114.310295
 30
0.0
 10
465.496622
 20
114.310295
 30
0.0
 10
465.213141
 20
114.473963
 30
0.0
  0
SPLINE
  5
28b
100
AcDbEntity
  8
Layer_1
 62
1
100
AcDbSpline
 70
8
 71
3
 72
8
 73
4
 74
0
 40
0
 40
0
 40
0
 40
0
 40
1
 40
1
 40
1
 40
1
 10
465.213141
 20
114.473963
 30
0.0
 10
464.929661
 20
114.637630
 30
0.0
 10
464.755029
 20
114.940101
 30
0.0
 10
464.755029
 20
115.267436
 30
0.0
  0
SPLINE
  5
28c
100
AcDbEntity
  8
Layer_1
 62
1
100
AcDbSpline
 70
8
 71
3
 72
8
 73
4
 74
0
 40
0
 40
0
 40
0
 40
0
 40
1
 40
1
 40
1
 40
1
 10
464.755029
 20
115.267436
 30
0.0
 10
464.755029
 20
115.594772
 30
0.0
 10
464.929661
 20
115.897242
 30
0.0
 10
465.213141
 20
116.060910
 30
0.0
  0
SPLINE
  5
28d
100
AcDbEntity
  8
Layer_1
 62
1
100
AcDbSpline
 70
8
 71
3
 72
8
 73
4
 74
0
 40
0
 40
0
 40
0
 40
0
 40
1
 40
1
 40
1
 40
1
 10
465.213141
 20
116.060910
 30
0.0
 10
465.496622
 20
116.224578
 30
0.0
 10
465.845885
 20
116.224578
 30
0.0
 10
466.129366
 20
116.060910
 30
0.0
  0
SPLINE
  5
28e
100
AcDbEntity
  8
Layer_1
 62
1
100
AcDbSpline
 70
8
 71
3
 72
8
 73
4
 74
0
 40
0
 40
0
 40
0
 40
0
 40
1
 40
1
 40
1
 40
1
 10
466.129366
 20
116.060910
 30
0.0
 10
466.412847
 20
115.897242
 30
0.0
 10
466.587478
 20
115.594772
 30
0.0
 10
466.587478
 20
115.267436
 30
0.0
  0
LWPOLYLINE
  5
28f
100
AcDbEntity
  8
Layer_1
 62
7
100
AcDbPolyline
 90
2
 70
0
 10
459.000992
 20
115.415235
 30
0.0
 10
466.379150
 20
116.761606
 30
0.0
  0
LWPOLYLINE
  5
290
100
AcDbEntity
  8
Layer_1
 62
1
100
AcDbPolyline
 90
1
 70
1
 10
466.587478
 20
115.267436
 30
0.0
  0
SPLINE
  5
291
100
AcDbEntity
  8
Layer_1
 62
1
100
AcDbSpline
 70
8
 71
3
 72
8
 73
4
 74
0
 40
0
 40
0
 40
0
 40
0
 40
1
 40
1
 40
1
 40
1
 10
460.103594
 20
115.223301
 30
0.0
 10
460.103594
 20
114.717284
 30
0.0
 10
459.693387
 20
114.307077
 30
0.0
 10
459.187370
 20
114.307077
 30
0.0
  0
SPLINE
  5
292
100
AcDbEntity
  8
Layer_1
 62
1
100
AcDbSpline
 70
8
 71
3
 72
8
 73
4
 74
0
 40
0
 40
0
 40
0
 40
0
 40
1
 40
1
 40
1
 40
1
 10
459.187370
 20
114.307077
 30
0.0
 10
458.681353
 20
114.307077
 30
0.0
 10
458.271146
 20
114.717284
 30
0.0
 10
458.271146
 20
115.223301
 30
0.0
  0
SPLINE
  5
293
100
AcDbEntity
  8
Layer_1
 62
1
100
AcDbSpline
 70
8
 71
3
 72
8
 73
4
 74
0
 40
0
 40
0
 40
0
 40
0
 40
1
 40
1
 40
1
 40
1
 10
458.271146
 20
115.223301
 30
0.0
 10
458.271146
 20
115.729317
 30
0.0
 10
458.681353
 20
116.139525
 30
0.0
 10
459.187370
 20
116.139525
 30
0.0
  0
SPLINE
  5
294
100
AcDbEntity
  8
Layer_1
 62
1
100
AcDbSpline
 70
8
 71
3
 72
8
 73
4
 74
0
 40
0
 40
0
 40
0
 40
0
 40
1
 40
1
 40
1
 40
1
 10
459.187370
 20
116.139525
 30
0.0
 10
459.693387
 20
116.139525
 30
0.0
 10
460.103594
 20
115.729317
 30
0.0
 10
460.103594
 20
115.223301
 30
0.0
  0
LWPOLYLINE
  5
295
100
AcDbEntity
  8
Layer_1
 62
7
100
AcDbPolyline
 90
2
 70
0
 10
462.749981
 20
137.910954
 30
0.0
 10
462.749981
 20
107.910935
 30
0.0
  0
LWPOLYLINE
  5
296
100
AcDbEntity
  8
Layer_1
 62
1
100
AcDbPolyline
 90
1
 70
1
 10
460.103594
 20
115.223301
 30
0.0
  0
SPLINE
  5
297
100
AcDbEntity
  8
Layer_1
 62
1
100
AcDbSpline
 70
8
 71
3
 72
8
 73
4
 74
0
 40
0
 40
0
 40
0
 40
0
 40
1
 40
1
 40
1
 40
1
 10
426.729128
 20
110.964954
 30
0.0
 10
426.729128
 20
110.637619
 30
0.0
 10
426.554497
 20
110.335148
 30
0.0
 10
426.271016
 20
110.171481
 30
0.0
  0
SPLINE
  5
298
100
AcDbEntity
  8
Layer_1
 62
1
100
AcDbSpline
 70
8
 71
3
 72
8
 73
4
 74
0
 40
0
 40
0
 40
0
 40
0
 40
1
 40
1
 40
1
 40
1
 10
426.271016
 20
110.171481
 30
0.0
 10
425.987535
 20
110.007813
 30
0.0
 10
425.638273
 20
110.007813
 30
0.0
 10
425.354792
 20
110.171481
 30
0.0
  0
SPLINE
  5
299
100
AcDbEntity
  8
Layer_1
 62
1
100
AcDbSpline
 70
8
 71
3
 72
8
 73
4
 74
0
 40
0
 40
0
 40
0
 40
0
 40
1
 40
1
 40
1
 40
1
 10
425.354792
 20
110.171481
 30
0.0
 10
425.071311
 20
110.335148
 30
0.0
 10
424.896680
 20
110.637619
 30
0.0
 10
424.896680
 20
110.964954
 30
0.0
  0
SPLINE
  5
29a
100
AcDbEntity
  8
Layer_1
 62
1
100
AcDbSpline
 70
8
 71
3
 72
8
 73
4
 74
0
 40
0
 40
0
 40
0
 40
0
 40
1
 40
1
 40
1
 40
1
 10
424.896680
 20
110.964954
 30
0.0
 10
424.896680
 20
111.292290
 30
0.0
 10
425.071311
 20
111.594760
 30
0.0
 10
425.354792
 20
111.758428
 30
0.0
  0
SPLINE
  5
29b
100
AcDbEntity
  8
Layer_1
 62
1
100
AcDbSpline
 70
8
 71
3
 72
8
 73
4
 74
0
 40
0
 40
0
 40
0
 40
0
 40
1
 40
1
 40
1
 40
1
 10
425.354792
 20
111.758428
 30
0.0
 10
425.638273
 20
111.922096
 30
0.0
 10
425.987535
 20
111.922096
 30
0.0
 10
426.271016
 20
111.758428
 30
0.0
  0
SPLINE
  5
29c
100
AcDbEntity
  8
Layer_1
 62
1
100
AcDbSpline
 70
8
 71
3
 72
8
 73
4
 74
0
 40
0
 40
0
 40
0
 40
0
 40
1
 40
1
 40
1
 40
1
 10
426.271016
 20
111.758428
 30
0.0
 10
426.554497
 20
111.594760
 30
0.0
 10
426.729128
 20
111.292290
 30
0.0
 10
426.729128
 20
110.964954
 30
0.0
  0
LWPOLYLINE
  5
29d
100
AcDbEntity
  8
Layer_1
 62
7
100
AcDbPolyline
 90
2
 70
0
 10
419.561405
 20
107.961080
 30
0.0
 10
426.603969
 20
105.381893
 30
0.0
  0
SPLINE
  5
29e
100
AcDbEntity
  8
Layer_1
 62
1
100
AcDbSpline
 70
8
 71
3
 72
8
 73
4
 74
0
 40
0
 40
0
 40
0
 40
0
 40
1
 40
1
 40
1
 40
1
 10
420.477261
 20
107.738929
 30
0.0
 10
420.477261
 20
107.411594
 30
0.0
 10
420.302629
 20
107.109123
 30
0.0
 10
420.019148
 20
106.945456
 30
0.0
  0
SPLINE
  5
29f
100
AcDbEntity
  8
Layer_1
 62
1
100
AcDbSpline
 70
8
 71
3
 72
8
 73
4
 74
0
 40
0
 40
0
 40
0
 40
0
 40
1
 40
1
 40
1
 40
1
 10
420.019148
 20
106.945456
 30
0.0
 10
419.735668
 20
106.781788
 30
0.0
 10
419.386405
 20
106.781788
 30
0.0
 10
419.102924
 20
106.945456
 30
0.0
  0
SPLINE
  5
2a0
100
AcDbEntity
  8
Layer_1
 62
1
100
AcDbSpline
 70
8
 71
3
 72
8
 73
4
 74
0
 40
0
 40
0
 40
0
 40
0
 40
1
 40
1
 40
1
 40
1
 10
419.102924
 20
106.945456
 30
0.0
 10
418.819443
 20
107.109123
 30
0.0
 10
418.644812
 20
107.411594
 30
0.0
 10
418.644812
 20
107.738929
 30
0.0
  0
SPLINE
  5
2a1
100
AcDbEntity
  8
Layer_1
 62
1
100
AcDbSpline
 70
8
 71
3
 72
8
 73
4
 74
0
 40
0
 40
0
 40
0
 40
0
 40
1
 40
1
 40
1
 40
1
 10
418.644812
 20
107.738929
 30
0.0
 10
418.644812
 20
108.066265
 30
0.0
 10
418.819443
 20
108.368735
 30
0.0
 10
419.102924
 20
108.532403
 30
0.0
  0
SPLINE
  5
2a2
100
AcDbEntity
  8
Layer_1
 62
1
100
AcDbSpline
 70
8
 71
3
 72
8
 73
4
 74
0
 40
0
 40
0
 40
0
 40
0
 40
1
 40
1
 40
1
 40
1
 10
419.102924
 20
108.532403
 30
0.0
 10
419.386405
 20
108.696070
 30
0.0
 10
419.735668
 20
108.696070
 30
0.0
 10
420.019148
 20
108.532403
 30
0.0
  0
SPLINE
  5
2a3
100
AcDbEntity
  8
Layer_1
 62
1
100
AcDbSpline
 70
8
 71
3
 72
8
 73
4
 74
0
 40
0
 40
0
 40
0
 40
0
 40
1
 40
1
 40
1
 40
1
 10
420.019148
 20
108.532403
 30
0.0
 10
420.302629
 20
108.368735
 30
0.0
 10
420.477261
 20
108.066265
 30
0.0
 10
420.477261
 20
107.738929
 30
0.0
  0
LWPOLYLINE
  5
2a4
100
AcDbEntity
  8
Layer_1
 62
1
100
AcDbPolyline
 90
1
 70
1
 10
426.729128
 20
110.964954
 30
0.0
  0
SPLINE
  5
2a5
100
AcDbEntity
  8
Layer_1
 62
1
100
AcDbSpline
 70
8
 71
3
 72
8
 73
4
 74
0
 40
0
 40
0
 40
0
 40
0
 40
1
 40
1
 40
1
 40
1
 10
426.580933
 20
104.373836
 30
0.0
 10
426.580933
 20
103.867820
 30
0.0
 10
426.170725
 20
103.457612
 30
0.0
 10
425.664709
 20
103.457612
 30
0.0
  0
SPLINE
  5
2a6
100
AcDbEntity
  8
Layer_1
 62
1
100
AcDbSpline
 70
8
 71
3
 72
8
 73
4
 74
0
 40
0
 40
0
 40
0
 40
0
 40
1
 40
1
 40
1
 40
1
 10
425.664709
 20
103.457612
 30
0.0
 10
425.158692
 20
103.457612
 30
0.0
 10
424.748484
 20
103.867820
 30
0.0
 10
424.748484
 20
104.373836
 30
0.0
  0
SPLINE
  5
2a7
100
AcDbEntity
  8
Layer_1
 62
1
100
AcDbSpline
 70
8
 71
3
 72
8
 73
4
 74
0
 40
0
 40
0
 40
0
 40
0
 40
1
 40
1
 40
1
 40
1
 10
424.748484
 20
104.373836
 30
0.0
 10
424.748484
 20
104.879853
 30
0.0
 10
425.158692
 20
105.290060
 30
0.0
 10
425.664709
 20
105.290060
 30
0.0
  0
SPLINE
  5
2a8
100
AcDbEntity
  8
Layer_1
 62
1
100
AcDbSpline
 70
8
 71
3
 72
8
 73
4
 74
0
 40
0
 40
0
 40
0
 40
0
 40
1
 40
1
 40
1
 40
1
 10
425.664709
 20
105.290060
 30
0.0
 10
426.170725
 20
105.290060
 30
0.0
 10
426.580933
 20
104.879853
 30
0.0
 10
426.580933
 20
104.373836
 30
0.0
  0
LWPOLYLINE
  5
2a9
100
AcDbEntity
  8
Layer_1
 62
1
100
AcDbPolyline
 90
1
 70
1
 10
420.477261
 20
107.738929
 30
0.0
  0
LWPOLYLINE
  5
2aa
100
AcDbEntity
  8
Layer_1
 62
1
100
AcDbPolyline
 90
1
 70
1
 10
426.580933
 20
104.373836
 30
0.0
  0
SPLINE
  5
2ab
100
AcDbEntity
  8
Layer_1
 62
1
100
AcDbSpline
 70
8
 71
3
 72
8
 73
4
 74
0
 40
0
 40
0
 40
0
 40
0
 40
1
 40
1
 40
1
 40
1
 10
377.401305
 20
130.587732
 30
0.0
 10
377.401305
 20
130.260397
 30
0.0
 10
377.226673
 20
129.957926
 30
0.0
 10
376.943192
 20
129.794259
 30
0.0
  0
SPLINE
  5
2ac
100
AcDbEntity
  8
Layer_1
 62
1
100
AcDbSpline
 70
8
 71
3
 72
8
 73
4
 74
0
 40
0
 40
0
 40
0
 40
0
 40
1
 40
1
 40
1
 40
1
 10
376.943192
 20
129.794259
 30
0.0
 10
376.659712
 20
129.630591
 30
0.0
 10
376.310449
 20
129.630591
 30
0.0
 10
376.026968
 20
129.794259
 30
0.0
  0
SPLINE
  5
2ad
100
AcDbEntity
  8
Layer_1
 62
1
100
AcDbSpline
 70
8
 71
3
 72
8
 73
4
 74
0
 40
0
 40
0
 40
0
 40
0
 40
1
 40
1
 40
1
 40
1
 10
376.026968
 20
129.794259
 30
0.0
 10
375.743487
 20
129.957926
 30
0.0
 10
375.568856
 20
130.260397
 30
0.0
 10
375.568856
 20
130.587732
 30
0.0
  0
SPLINE
  5
2ae
100
AcDbEntity
  8
Layer_1
 62
1
100
AcDbSpline
 70
8
 71
3
 72
8
 73
4
 74
0
 40
0
 40
0
 40
0
 40
0
 40
1
 40
1
 40
1
 40
1
 10
375.568856
 20
130.587732
 30
0.0
 10
375.568856
 20
130.915068
 30
0.0
 10
375.743487
 20
131.217538
 30
0.0
 10
376.026968
 20
131.381206
 30
0.0
  0
SPLINE
  5
2af
100
AcDbEntity
  8
Layer_1
 62
1
100
AcDbSpline
 70
8
 71
3
 72
8
 73
4
 74
0
 40
0
 40
0
 40
0
 40
0
 40
1
 40
1
 40
1
 40
1
 10
376.026968
 20
131.381206
 30
0.0
 10
376.310449
 20
131.544874
 30
0.0
 10
376.659712
 20
131.544874
 30
0.0
 10
376.943192
 20
131.381206
 30
0.0
  0
SPLINE
  5
2b0
100
AcDbEntity
  8
Layer_1
 62
1
100
AcDbSpline
 70
8
 71
3
 72
8
 73
4
 74
0
 40
0
 40
0
 40
0
 40
0
 40
1
 40
1
 40
1
 40
1
 10
376.943192
 20
131.381206
 30
0.0
 10
377.226673
 20
131.217538
 30
0.0
 10
377.401305
 20
130.915068
 30
0.0
 10
377.401305
 20
130.587732
 30
0.0
  0
LWPOLYLINE
  5
2b1
100
AcDbEntity
  8
Layer_1
 62
7
100
AcDbPolyline
 90
2
 70
0
 10
465.749972
 20
115.200000
 30
0.0
 10
496.499981
 20
115.200000
 30
0.0
  0
LWPOLYLINE
  5
2b2
100
AcDbEntity
  8
Layer_1
 62
1
100
AcDbPolyline
 90
1
 70
1
 10
377.401305
 20
130.587732
 30
0.0
  0
LWPOLYLINE
  5
2b3
100
AcDbEntity
  8
Layer_1
 62
7
100
AcDbPolyline
 90
3
 70
0
 10
459.174841
 20
115.201162
 30
0.0
 10
425.631458
 20
115.201162
 30
0.0
 10
425.631458
 20
110.908800
 30
0.0
  0
SPLINE
  5
2b4
100
AcDbEntity
  8
Layer_1
 62
1
100
AcDbSpline
 70
8
 71
3
 72
8
 73
4
 74
0
 40
0
 40
0
 40
0
 40
0
 40
1
 40
1
 40
1
 40
1
 10
483.756983
 20
115.283962
 30
0.0
 10
483.756983
 20
114.777946
 30
0.0
 10
483.346776
 20
114.367738
 30
0.0
 10
482.840759
 20
114.367738
 30
0.0
  0
SPLINE
  5
2b5
100
AcDbEntity
  8
Layer_1
 62
1
100
AcDbSpline
 70
8
 71
3
 72
8
 73
4
 74
0
 40
0
 40
0
 40
0
 40
0
 40
1
 40
1
 40
1
 40
1
 10
482.840759
 20
114.367738
 30
0.0
 10
482.334742
 20
114.367738
 30
0.0
 10
481.924535
 20
114.777946
 30
0.0
 10
481.924535
 20
115.283962
 30
0.0
  0
SPLINE
  5
2b6
100
AcDbEntity
  8
Layer_1
 62
1
100
AcDbSpline
 70
8
 71
3
 72
8
 73
4
 74
0
 40
0
 40
0
 40
0
 40
0
 40
1
 40
1
 40
1
 40
1
 10
481.924535
 20
115.283962
 30
0.0
 10
481.924535
 20
115.789979
 30
0.0
 10
482.334742
 20
116.200186
 30
0.0
 10
482.840759
 20
116.200186
 30
0.0
  0
SPLINE
  5
2b7
100
AcDbEntity
  8
Layer_1
 62
1
100
AcDbSpline
 70
8
 71
3
 72
8
 73
4
 74
0
 40
0
 40
0
 40
0
 40
0
 40
1
 40
1
 40
1
 40
1
 10
482.840759
 20
116.200186
 30
0.0
 10
483.346776
 20
116.200186
 30
0.0
 10
483.756983
 20
115.789979
 30
0.0
 10
483.756983
 20
115.283962
 30
0.0
  0
LWPOLYLINE
  5
2b8
100
AcDbEntity
  8
Layer_1
 62
7
100
AcDbPolyline
 90
3
 70
0
 10
425.565184
 20
104.345943
 30
0.0
 10
482.840816
 20
104.345943
 30
0.0
 10
482.840816
 20
115.217717
 30
0.0
  0
LWPOLYLINE
  5
2b9
100
AcDbEntity
  8
Layer_1
 62
1
100
AcDbPolyline
 90
1
 70
1
 10
483.756983
 20
115.283962
 30
0.0
  0
SPLINE
  5
2ba
100
AcDbEntity
  8
Layer_1
 62
1
100
AcDbSpline
 70
8
 71
3
 72
8
 73
4
 74
0
 40
0
 40
0
 40
0
 40
0
 40
1
 40
1
 40
1
 40
1
 10
479.930212
 20
156.120406
 30
0.0
 10
479.930212
 20
155.793071
 30
0.0
 10
479.755580
 20
155.490600
 30
0.0
 10
479.472100
 20
155.326933
 30
0.0
  0
SPLINE
  5
2bb
100
AcDbEntity
  8
Layer_1
 62
1
100
AcDbSpline
 70
8
 71
3
 72
8
 73
4
 74
0
 40
0
 40
0
 40
0
 40
0
 40
1
 40
1
 40
1
 40
1
 10
479.472100
 20
155.326933
 30
0.0
 10
479.188619
 20
155.163265
 30
0.0
 10
478.839356
 20
155.163265
 30
0.0
 10
478.555875
 20
155.326933
 30
0.0
  0
SPLINE
  5
2bc
100
AcDbEntity
  8
Layer_1
 62
1
100
AcDbSpline
 70
8
 71
3
 72
8
 73
4
 74
0
 40
0
 40
0
 40
0
 40
0
 40
1
 40
1
 40
1
 40
1
 10
478.555875
 20
155.326933
 30
0.0
 10
478.272394
 20
155.490600
 30
0.0
 10
478.097763
 20
155.793071
 30
0.0
 10
478.097763
 20
156.120406
 30
0.0
  0
SPLINE
  5
2bd
100
AcDbEntity
  8
Layer_1
 62
1
100
AcDbSpline
 70
8
 71
3
 72
8
 73
4
 74
0
 40
0
 40
0
 40
0
 40
0
 40
1
 40
1
 40
1
 40
1
 10
478.097763
 20
156.120406
 30
0.0
 10
478.097763
 20
156.626423
 30
0.0
 10
478.507971
 20
157.036630
 30
0.0
 10
479.013987
 20
157.036630
 30
0.0
  0
SPLINE
  5
2be
100
AcDbEntity
  8
Layer_1
 62
1
100
AcDbSpline
 70
8
 71
3
 72
8
 73
4
 74
0
 40
0
 40
0
 40
0
 40
0
 40
1
 40
1
 40
1
 40
1
 10
479.013987
 20
157.036630
 30
0.0
 10
479.520004
 20
157.036630
 30
0.0
 10
479.930212
 20
156.626423
 30
0.0
 10
479.930212
 20
156.120406
 30
0.0
  0
LWPOLYLINE
  5
2bf
100
AcDbEntity
  8
Layer_1
 62
7
100
AcDbPolyline
 90
2
 70
0
 10
455.109392
 20
130.406258
 30
0.0
 10
376.575959
 20
130.406258
 30
0.0
  0
LWPOLYLINE
  5
2c0
100
AcDbEntity
  8
Layer_1
 62
1
100
AcDbPolyline
 90
1
 70
1
 10
479.930212
 20
156.120406
 30
0.0
  0
SPLINE
  5
2c1
100
AcDbEntity
  8
Layer_1
 62
1
100
AcDbSpline
 70
8
 71
3
 72
8
 73
4
 74
0
 40
0
 40
0
 40
0
 40
0
 40
1
 40
1
 40
1
 40
1
 10
400.130628
 20
148.423606
 30
0.0
 10
400.130628
 20
148.096271
 30
0.0
 10
399.955996
 20
147.793800
 30
0.0
 10
399.672515
 20
147.630133
 30
0.0
  0
SPLINE
  5
2c2
100
AcDbEntity
  8
Layer_1
 62
1
100
AcDbSpline
 70
8
 71
3
 72
8
 73
4
 74
0
 40
0
 40
0
 40
0
 40
0
 40
1
 40
1
 40
1
 40
1
 10
399.672515
 20
147.630133
 30
0.0
 10
399.389035
 20
147.466465
 30
0.0
 10
399.039772
 20
147.466465
 30
0.0
 10
398.756291
 20
147.630133
 30
0.0
  0
SPLINE
  5
2c3
100
AcDbEntity
  8
Layer_1
 62
1
100
AcDbSpline
 70
8
 71
3
 72
8
 73
4
 74
0
 40
0
 40
0
 40
0
 40
0
 40
1
 40
1
 40
1
 40
1
 10
398.756291
 20
147.630133
 30
0.0
 10
398.472810
 20
147.793800
 30
0.0
 10
398.298179
 20
148.096271
 30
0.0
 10
398.298179
 20
148.423606
 30
0.0
  0
SPLINE
  5
2c4
100
AcDbEntity
  8
Layer_1
 62
1
100
AcDbSpline
 70
8
 71
3
 72
8
 73
4
 74
0
 40
0
 40
0
 40
0
 40
0
 40
1
 40
1
 40
1
 40
1
 10
398.298179
 20
148.423606
 30
0.0
 10
398.298179
 20
148.750942
 30
0.0
 10
398.472810
 20
149.053412
 30
0.0
 10
398.756291
 20
149.217080
 30
0.0
  0
SPLINE
  5
2c5
100
AcDbEntity
  8
Layer_1
 62
1
100
AcDbSpline
 70
8
 71
3
 72
8
 73
4
 74
0
 40
0
 40
0
 40
0
 40
0
 40
1
 40
1
 40
1
 40
1
 10
398.756291
 20
149.217080
 30
0.0
 10
399.039772
 20
149.380748
 30
0.0
 10
399.389035
 20
149.380748
 30
0.0
 10
399.672515
 20
149.217080
 30
0.0
  0
SPLINE
  5
2c6
100
AcDbEntity
  8
Layer_1
 62
1
100
AcDbSpline
 70
8
 71
3
 72
8
 73
4
 74
0
 40
0
 40
0
 40
0
 40
0
 40
1
 40
1
 40
1
 40
1
 10
399.672515
 20
149.217080
 30
0.0
 10
399.955996
 20
149.053412
 30
0.0
 10
400.130628
 20
148.750942
 30
0.0
 10
400.130628
 20
148.423606
 30
0.0
  0
LWPOLYLINE
  5
2c7
100
AcDbEntity
  8
Layer_1
 62
7
100
AcDbPolyline
 90
3
 70
0
 10
470.156258
 20
130.312488
 30
0.0
 10
479.062517
 20
130.312488
 30
0.0
 10
479.062517
 20
155.999991
 30
0.0
  0
LWPOLYLINE
  5
2c8
100
AcDbEntity
  8
Layer_1
 62
1
100
AcDbPolyline
 90
1
 70
1
 10
400.130628
 20
148.423606
 30
0.0
  0
LWPOLYLINE
  5
2c9
100
AcDbEntity
  8
Layer_1
 62
7
100
AcDbPolyline
 90
3
 70
0
 10
419.109392
 20
107.683597
 30
0.0
 10
399.187502
 20
107.683597
 30
0.0
 10
399.187502
 20
148.687483
 30
0.0
  0
LWPOLYLINE
  5
2ca
100
AcDbEntity
  8
Layer_1
 62
7
100
AcDbPolyline
 90
5
 70
0
 10
500.010293
 20
223.664145
 30
0.0
 10
500.010293
 20
253.362643
 30
0.0
 10
557.020772
 20
253.362643
 30
0.0
 10
557.020772
 20
270.333184
 30
0.0
 10
553.573616
 20
270.333184
 30
0.0
  0
SPLINE
  5
2cb
100
AcDbEntity
  8
Layer_1
 62
1
100
AcDbSpline
 70
8
 71
3
 72
8
 73
4
 74
0
 40
0
 40
0
 40
0
 40
0
 40
1
 40
1
 40
1
 40
1
 10
507.505900
 20
73.588337
 30
0.0
 10
507.505900
 20
73.261002
 30
0.0
 10
507.331269
 20
72.958531
 30
0.0
 10
507.047788
 20
72.794863
 30
0.0
  0
SPLINE
  5
2cc
100
AcDbEntity
  8
Layer_1
 62
1
100
AcDbSpline
 70
8
 71
3
 72
8
 73
4
 74
0
 40
0
 40
0
 40
0
 40
0
 40
1
 40
1
 40
1
 40
1
 10
507.047788
 20
72.794863
 30
0.0
 10
506.764307
 20
72.631196
 30
0.0
 10
506.415044
 20
72.631196
 30
0.0
 10
506.131563
 20
72.794863
 30
0.0
  0
SPLINE
  5
2cd
100
AcDbEntity
  8
Layer_1
 62
1
100
AcDbSpline
 70
8
 71
3
 72
8
 73
4
 74
0
 40
0
 40
0
 40
0
 40
0
 40
1
 40
1
 40
1
 40
1
 10
506.131563
 20
72.794863
 30
0.0
 10
505.848083
 20
72.958531
 30
0.0
 10
505.673451
 20
73.261002
 30
0.0
 10
505.673451
 20
73.588337
 30
0.0
  0
SPLINE
  5
2ce
100
AcDbEntity
  8
Layer_1
 62
1
100
AcDbSpline
 70
8
 71
3
 72
8
 73
4
 74
0
 40
0
 40
0
 40
0
 40
0
 40
1
 40
1
 40
1
 40
1
 10
505.673451
 20
73.588337
 30
0.0
 10
505.673451
 20
73.915672
 30
0.0
 10
505.848083
 20
74.218143
 30
0.0
 10
506.131563
 20
74.381811
 30
0.0
  0
SPLINE
  5
2cf
100
AcDbEntity
  8
Layer_1
 62
1
100
AcDbSpline
 70
8
 71
3
 72
8
 73
4
 74
0
 40
0
 40
0
 40
0
 40
0
 40
1
 40
1
 40
1
 40
1
 10
506.131563
 20
74.381811
 30
0.0
 10
506.415044
 20
74.545478
 30
0.0
 10
506.764307
 20
74.545478
 30
0.0
 10
507.047788
 20
74.381811
 30
0.0
  0
SPLINE
  5
2d0
100
AcDbEntity
  8
Layer_1
 62
1
100
AcDbSpline
 70
8
 71
3
 72
8
 73
4
 74
0
 40
0
 40
0
 40
0
 40
0
 40
1
 40
1
 40
1
 40
1
 10
507.047788
 20
74.381811
 30
0.0
 10
507.331269
 20
74.218143
 30
0.0
 10
507.505900
 20
73.915672
 30
0.0
 10
507.505900
 20
73.588337
 30
0.0
  0
LWPOLYLINE
  5
2d1
100
AcDbEntity
  8
Layer_1
 62
7
100
AcDbPolyline
 90
5
 70
0
 10
506.639424
 20
73.845893
 30
0.0
 10
506.639424
 20
97.710746
 30
0.0
 10
557.551106
 20
97.710746
 30
0.0
 10
557.551106
 20
113.885830
 30
0.0
 10
552.778129
 20
113.885830
 30
0.0
  0
SPLINE
  5
2d2
100
AcDbEntity
  8
Layer_1
 62
1
100
AcDbSpline
 70
8
 71
3
 72
8
 73
4
 74
0
 40
0
 40
0
 40
0
 40
0
 40
1
 40
1
 40
1
 40
1
 10
369.868659
 20
73.448107
 30
0.0
 10
369.868659
 20
73.120772
 30
0.0
 10
369.694028
 20
72.818301
 30
0.0
 10
369.410547
 20
72.654634
 30
0.0
  0
SPLINE
  5
2d3
100
AcDbEntity
  8
Layer_1
 62
1
100
AcDbSpline
 70
8
 71
3
 72
8
 73
4
 74
0
 40
0
 40
0
 40
0
 40
0
 40
1
 40
1
 40
1
 40
1
 10
369.410547
 20
72.654634
 30
0.0
 10
369.127066
 20
72.490966
 30
0.0
 10
368.777803
 20
72.490966
 30
0.0
 10
368.494322
 20
72.654634
 30
0.0
  0
SPLINE
  5
2d4
100
AcDbEntity
  8
Layer_1
 62
1
100
AcDbSpline
 70
8
 71
3
 72
8
 73
4
 74
0
 40
0
 40
0
 40
0
 40
0
 40
1
 40
1
 40
1
 40
1
 10
368.494322
 20
72.654634
 30
0.0
 10
368.210842
 20
72.818301
 30
0.0
 10
368.036210
 20
73.120772
 30
0.0
 10
368.036210
 20
73.448107
 30
0.0
  0
SPLINE
  5
2d5
100
AcDbEntity
  8
Layer_1
 62
1
100
AcDbSpline
 70
8
 71
3
 72
8
 73
4
 74
0
 40
0
 40
0
 40
0
 40
0
 40
1
 40
1
 40
1
 40
1
 10
368.036210
 20
73.448107
 30
0.0
 10
368.036210
 20
73.775443
 30
0.0
 10
368.210842
 20
74.077913
 30
0.0
 10
368.494322
 20
74.241581
 30
0.0
  0
SPLINE
  5
2d6
100
AcDbEntity
  8
Layer_1
 62
1
100
AcDbSpline
 70
8
 71
3
 72
8
 73
4
 74
0
 40
0
 40
0
 40
0
 40
0
 40
1
 40
1
 40
1
 40
1
 10
368.494322
 20
74.241581
 30
0.0
 10
368.777803
 20
74.405248
 30
0.0
 10
369.127066
 20
74.405248
 30
0.0
 10
369.410547
 20
74.241581
 30
0.0
  0
SPLINE
  5
2d7
100
AcDbEntity
  8
Layer_1
 62
1
100
AcDbSpline
 70
8
 71
3
 72
8
 73
4
 74
0
 40
0
 40
0
 40
0
 40
0
 40
1
 40
1
 40
1
 40
1
 10
369.410547
 20
74.241581
 30
0.0
 10
369.694028
 20
74.077913
 30
0.0
 10
369.868659
 20
73.775443
 30
0.0
 10
369.868659
 20
73.448107
 30
0.0
  0
LWPOLYLINE
  5
2d8
100
AcDbEntity
  8
Layer_1
 62
1
100
AcDbPolyline
 90
1
 70
1
 10
507.505900
 20
73.588337
 30
0.0
  0
SPLINE
  5
2d9
100
AcDbEntity
  8
Layer_1
 62
1
100
AcDbSpline
 70
8
 71
3
 72
8
 73
4
 74
0
 40
0
 40
0
 40
0
 40
0
 40
1
 40
1
 40
1
 40
1
 10
384.850498
 20
148.688759
 30
0.0
 10
384.850498
 20
148.182742
 30
0.0
 10
384.440291
 20
147.772535
 30
0.0
 10
383.934274
 20
147.772535
 30
0.0
  0
SPLINE
  5
2da
100
AcDbEntity
  8
Layer_1
 62
1
100
AcDbSpline
 70
8
 71
3
 72
8
 73
4
 74
0
 40
0
 40
0
 40
0
 40
0
 40
1
 40
1
 40
1
 40
1
 10
383.934274
 20
147.772535
 30
0.0
 10
383.428257
 20
147.772535
 30
0.0
 10
383.018050
 20
148.182742
 30
0.0
 10
383.018050
 20
148.688759
 30
0.0
  0
SPLINE
  5
2db
100
AcDbEntity
  8
Layer_1
 62
1
100
AcDbSpline
 70
8
 71
3
 72
8
 73
4
 74
0
 40
0
 40
0
 40
0
 40
0
 40
1
 40
1
 40
1
 40
1
 10
383.018050
 20
148.688759
 30
0.0
 10
383.018050
 20
149.194776
 30
0.0
 10
383.428257
 20
149.604983
 30
0.0
 10
383.934274
 20
149.604983
 30
0.0
  0
SPLINE
  5
2dc
100
AcDbEntity
  8
Layer_1
 62
1
100
AcDbSpline
 70
8
 71
3
 72
8
 73
4
 74
0
 40
0
 40
0
 40
0
 40
0
 40
1
 40
1
 40
1
 40
1
 10
383.934274
 20
149.604983
 30
0.0
 10
384.440291
 20
149.604983
 30
0.0
 10
384.850498
 20
149.194776
 30
0.0
 10
384.850498
 20
148.688759
 30
0.0
  0
LWPOLYLINE
  5
2dd
100
AcDbEntity
  8
Layer_1
 62
1
100
AcDbPolyline
 90
1
 70
1
 10
369.868659
 20
73.448107
 30
0.0
  0
LWPOLYLINE
  5
2de
100
AcDbEntity
  8
Layer_1
 62
1
100
AcDbPolyline
 90
1
 70
1
 10
384.850498
 20
148.688759
 30
0.0
  0
LWPOLYLINE
  5
2df
100
AcDbEntity
  8
Layer_1
 62
7
100
AcDbPolyline
 90
3
 70
0
 10
586.499981
 20
268.500019
 30
0.0
 10
586.499981
 20
304.539477
 30
0.0
 10
547.209666
 20
304.539477
 30
0.0
  0
LWPOLYLINE
  5
2e0
100
AcDbEntity
  8
Layer_1
 62
7
100
AcDbPolyline
 90
3
 70
0
 10
586.499981
 20
261.000028
 30
0.0
 10
586.499981
 20
228.702274
 30
0.0
 10
546.679332
 20
228.702274
 30
0.0
  0
LWPOLYLINE
  5
2e1
100
AcDbEntity
  8
Layer_1
 62
7
100
AcDbPolyline
 90
3
 70
0
 10
586.500009
 20
110.999991
 30
0.0
 10
586.500009
 20
155.251559
 30
0.0
 10
546.679332
 20
155.251559
 30
0.0
  0
LWPOLYLINE
  5
2e2
100
AcDbEntity
  8
Layer_1
 62
7
100
AcDbPolyline
 90
3
 70
0
 10
586.500009
 20
103.500000
 30
0.0
 10
586.500009
 20
76.497562
 30
0.0
 10
546.944513
 20
76.497562
 30
0.0
  0
LWPOLYLINE
  5
2e3
100
AcDbEntity
  8
Layer_1
 62
3
100
AcDbPolyline
 90
4
 70
1
 10
410.999953
 20
285.000009
 30
0.0
 10
441.749954
 20
285.000009
 30
0.0
 10
441.749954
 20
89.250004
 30
0.0
 10
410.999953
 20
89.250004
 30
0.0
  0
LWPOLYLINE
  5
2e4
100
AcDbEntity
  8
Layer_1
 62
7
100
AcDbPolyline
 90
4
 70
1
 10
276.065189
 20
341.014110
 30
0.0
 10
309.375006
 20
341.014110
 30
0.0
 10
309.375006
 20
330.187526
 30
0.0
 10
276.065189
 20
330.187526
 30
0.0
  0
LWPOLYLINE
  5
2e5
100
AcDbEntity
  8
Layer_1
 62
7
100
AcDbPolyline
 90
4
 70
1
 10
163.780061
 20
283.239213
 30
0.0
 10
172.530507
 20
283.239213
 30
0.0
 10
172.530507
 20
269.848378
 30
0.0
 10
163.780061
 20
269.848378
 30
0.0
  0
LWPOLYLINE
  5
2e6
100
AcDbEntity
  8
Layer_1
 62
7
100
AcDbPolyline
 90
4
 70
0
 10
211.312500
 20
184.687483
 30
0.0
 10
179.956071
 20
184.687483
 30
0.0
 10
179.956071
 20
482.999981
 30
0.0
 10
192.749998
 20
482.999981
 30
0.0
  0
LWPOLYLINE
  5
2e7
100
AcDbEntity
  8
Layer_1
 62
7
100
AcDbPolyline
 90
4
 70
0
 10
233.624999
 20
180.562507
 30
0.0
 10
175.448265
 20
180.562507
 30
0.0
 10
175.448265
 20
487.238202
 30
0.0
 10
192.683999
 20
487.238202
 30
0.0
  0
LWPOLYLINE
  5
2e8
100
AcDbEntity
  8
Layer_1
 62
1
100
AcDbPolyline
 90
4
 70
1
 10
190.978455
 20
503.586765
 30
0.0
 10
250.415274
 20
503.586765
 30
0.0
 10
250.415274
 20
476.154385
 30
0.0
 10
190.978455
 20
476.154385
 30
0.0
  0
LWPOLYLINE
  5
2e9
100
AcDbEntity
  8
Layer_1
 62
1
100
AcDbPolyline
 90
4
 70
1
 10
192.121489
 20
501.300709
 30
0.0
 10
198.979584
 20
501.300709
 30
0.0
 10
198.979584
 20
478.440404
 30
0.0
 10
192.121489
 20
478.440404
 30
0.0
  0
SPLINE
  5
2ea
100
AcDbEntity
  8
Layer_1
 62
1
100
AcDbSpline
 70
8
 71
3
 72
8
 73
4
 74
0
 40
0
 40
0
 40
0
 40
0
 40
1
 40
1
 40
1
 40
1
 10
197.265067
 20
498.443187
 30
0.0
 10
197.265067
 20
497.496282
 30
0.0
 10
196.497448
 20
496.728664
 30
0.0
 10
195.550543
 20
496.728664
 30
0.0
  0
SPLINE
  5
2eb
100
AcDbEntity
  8
Layer_1
 62
1
100
AcDbSpline
 70
8
 71
3
 72
8
 73
4
 74
0
 40
0
 40
0
 40
0
 40
0
 40
1
 40
1
 40
1
 40
1
 10
195.550543
 20
496.728664
 30
0.0
 10
194.603638
 20
496.728664
 30
0.0
 10
193.836019
 20
497.496282
 30
0.0
 10
193.836019
 20
498.443187
 30
0.0
  0
SPLINE
  5
2ec
100
AcDbEntity
  8
Layer_1
 62
1
100
AcDbSpline
 70
8
 71
3
 72
8
 73
4
 74
0
 40
0
 40
0
 40
0
 40
0
 40
1
 40
1
 40
1
 40
1
 10
193.836019
 20
498.443187
 30
0.0
 10
193.836019
 20
499.390093
 30
0.0
 10
194.603638
 20
500.157711
 30
0.0
 10
195.550543
 20
500.157711
 30
0.0
  0
SPLINE
  5
2ed
100
AcDbEntity
  8
Layer_1
 62
1
100
AcDbSpline
 70
8
 71
3
 72
8
 73
4
 74
0
 40
0
 40
0
 40
0
 40
0
 40
1
 40
1
 40
1
 40
1
 10
195.550543
 20
500.157711
 30
0.0
 10
196.497448
 20
500.157711
 30
0.0
 10
197.265067
 20
499.390093
 30
0.0
 10
197.265067
 20
498.443187
 30
0.0
  0
LWPOLYLINE
  5
2ee
100
AcDbEntity
  8
Layer_1
 62
1
100
AcDbPolyline
 90
4
 70
1
 10
200.122586
 20
502.443723
 30
0.0
 10
212.695758
 20
502.443723
 30
0.0
 10
212.695758
 20
477.297369
 30
0.0
 10
200.122586
 20
477.297369
 30
0.0
  0
SPLINE
  5
2ef
100
AcDbEntity
  8
Layer_1
 62
1
100
AcDbSpline
 70
8
 71
3
 72
8
 73
4
 74
0
 40
0
 40
0
 40
0
 40
0
 40
1
 40
1
 40
1
 40
1
 10
197.346707
 20
493.544551
 30
0.0
 10
197.346707
 20
492.932011
 30
0.0
 10
197.019921
 20
492.366000
 30
0.0
 10
196.489446
 20
492.059730
 30
0.0
  0
SPLINE
  5
2f0
100
AcDbEntity
  8
Layer_1
 62
1
100
AcDbSpline
 70
8
 71
3
 72
8
 73
4
 74
0
 40
0
 40
0
 40
0
 40
0
 40
1
 40
1
 40
1
 40
1
 10
196.489446
 20
492.059730
 30
0.0
 10
195.958970
 20
491.753460
 30
0.0
 10
195.305397
 20
491.753460
 30
0.0
 10
194.774922
 20
492.059730
 30
0.0
  0
SPLINE
  5
2f1
100
AcDbEntity
  8
Layer_1
 62
1
100
AcDbSpline
 70
8
 71
3
 72
8
 73
4
 74
0
 40
0
 40
0
 40
0
 40
0
 40
1
 40
1
 40
1
 40
1
 10
194.774922
 20
492.059730
 30
0.0
 10
194.244446
 20
492.366000
 30
0.0
 10
193.917660
 20
492.932011
 30
0.0
 10
193.917660
 20
493.544551
 30
0.0
  0
SPLINE
  5
2f2
100
AcDbEntity
  8
Layer_1
 62
1
100
AcDbSpline
 70
8
 71
3
 72
8
 73
4
 74
0
 40
0
 40
0
 40
0
 40
0
 40
1
 40
1
 40
1
 40
1
 10
193.917660
 20
493.544551
 30
0.0
 10
193.917660
 20
494.157092
 30
0.0
 10
194.244446
 20
494.723102
 30
0.0
 10
194.774922
 20
495.029372
 30
0.0
  0
SPLINE
  5
2f3
100
AcDbEntity
  8
Layer_1
 62
1
100
AcDbSpline
 70
8
 71
3
 72
8
 73
4
 74
0
 40
0
 40
0
 40
0
 40
0
 40
1
 40
1
 40
1
 40
1
 10
194.774922
 20
495.029372
 30
0.0
 10
195.305397
 20
495.335642
 30
0.0
 10
195.958970
 20
495.335642
 30
0.0
 10
196.489446
 20
495.029372
 30
0.0
  0
SPLINE
  5
2f4
100
AcDbEntity
  8
Layer_1
 62
1
100
AcDbSpline
 70
8
 71
3
 72
8
 73
4
 74
0
 40
0
 40
0
 40
0
 40
0
 40
1
 40
1
 40
1
 40
1
 10
196.489446
 20
495.029372
 30
0.0
 10
197.019921
 20
494.723102
 30
0.0
 10
197.346707
 20
494.157092
 30
0.0
 10
197.346707
 20
493.544551
 30
0.0
  0
LWPOLYLINE
  5
2f5
100
AcDbEntity
  8
Layer_1
 62
1
100
AcDbPolyline
 90
1
 70
1
 10
197.265067
 20
498.443187
 30
0.0
  0
SPLINE
  5
2f6
100
AcDbEntity
  8
Layer_1
 62
1
100
AcDbSpline
 70
8
 71
3
 72
8
 73
4
 74
0
 40
0
 40
0
 40
0
 40
0
 40
1
 40
1
 40
1
 40
1
 10
197.469178
 20
487.462082
 30
0.0
 10
197.469178
 20
486.849542
 30
0.0
 10
197.142392
 20
486.283531
 30
0.0
 10
196.611916
 20
485.977261
 30
0.0
  0
SPLINE
  5
2f7
100
AcDbEntity
  8
Layer_1
 62
1
100
AcDbSpline
 70
8
 71
3
 72
8
 73
4
 74
0
 40
0
 40
0
 40
0
 40
0
 40
1
 40
1
 40
1
 40
1
 10
196.611916
 20
485.977261
 30
0.0
 10
196.081441
 20
485.670991
 30
0.0
 10
195.427868
 20
485.670991
 30
0.0
 10
194.897393
 20
485.977261
 30
0.0
  0
SPLINE
  5
2f8
100
AcDbEntity
  8
Layer_1
 62
1
100
AcDbSpline
 70
8
 71
3
 72
8
 73
4
 74
0
 40
0
 40
0
 40
0
 40
0
 40
1
 40
1
 40
1
 40
1
 10
194.897393
 20
485.977261
 30
0.0
 10
194.366917
 20
486.283531
 30
0.0
 10
194.040131
 20
486.849542
 30
0.0
 10
194.040131
 20
487.462082
 30
0.0
  0
SPLINE
  5
2f9
100
AcDbEntity
  8
Layer_1
 62
1
100
AcDbSpline
 70
8
 71
3
 72
8
 73
4
 74
0
 40
0
 40
0
 40
0
 40
0
 40
1
 40
1
 40
1
 40
1
 10
194.040131
 20
487.462082
 30
0.0
 10
194.040131
 20
488.074622
 30
0.0
 10
194.366917
 20
488.640633
 30
0.0
 10
194.897393
 20
488.946903
 30
0.0
  0
SPLINE
  5
2fa
100
AcDbEntity
  8
Layer_1
 62
1
100
AcDbSpline
 70
8
 71
3
 72
8
 73
4
 74
0
 40
0
 40
0
 40
0
 40
0
 40
1
 40
1
 40
1
 40
1
 10
194.897393
 20
488.946903
 30
0.0
 10
195.427868
 20
489.253173
 30
0.0
 10
196.081441
 20
489.253173
 30
0.0
 10
196.611916
 20
488.946903
 30
0.0
  0
SPLINE
  5
2fb
100
AcDbEntity
  8
Layer_1
 62
1
100
AcDbSpline
 70
8
 71
3
 72
8
 73
4
 74
0
 40
0
 40
0
 40
0
 40
0
 40
1
 40
1
 40
1
 40
1
 10
196.611916
 20
488.946903
 30
0.0
 10
197.142392
 20
488.640633
 30
0.0
 10
197.469178
 20
488.074622
 30
0.0
 10
197.469178
 20
487.462082
 30
0.0
  0
LWPOLYLINE
  5
2fc
100
AcDbEntity
  8
Layer_1
 62
1
100
AcDbPolyline
 90
1
 70
1
 10
197.346707
 20
493.544551
 30
0.0
  0
SPLINE
  5
2fd
100
AcDbEntity
  8
Layer_1
 62
1
100
AcDbSpline
 70
8
 71
3
 72
8
 73
4
 74
0
 40
0
 40
0
 40
0
 40
0
 40
1
 40
1
 40
1
 40
1
 10
197.550819
 20
482.563446
 30
0.0
 10
197.550819
 20
481.950905
 30
0.0
 10
197.224032
 20
481.384895
 30
0.0
 10
196.693557
 20
481.078625
 30
0.0
  0
SPLINE
  5
2fe
100
AcDbEntity
  8
Layer_1
 62
1
100
AcDbSpline
 70
8
 71
3
 72
8
 73
4
 74
0
 40
0
 40
0
 40
0
 40
0
 40
1
 40
1
 40
1
 40
1
 10
196.693557
 20
481.078625
 30
0.0
 10
196.163082
 20
480.772354
 30
0.0
 10
195.509509
 20
480.772354
 30
0.0
 10
194.979033
 20
481.078625
 30
0.0
  0
SPLINE
  5
2ff
100
AcDbEntity
  8
Layer_1
 62
1
100
AcDbSpline
 70
8
 71
3
 72
8
 73
4
 74
0
 40
0
 40
0
 40
0
 40
0
 40
1
 40
1
 40
1
 40
1
 10
194.979033
 20
481.078625
 30
0.0
 10
194.448558
 20
481.384895
 30
0.0
 10
194.121771
 20
481.950905
 30
0.0
 10
194.121771
 20
482.563446
 30
0.0
  0
SPLINE
  5
300
100
AcDbEntity
  8
Layer_1
 62
1
100
AcDbSpline
 70
8
 71
3
 72
8
 73
4
 74
0
 40
0
 40
0
 40
0
 40
0
 40
1
 40
1
 40
1
 40
1
 10
194.121771
 20
482.563446
 30
0.0
 10
194.121771
 20
483.175986
 30
0.0
 10
194.448558
 20
483.741997
 30
0.0
 10
194.979033
 20
484.048267
 30
0.0
  0
SPLINE
  5
301
100
AcDbEntity
  8
Layer_1
 62
1
100
AcDbSpline
 70
8
 71
3
 72
8
 73
4
 74
0
 40
0
 40
0
 40
0
 40
0
 40
1
 40
1
 40
1
 40
1
 10
194.979033
 20
484.048267
 30
0.0
 10
195.509509
 20
484.354537
 30
0.0
 10
196.163082
 20
484.354537
 30
0.0
 10
196.693557
 20
484.048267
 30
0.0
  0
SPLINE
  5
302
100
AcDbEntity
  8
Layer_1
 62
1
100
AcDbSpline
 70
8
 71
3
 72
8
 73
4
 74
0
 40
0
 40
0
 40
0
 40
0
 40
1
 40
1
 40
1
 40
1
 10
196.693557
 20
484.048267
 30
0.0
 10
197.224032
 20
483.741997
 30
0.0
 10
197.550819
 20
483.175986
 30
0.0
 10
197.550819
 20
482.563446
 30
0.0
  0
LWPOLYLINE
  5
303
100
AcDbEntity
  8
Layer_1
 62
1
100
AcDbPolyline
 90
1
 70
1
 10
197.469178
 20
487.462082
 30
0.0
  0
LWPOLYLINE
  5
304
100
AcDbEntity
  8
Layer_1
 62
1
100
AcDbPolyline
 90
1
 70
1
 10
197.550819
 20
482.563446
 30
0.0
  0
LWPOLYLINE
  5
305
100
AcDbEntity
  8
Layer_1
 62
7
100
AcDbPolyline
 90
3
 70
0
 10
170.874170
 20
281.271260
 30
0.0
 10
170.874170
 20
493.469575
 30
0.0
 10
191.623334
 20
493.469575
 30
0.0
  0
LWPOLYLINE
  5
306
100
AcDbEntity
  8
Layer_1
 62
7
100
AcDbPolyline
 90
3
 70
0
 10
165.890625
 20
281.437483
 30
0.0
 10
165.890625
 20
498.843751
 30
0.0
 10
190.968749
 20
498.843751
 30
0.0
  0
LWPOLYLINE
  5
307
100
AcDbEntity
  8
Layer_1
 62
1
100
AcDbPolyline
 90
4
 70
1
 10
242.463419
 20
495.380013
 30
0.0
 10
249.039696
 20
495.380013
 30
0.0
 10
249.039696
 20
485.515590
 30
0.0
 10
242.463419
 20
485.515590
 30
0.0
  0
LWPOLYLINE
  5
308
100
AcDbEntity
  8
Layer_1
 62
1
100
AcDbPolyline
 90
4
 70
1
 10
276.440800
 20
498.668145
 30
0.0
 10
290.689398
 20
498.668145
 30
0.0
 10
290.689398
 20
481.131408
 30
0.0
 10
276.440800
 20
481.131408
 30
0.0
  0
LWPOLYLINE
  5
309
100
AcDbEntity
  8
Layer_1
 62
7
100
AcDbPolyline
 90
2
 70
0
 10
247.943642
 20
494.283940
 30
0.0
 10
277.536886
 20
494.283940
 30
0.0
  0
LWPOLYLINE
  5
30a
100
AcDbEntity
  8
Layer_1
 62
1
100
AcDbPolyline
 90
2
 70
0
 10
247.943642
 20
492.091852
 30
0.0
 10
277.536886
 20
492.091852
 30
0.0
  0
LWPOLYLINE
  5
30b
100
AcDbEntity
  8
Layer_1
 62
3
100
AcDbPolyline
 90
2
 70
0
 10
247.943642
 20
488.803691
 30
0.0
 10
277.536886
 20
488.803691
 30
0.0
  0
LWPOLYLINE
  5
30c
100
AcDbEntity
  8
Layer_1
 62
1
100
AcDbPolyline
 90
2
 70
0
 10
247.943642
 20
486.611603
 30
0.0
 10
277.536886
 20
486.611603
 30
0.0
  0
LWPOLYLINE
  5
30d
100
AcDbEntity
  8
Layer_1
 62
3
100
AcDbPolyline
 90
5
 70
0
 10
297.265720
 20
545.798126
 30
0.0
 10
297.265720
 20
554.566507
 30
0.0
 10
344.395701
 20
554.566507
 30
0.0
 10
344.395701
 20
488.803691
 30
0.0
 10
289.593411
 20
488.803691
 30
0.0
  0
LWPOLYLINE
  5
30e
100
AcDbEntity
  8
Layer_1
 62
7
100
AcDbPolyline
 90
5
 70
0
 10
289.593411
 20
494.283940
 30
0.0
 10
293.977587
 20
494.283940
 30
0.0
 10
293.977587
 20
500.860233
 30
0.0
 10
274.248754
 20
500.860233
 30
0.0
 10
274.248754
 20
494.283940
 30
0.0
  0
SPLINE
  5
30f
100
AcDbEntity
  8
Layer_1
 62
7
100
AcDbSpline
 70
8
 71
3
 72
8
 73
4
 74
0
 40
0
 40
0
 40
0
 40
0
 40
1
 40
1
 40
1
 40
1
 10
279.180942
 20
500.938469
 30
0.0
 10
279.180942
 20
500.635805
 30
0.0
 10
278.935584
 20
500.390446
 30
0.0
 10
278.632919
 20
500.390446
 30
0.0
  0
SPLINE
  5
310
100
AcDbEntity
  8
Layer_1
 62
7
100
AcDbSpline
 70
8
 71
3
 72
8
 73
4
 74
0
 40
0
 40
0
 40
0
 40
0
 40
1
 40
1
 40
1
 40
1
 10
278.632919
 20
500.390446
 30
0.0
 10
278.330254
 20
500.390446
 30
0.0
 10
278.084896
 20
500.635805
 30
0.0
 10
278.084896
 20
500.938469
 30
0.0
  0
SPLINE
  5
311
100
AcDbEntity
  8
Layer_1
 62
7
100
AcDbSpline
 70
8
 71
3
 72
8
 73
4
 74
0
 40
0
 40
0
 40
0
 40
0
 40
1
 40
1
 40
1
 40
1
 10
278.084896
 20
500.938469
 30
0.0
 10
278.084896
 20
501.134259
 30
0.0
 10
278.189349
 20
501.315176
 30
0.0
 10
278.358908
 20
501.413071
 30
0.0
  0
SPLINE
  5
312
100
AcDbEntity
  8
Layer_1
 62
7
100
AcDbSpline
 70
8
 71
3
 72
8
 73
4
 74
0
 40
0
 40
0
 40
0
 40
0
 40
1
 40
1
 40
1
 40
1
 10
278.358908
 20
501.413071
 30
0.0
 10
278.528466
 20
501.510966
 30
0.0
 10
278.737372
 20
501.510966
 30
0.0
 10
278.906931
 20
501.413071
 30
0.0
  0
SPLINE
  5
313
100
AcDbEntity
  8
Layer_1
 62
7
100
AcDbSpline
 70
8
 71
3
 72
8
 73
4
 74
0
 40
0
 40
0
 40
0
 40
0
 40
1
 40
1
 40
1
 40
1
 10
278.906931
 20
501.413071
 30
0.0
 10
279.076489
 20
501.315176
 30
0.0
 10
279.180942
 20
501.134259
 30
0.0
 10
279.180942
 20
500.938469
 30
0.0
  0
LWPOLYLINE
  5
314
100
AcDbEntity
  8
Layer_1
 62
7
100
AcDbPolyline
 90
2
 70
0
 10
278.632930
 20
511.820674
 30
0.0
 10
278.632930
 20
500.860233
 30
0.0
  0
SPLINE
  5
315
100
AcDbEntity
  8
Layer_1
 62
7
100
AcDbSpline
 70
8
 71
3
 72
8
 73
4
 74
0
 40
0
 40
0
 40
0
 40
0
 40
1
 40
1
 40
1
 40
1
 10
274.796769
 20
494.362233
 30
0.0
 10
274.796769
 20
494.166443
 30
0.0
 10
274.692316
 20
493.985526
 30
0.0
 10
274.522757
 20
493.887631
 30
0.0
  0
SPLINE
  5
316
100
AcDbEntity
  8
Layer_1
 62
7
100
AcDbSpline
 70
8
 71
3
 72
8
 73
4
 74
0
 40
0
 40
0
 40
0
 40
0
 40
1
 40
1
 40
1
 40
1
 10
274.522757
 20
493.887631
 30
0.0
 10
274.353198
 20
493.789736
 30
0.0
 10
274.144293
 20
493.789736
 30
0.0
 10
273.974734
 20
493.887631
 30
0.0
  0
SPLINE
  5
317
100
AcDbEntity
  8
Layer_1
 62
7
100
AcDbSpline
 70
8
 71
3
 72
8
 73
4
 74
0
 40
0
 40
0
 40
0
 40
0
 40
1
 40
1
 40
1
 40
1
 10
273.974734
 20
493.887631
 30
0.0
 10
273.805175
 20
493.985526
 30
0.0
 10
273.700722
 20
494.166443
 30
0.0
 10
273.700722
 20
494.362233
 30
0.0
  0
SPLINE
  5
318
100
AcDbEntity
  8
Layer_1
 62
7
100
AcDbSpline
 70
8
 71
3
 72
8
 73
4
 74
0
 40
0
 40
0
 40
0
 40
0
 40
1
 40
1
 40
1
 40
1
 10
273.700722
 20
494.362233
 30
0.0
 10
273.700722
 20
494.558023
 30
0.0
 10
273.805175
 20
494.738940
 30
0.0
 10
273.974734
 20
494.836835
 30
0.0
  0
SPLINE
  5
319
100
AcDbEntity
  8
Layer_1
 62
7
100
AcDbSpline
 70
8
 71
3
 72
8
 73
4
 74
0
 40
0
 40
0
 40
0
 40
0
 40
1
 40
1
 40
1
 40
1
 10
273.974734
 20
494.836835
 30
0.0
 10
274.144293
 20
494.934730
 30
0.0
 10
274.353198
 20
494.934730
 30
0.0
 10
274.522757
 20
494.836835
 30
0.0
  0
SPLINE
  5
31a
100
AcDbEntity
  8
Layer_1
 62
7
100
AcDbSpline
 70
8
 71
3
 72
8
 73
4
 74
0
 40
0
 40
0
 40
0
 40
0
 40
1
 40
1
 40
1
 40
1
 10
274.522757
 20
494.836835
 30
0.0
 10
274.692316
 20
494.738940
 30
0.0
 10
274.796769
 20
494.558023
 30
0.0
 10
274.796769
 20
494.362233
 30
0.0
  0
LWPOLYLINE
  5
31b
100
AcDbEntity
  8
Layer_1
 62
7
100
AcDbPolyline
 90
1
 70
1
 10
279.180942
 20
500.938469
 30
0.0
  0
LWPOLYLINE
  5
31c
100
AcDbEntity
  8
Layer_1
 62
7
100
AcDbPolyline
 90
1
 70
1
 10
274.796769
 20
494.362233
 30
0.0
  0
SPLINE
  5
31d
100
AcDbEntity
  8
Layer_1
 62
1
100
AcDbSpline
 70
8
 71
3
 72
8
 73
4
 74
0
 40
0
 40
0
 40
0
 40
0
 40
1
 40
1
 40
1
 40
1
 10
263.836262
 20
486.650750
 30
0.0
 10
263.836262
 20
486.348085
 30
0.0
 10
263.590904
 20
486.102727
 30
0.0
 10
263.288239
 20
486.102727
 30
0.0
  0
SPLINE
  5
31e
100
AcDbEntity
  8
Layer_1
 62
1
100
AcDbSpline
 70
8
 71
3
 72
8
 73
4
 74
0
 40
0
 40
0
 40
0
 40
0
 40
1
 40
1
 40
1
 40
1
 10
263.288239
 20
486.102727
 30
0.0
 10
262.985575
 20
486.102727
 30
0.0
 10
262.740216
 20
486.348085
 30
0.0
 10
262.740216
 20
486.650750
 30
0.0
  0
SPLINE
  5
31f
100
AcDbEntity
  8
Layer_1
 62
1
100
AcDbSpline
 70
8
 71
3
 72
8
 73
4
 74
0
 40
0
 40
0
 40
0
 40
0
 40
1
 40
1
 40
1
 40
1
 10
262.740216
 20
486.650750
 30
0.0
 10
262.740216
 20
486.846539
 30
0.0
 10
262.844669
 20
487.027457
 30
0.0
 10
263.014228
 20
487.125351
 30
0.0
  0
SPLINE
  5
320
100
AcDbEntity
  8
Layer_1
 62
1
100
AcDbSpline
 70
8
 71
3
 72
8
 73
4
 74
0
 40
0
 40
0
 40
0
 40
0
 40
1
 40
1
 40
1
 40
1
 10
263.014228
 20
487.125351
 30
0.0
 10
263.183787
 20
487.223246
 30
0.0
 10
263.392692
 20
487.223246
 30
0.0
 10
263.562251
 20
487.125351
 30
0.0
  0
SPLINE
  5
321
100
AcDbEntity
  8
Layer_1
 62
1
100
AcDbSpline
 70
8
 71
3
 72
8
 73
4
 74
0
 40
0
 40
0
 40
0
 40
0
 40
1
 40
1
 40
1
 40
1
 10
263.562251
 20
487.125351
 30
0.0
 10
263.731810
 20
487.027457
 30
0.0
 10
263.836262
 20
486.846539
 30
0.0
 10
263.836262
 20
486.650750
 30
0.0
  0
LWPOLYLINE
  5
322
100
AcDbEntity
  8
Layer_1
 62
1
100
AcDbPolyline
 90
2
 70
0
 10
263.288285
 20
486.611603
 30
0.0
 10
263.288285
 20
482.227427
 30
0.0
  0
SPLINE
  5
323
100
AcDbEntity
  8
Layer_1
 62
1
100
AcDbSpline
 70
8
 71
3
 72
8
 73
4
 74
0
 40
0
 40
0
 40
0
 40
0
 40
1
 40
1
 40
1
 40
1
 10
263.914595
 20
482.266602
 30
0.0
 10
263.914595
 20
482.070812
 30
0.0
 10
263.810142
 20
481.889895
 30
0.0
 10
263.640583
 20
481.792000
 30
0.0
  0
SPLINE
  5
324
100
AcDbEntity
  8
Layer_1
 62
1
100
AcDbSpline
 70
8
 71
3
 72
8
 73
4
 74
0
 40
0
 40
0
 40
0
 40
0
 40
1
 40
1
 40
1
 40
1
 10
263.640583
 20
481.792000
 30
0.0
 10
263.471025
 20
481.694105
 30
0.0
 10
263.262119
 20
481.694105
 30
0.0
 10
263.092560
 20
481.792000
 30
0.0
  0
SPLINE
  5
325
100
AcDbEntity
  8
Layer_1
 62
1
100
AcDbSpline
 70
8
 71
3
 72
8
 73
4
 74
0
 40
0
 40
0
 40
0
 40
0
 40
1
 40
1
 40
1
 40
1
 10
263.092560
 20
481.792000
 30
0.0
 10
262.923002
 20
481.889895
 30
0.0
 10
262.818549
 20
482.070812
 30
0.0
 10
262.818549
 20
482.266602
 30
0.0
  0
SPLINE
  5
326
100
AcDbEntity
  8
Layer_1
 62
1
100
AcDbSpline
 70
8
 71
3
 72
8
 73
4
 74
0
 40
0
 40
0
 40
0
 40
0
 40
1
 40
1
 40
1
 40
1
 10
262.818549
 20
482.266602
 30
0.0
 10
262.818549
 20
482.462391
 30
0.0
 10
262.923002
 20
482.643309
 30
0.0
 10
263.092560
 20
482.741203
 30
0.0
  0
SPLINE
  5
327
100
AcDbEntity
  8
Layer_1
 62
1
100
AcDbSpline
 70
8
 71
3
 72
8
 73
4
 74
0
 40
0
 40
0
 40
0
 40
0
 40
1
 40
1
 40
1
 40
1
 10
263.092560
 20
482.741203
 30
0.0
 10
263.262119
 20
482.839098
 30
0.0
 10
263.471025
 20
482.839098
 30
0.0
 10
263.640583
 20
482.741203
 30
0.0
  0
SPLINE
  5
328
100
AcDbEntity
  8
Layer_1
 62
1
100
AcDbSpline
 70
8
 71
3
 72
8
 73
4
 74
0
 40
0
 40
0
 40
0
 40
0
 40
1
 40
1
 40
1
 40
1
 10
263.640583
 20
482.741203
 30
0.0
 10
263.810142
 20
482.643309
 30
0.0
 10
263.914595
 20
482.462391
 30
0.0
 10
263.914595
 20
482.266602
 30
0.0
  0
LWPOLYLINE
  5
329
100
AcDbEntity
  8
Layer_1
 62
1
100
AcDbPolyline
 90
1
 70
1
 10
263.836262
 20
486.650750
 30
0.0
  0
LWPOLYLINE
  5
32a
100
AcDbEntity
  8
Layer_1
 62
1
100
AcDbPolyline
 90
1
 70
1
 10
263.914595
 20
482.266602
 30
0.0
  0
LWPOLYLINE
  5
32b
100
AcDbEntity
  8
Layer_1
 62
1
100
AcDbPolyline
 90
3
 70
0
 10
305.470148
 20
511.820674
 30
0.0
 10
305.470148
 20
486.611603
 30
0.0
 10
289.593411
 20
486.611603
 30
0.0
  0
LWPOLYLINE
  5
32c
100
AcDbEntity
  8
Layer_1
 62
1
100
AcDbPolyline
 90
5
 70
0
 10
289.828120
 20
491.718756
 30
0.0
 10
335.566375
 20
491.718756
 30
0.0
 10
335.566375
 20
549.819723
 30
0.0
 10
299.624995
 20
549.819723
 30
0.0
 10
299.624995
 20
544.500000
 30
0.0
  0
LWPOLYLINE
  5
32d
100
AcDbEntity
  8
Layer_1
 62
7
100
AcDbPolyline
 90
3
 70
0
 10
366.988422
 20
527.280690
 30
0.0
 10
366.988422
 20
543.455745
 30
0.0
 10
527.545843
 20
543.455745
 30
0.0
  0
LWPOLYLINE
  5
32e
100
AcDbEntity
  8
Layer_1
 62
7
100
AcDbPolyline
 90
3
 70
0
 10
364.204176
 20
527.280690
 30
0.0
 10
364.204176
 20
548.493902
 30
0.0
 10
526.874995
 20
548.493902
 30
0.0
  0
LWPOLYLINE
  5
32f
100
AcDbEntity
  8
Layer_1
 62
7
100
AcDbPolyline
 90
4
 70
0
 10
369.706365
 20
527.346992
 30
0.0
 10
369.706365
 20
557.376917
 30
0.0
 10
294.068041
 20
557.376917
 30
0.0
 10
294.068041
 20
544.687512
 30
0.0
  0
LWPOLYLINE
  5
330
100
AcDbEntity
  8
Layer_1
 62
7
100
AcDbPolyline
 90
2
 70
0
 10
369.706365
 20
557.376917
 30
0.0
 10
527.531244
 20
557.376917
 30
0.0
  0
LWPOLYLINE
  5
331
100
AcDbEntity
  8
Layer_1
 62
7
100
AcDbPolyline
 90
6
 70
0
 10
280.283675
 20
337.289953
 30
0.0
 10
280.283675
 20
354.393071
 30
0.0
 10
294.898224
 20
354.393071
 30
0.0
 10
294.898224
 20
473.812498
 30
0.0
 10
363.558274
 20
473.812498
 30
0.0
 10
363.558274
 20
509.812498
 30
0.0
  0
SPLINE
  5
332
100
AcDbEntity
  8
Layer_1
 62
1
100
AcDbSpline
 70
8
 71
3
 72
8
 73
4
 74
0
 40
0
 40
0
 40
0
 40
0
 40
1
 40
1
 40
1
 40
1
 10
500.360757
 20
572.226165
 30
0.0
 10
500.360757
 20
571.470325
 30
0.0
 10
499.957521
 20
570.771899
 30
0.0
 10
499.302944
 20
570.393979
 30
0.0
  0
SPLINE
  5
333
100
AcDbEntity
  8
Layer_1
 62
1
100
AcDbSpline
 70
8
 71
3
 72
8
 73
4
 74
0
 40
0
 40
0
 40
0
 40
0
 40
1
 40
1
 40
1
 40
1
 10
499.302944
 20
570.393979
 30
0.0
 10
498.648367
 20
570.016059
 30
0.0
 10
497.841895
 20
570.016059
 30
0.0
 10
497.187317
 20
570.393979
 30
0.0
  0
SPLINE
  5
334
100
AcDbEntity
  8
Layer_1
 62
1
100
AcDbSpline
 70
8
 71
3
 72
8
 73
4
 74
0
 40
0
 40
0
 40
0
 40
0
 40
1
 40
1
 40
1
 40
1
 10
497.187317
 20
570.393979
 30
0.0
 10
496.532740
 20
570.771899
 30
0.0
 10
496.129504
 20
571.470325
 30
0.0
 10
496.129504
 20
572.226165
 30
0.0
  0
SPLINE
  5
335
100
AcDbEntity
  8
Layer_1
 62
1
100
AcDbSpline
 70
8
 71
3
 72
8
 73
4
 74
0
 40
0
 40
0
 40
0
 40
0
 40
1
 40
1
 40
1
 40
1
 10
496.129504
 20
572.226165
 30
0.0
 10
496.129504
 20
572.982006
 30
0.0
 10
496.532740
 20
573.680431
 30
0.0
 10
497.187317
 20
574.058352
 30
0.0
  0
SPLINE
  5
336
100
AcDbEntity
  8
Layer_1
 62
1
100
AcDbSpline
 70
8
 71
3
 72
8
 73
4
 74
0
 40
0
 40
0
 40
0
 40
0
 40
1
 40
1
 40
1
 40
1
 10
497.187317
 20
574.058352
 30
0.0
 10
497.841895
 20
574.436272
 30
0.0
 10
498.648367
 20
574.436272
 30
0.0
 10
499.302944
 20
574.058352
 30
0.0
  0
SPLINE
  5
337
100
AcDbEntity
  8
Layer_1
 62
1
100
AcDbSpline
 70
8
 71
3
 72
8
 73
4
 74
0
 40
0
 40
0
 40
0
 40
0
 40
1
 40
1
 40
1
 40
1
 10
499.302944
 20
574.058352
 30
0.0
 10
499.957521
 20
573.680431
 30
0.0
 10
500.360757
 20
572.982006
 30
0.0
 10
500.360757
 20
572.226165
 30
0.0
  0
LWPOLYLINE
  5
338
100
AcDbEntity
  8
Layer_1
 62
7
100
AcDbPolyline
 90
4
 70
0
 10
367.781244
 20
509.812498
 30
0.0
 10
367.781244
 20
470.062488
 30
0.0
 10
300.937493
 20
470.062488
 30
0.0
 10
300.937493
 20
337.024772
 30
0.0
  0
LWPOLYLINE
  5
339
100
AcDbEntity
  8
Layer_1
 62
1
100
AcDbPolyline
 90
1
 70
1
 10
500.360757
 20
572.226165
 30
0.0
  0
LWPOLYLINE
  5
33a
100
AcDbEntity
  8
Layer_1
 62
7
100
AcDbPolyline
 90
3
 70
0
 10
498.245102
 20
571.828416
 30
0.0
 10
498.245102
 20
552.736545
 30
0.0
 10
527.678419
 20
552.736545
 30
0.0
  0
LWPOLYLINE
  5
33b
100
AcDbEntity
  8
Layer_1
 62
3
100
AcDbPolyline
 90
4
 70
1
 10
342.562479
 20
440.437493
 30
0.0
 10
354.374978
 20
440.437493
 30
0.0
 10
354.374978
 20
413.249994
 30
0.0
 10
342.562479
 20
413.249994
 30
0.0
  0
LWPOLYLINE
  5
33c
100
AcDbEntity
  8
Layer_1
 62
3
100
AcDbPolyline
 90
4
 70
1
 10
343.031244
 20
404.531263
 30
0.0
 10
354.843743
 20
404.531263
 30
0.0
 10
354.843743
 20
377.343764
 30
0.0
 10
343.031244
 20
377.343764
 30
0.0
  0
LWPOLYLINE
  5
33d
100
AcDbEntity
  8
Layer_1
 62
7
100
AcDbPolyline
 90
2
 70
0
 10
348.187493
 20
440.343751
 30
0.0
 10
348.187493
 20
444.656239
 30
0.0
  0
LWPOLYLINE
  5
33e
100
AcDbEntity
  8
Layer_1
 62
7
100
AcDbPolyline
 90
2
 70
0
 10
348.187493
 20
413.343751
 30
0.0
 10
348.187493
 20
404.531263
 30
0.0
  0
LWPOLYLINE
  5
33f
100
AcDbEntity
  8
Layer_1
 62
1
100
AcDbPolyline
 90
3
 70
0
 10
349.124995
 20
377.156239
 30
0.0
 10
349.124995
 20
366.750000
 30
0.0
 10
309.182428
 20
366.750000
 30
0.0
  0
SPLINE
  5
340
100
AcDbEntity
  8
Layer_1
 62
1
100
AcDbSpline
 70
8
 71
3
 72
8
 73
4
 74
0
 40
0
 40
0
 40
0
 40
0
 40
1
 40
1
 40
1
 40
1
 10
348.945346
 20
408.155329
 30
0.0
 10
348.945345
 20
407.649312
 30
0.0
 10
348.535138
 20
407.239105
 30
0.0
 10
348.029121
 20
407.239105
 30
0.0
  0
SPLINE
  5
341
100
AcDbEntity
  8
Layer_1
 62
1
100
AcDbSpline
 70
8
 71
3
 72
8
 73
4
 74
0
 40
0
 40
0
 40
0
 40
0
 40
1
 40
1
 40
1
 40
1
 10
348.029121
 20
407.239105
 30
0.0
 10
347.523105
 20
407.239105
 30
0.0
 10
347.112897
 20
407.649312
 30
0.0
 10
347.112897
 20
408.155329
 30
0.0
  0
SPLINE
  5
342
100
AcDbEntity
  8
Layer_1
 62
1
100
AcDbSpline
 70
8
 71
3
 72
8
 73
4
 74
0
 40
0
 40
0
 40
0
 40
0
 40
1
 40
1
 40
1
 40
1
 10
347.112897
 20
408.155329
 30
0.0
 10
347.112897
 20
408.661346
 30
0.0
 10
347.523105
 20
409.071553
 30
0.0
 10
348.029121
 20
409.071553
 30
0.0
  0
SPLINE
  5
343
100
AcDbEntity
  8
Layer_1
 62
1
100
AcDbSpline
 70
8
 71
3
 72
8
 73
4
 74
0
 40
0
 40
0
 40
0
 40
0
 40
1
 40
1
 40
1
 40
1
 10
348.029121
 20
409.071553
 30
0.0
 10
348.535138
 20
409.071553
 30
0.0
 10
348.945345
 20
408.661346
 30
0.0
 10
348.945346
 20
408.155329
 30
0.0
  0
LWPOLYLINE
  5
344
100
AcDbEntity
  8
Layer_1
 62
7
100
AcDbPolyline
 90
5
 70
0
 10
275.531247
 20
511.687502
 30
0.0
 10
275.531247
 20
506.437512
 30
0.0
 10
327.478819
 20
506.437512
 30
0.0
 10
327.478819
 20
408.088998
 30
0.0
 10
348.161698
 20
408.088998
 30
0.0
  0
SPLINE
  5
345
100
AcDbEntity
  8
Layer_1
 62
1
100
AcDbSpline
 70
8
 71
3
 72
8
 73
4
 74
0
 40
0
 40
0
 40
0
 40
0
 40
1
 40
1
 40
1
 40
1
 10
349.144224
 20
444.781247
 30
0.0
 10
349.144224
 20
444.453912
 30
0.0
 10
348.969593
 20
444.151441
 30
0.0
 10
348.686112
 20
443.987774
 30
0.0
  0
SPLINE
  5
346
100
AcDbEntity
  8
Layer_1
 62
1
100
AcDbSpline
 70
8
 71
3
 72
8
 73
4
 74
0
 40
0
 40
0
 40
0
 40
0
 40
1
 40
1
 40
1
 40
1
 10
348.686112
 20
443.987774
 30
0.0
 10
348.402631
 20
443.824106
 30
0.0
 10
348.053369
 20
443.824106
 30
0.0
 10
347.769888
 20
443.987774
 30
0.0
  0
SPLINE
  5
347
100
AcDbEntity
  8
Layer_1
 62
1
100
AcDbSpline
 70
8
 71
3
 72
8
 73
4
 74
0
 40
0
 40
0
 40
0
 40
0
 40
1
 40
1
 40
1
 40
1
 10
347.769888
 20
443.987774
 30
0.0
 10
347.486407
 20
444.151441
 30
0.0
 10
347.311776
 20
444.453912
 30
0.0
 10
347.311776
 20
444.781247
 30
0.0
  0
SPLINE
  5
348
100
AcDbEntity
  8
Layer_1
 62
1
100
AcDbSpline
 70
8
 71
3
 72
8
 73
4
 74
0
 40
0
 40
0
 40
0
 40
0
 40
1
 40
1
 40
1
 40
1
 10
347.311776
 20
444.781247
 30
0.0
 10
347.311776
 20
445.287264
 30
0.0
 10
347.721983
 20
445.697471
 30
0.0
 10
348.228000
 20
445.697471
 30
0.0
  0
SPLINE
  5
349
100
AcDbEntity
  8
Layer_1
 62
1
100
AcDbSpline
 70
8
 71
3
 72
8
 73
4
 74
0
 40
0
 40
0
 40
0
 40
0
 40
1
 40
1
 40
1
 40
1
 10
348.228000
 20
445.697471
 30
0.0
 10
348.734017
 20
445.697471
 30
0.0
 10
349.144224
 20
445.287264
 30
0.0
 10
349.144224
 20
444.781247
 30
0.0
  0
LWPOLYLINE
  5
34a
100
AcDbEntity
  8
Layer_1
 62
1
100
AcDbPolyline
 90
1
 70
1
 10
348.945346
 20
408.155329
 30
0.0
  0
SPLINE
  5
34b
100
AcDbEntity
  8
Layer_1
 62
1
100
AcDbSpline
 70
8
 71
3
 72
8
 73
4
 74
0
 40
0
 40
0
 40
0
 40
0
 40
1
 40
1
 40
1
 40
1
 10
309.822445
 20
366.750028
 30
0.0
 10
309.822445
 20
366.422693
 30
0.0
 10
309.647813
 20
366.120223
 30
0.0
 10
309.364333
 20
365.956555
 30
0.0
  0
SPLINE
  5
34c
100
AcDbEntity
  8
Layer_1
 62
1
100
AcDbSpline
 70
8
 71
3
 72
8
 73
4
 74
0
 40
0
 40
0
 40
0
 40
0
 40
1
 40
1
 40
1
 40
1
 10
309.364333
 20
365.956555
 30
0.0
 10
309.080852
 20
365.792887
 30
0.0
 10
308.731589
 20
365.792887
 30
0.0
 10
308.448108
 20
365.956555
 30
0.0
  0
SPLINE
  5
34d
100
AcDbEntity
  8
Layer_1
 62
1
100
AcDbSpline
 70
8
 71
3
 72
8
 73
4
 74
0
 40
0
 40
0
 40
0
 40
0
 40
1
 40
1
 40
1
 40
1
 10
308.448108
 20
365.956555
 30
0.0
 10
308.164628
 20
366.120223
 30
0.0
 10
307.989996
 20
366.422693
 30
0.0
 10
307.989996
 20
366.750028
 30
0.0
  0
SPLINE
  5
34e
100
AcDbEntity
  8
Layer_1
 62
1
100
AcDbSpline
 70
8
 71
3
 72
8
 73
4
 74
0
 40
0
 40
0
 40
0
 40
0
 40
1
 40
1
 40
1
 40
1
 10
307.989996
 20
366.750028
 30
0.0
 10
307.989996
 20
367.077364
 30
0.0
 10
308.164628
 20
367.379834
 30
0.0
 10
308.448108
 20
367.543502
 30
0.0
  0
SPLINE
  5
34f
100
AcDbEntity
  8
Layer_1
 62
1
100
AcDbSpline
 70
8
 71
3
 72
8
 73
4
 74
0
 40
0
 40
0
 40
0
 40
0
 40
1
 40
1
 40
1
 40
1
 10
308.448108
 20
367.543502
 30
0.0
 10
308.731589
 20
367.707170
 30
0.0
 10
309.080852
 20
367.707170
 30
0.0
 10
309.364333
 20
367.543502
 30
0.0
  0
SPLINE
  5
350
100
AcDbEntity
  8
Layer_1
 62
1
100
AcDbSpline
 70
8
 71
3
 72
8
 73
4
 74
0
 40
0
 40
0
 40
0
 40
0
 40
1
 40
1
 40
1
 40
1
 10
309.364333
 20
367.543502
 30
0.0
 10
309.647813
 20
367.379834
 30
0.0
 10
309.822445
 20
367.077364
 30
0.0
 10
309.822445
 20
366.750028
 30
0.0
  0
LWPOLYLINE
  5
351
100
AcDbEntity
  8
Layer_1
 62
1
100
AcDbPolyline
 90
1
 70
1
 10
349.144224
 20
444.781247
 30
0.0
  0
LWPOLYLINE
  5
352
100
AcDbEntity
  8
Layer_1
 62
1
100
AcDbPolyline
 90
1
 70
1
 10
309.822445
 20
366.750028
 30
0.0
  0
ENDSEC
  0
SECTION
  2
OBJECTS
  0
DICTIONARY
  5
C
330
0
100
AcDbDictionary
  3
ACAD_GROUP
350
D
  3
ACAD_MLINESTYLE
350
17
  0
DICTIONARY
  5
D
330
C
100
AcDbDictionary
  0
DICTIONARY
  5
1A
330
C
100
AcDbDictionary
  0
DICTIONARY
  5
17
330
C
100
AcDbDictionary
  3
STANDARD
350
18
  0
DICTIONARY
  5
19
330
C
100
AcDbDictionary
  0
ENDSEC
  0
EOF
